<?xml version="1.0" encoding="UTF-8" standalone="no"?>
<!-- Created with Inkscape (http://www.inkscape.org/) -->

<svg
   version="1.1"
   id="svg1"
   width="118.40227"
   height="18.069468"
   viewBox="0 0 118.40227 18.069468"
   sodipodi:docname="certification_logo_01.pdf"
   xmlns:inkscape="http://www.inkscape.org/namespaces/inkscape"
   xmlns:sodipodi="http://sodipodi.sourceforge.net/DTD/sodipodi-0.dtd"
   xmlns="http://www.w3.org/2000/svg"
   xmlns:svg="http://www.w3.org/2000/svg">
  <defs
     id="defs1">
    <clipPath
       clipPathUnits="userSpaceOnUse"
       id="clipPath3">
      <path
         d="M 0,13.552 H 88.802 V 0 H 0 Z"
         transform="translate(-28.014801,-9.5393002)"
         id="path3" />
    </clipPath>
    <clipPath
       clipPathUnits="userSpaceOnUse"
       id="clipPath5">
      <path
         d="M 0,13.552 H 88.802 V 0 H 0 Z"
         transform="translate(-34.941201,-9.7754002)"
         id="path5" />
    </clipPath>
    <clipPath
       clipPathUnits="userSpaceOnUse"
       id="clipPath7">
      <path
         d="M 0,13.552 H 88.802 V 0 H 0 Z"
         transform="translate(-40.800401,-8.5548002)"
         id="path7" />
    </clipPath>
    <clipPath
       clipPathUnits="userSpaceOnUse"
       id="clipPath9">
      <path
         d="M 0,13.552 H 88.802 V 0 H 0 Z"
         transform="translate(-48.013601,-11.3502)"
         id="path9" />
    </clipPath>
    <clipPath
       clipPathUnits="userSpaceOnUse"
       id="clipPath11">
      <path
         d="M 0,13.552 H 88.802 V 0 H 0 Z"
         transform="translate(-56.257201,-11.4836)"
         id="path11" />
    </clipPath>
    <clipPath
       clipPathUnits="userSpaceOnUse"
       id="clipPath13">
      <path
         d="M 0,13.552 H 88.802 V 0 H 0 Z"
         transform="translate(-60.863602,-3.9055003)"
         id="path13" />
    </clipPath>
    <clipPath
       clipPathUnits="userSpaceOnUse"
       id="clipPath15">
      <path
         d="M 0,13.552 H 88.802 V 0 H 0 Z"
         transform="translate(-67.244102,-9.4733002)"
         id="path15" />
    </clipPath>
    <clipPath
       clipPathUnits="userSpaceOnUse"
       id="clipPath17">
      <path
         d="M 0,13.552 H 88.802 V 0 H 0 Z"
         transform="translate(-76.752804,-2.1988003)"
         id="path17" />
    </clipPath>
    <clipPath
       clipPathUnits="userSpaceOnUse"
       id="clipPath19">
      <path
         d="M 0,13.552 H 88.802 V 0 H 0 Z"
         transform="translate(-76.752804,-11.3502)"
         id="path19" />
    </clipPath>
    <clipPath
       clipPathUnits="userSpaceOnUse"
       id="clipPath21">
      <path
         d="M 0,13.552 H 88.802 V 0 H 0 Z"
         transform="translate(-83.1457,-10.5206)"
         id="path21" />
    </clipPath>
    <clipPath
       clipPathUnits="userSpaceOnUse"
       id="clipPath23">
      <path
         d="M 0,13.552 H 88.802 V 0 H 0 Z"
         transform="translate(-83.7406,-10.559)"
         id="path23" />
    </clipPath>
    <clipPath
       clipPathUnits="userSpaceOnUse"
       id="clipPath25">
      <path
         d="M 0,13.552 H 88.802 V 0 H 0 Z"
         transform="translate(-3.8451001,-0.58720026)"
         id="path25" />
    </clipPath>
    <clipPath
       clipPathUnits="userSpaceOnUse"
       id="clipPath27">
      <path
         d="M 0,13.552 H 88.802 V 0 H 0 Z"
         transform="translate(-21.948601,-8.8998002)"
         id="path27" />
    </clipPath>
  </defs>
  <sodipodi:namedview
     id="namedview1"
     pagecolor="#ffffff"
     bordercolor="#000000"
     borderopacity="0.25"
     inkscape:showpageshadow="2"
     inkscape:pageopacity="0.0"
     inkscape:pagecheckerboard="0"
     inkscape:deskcolor="#d1d1d1">
    <inkscape:page
       x="0"
       y="0"
       inkscape:label="1"
       id="page1"
       width="118.40227"
       height="18.069468"
       margin="0.78289735 5.1268001 0.78293335 5.1267467"
       bleed="0" />
  </sodipodi:namedview>
  <g
     id="g1"
     inkscape:groupmode="layer"
     inkscape:label="1">
    <g
       id="layer-MC0">
      <path
         id="path2"
         d="M 0,0 C -0.026,0.097 -0.049,0.159 -0.066,0.19 -0.083,0.221 -0.115,0.236 -0.158,0.236 -0.201,0.236 -0.25,0.158 -0.302,0 l -0.922,-2.995 -0.004,-0.04 -0.009,-0.026 c 0,-0.061 0.035,-0.092 0.105,-0.092 H 0.83 c 0.07,0 0.105,0.031 0.105,0.092 L 0.928,-3.035 0.922,-2.995 0.002,0 Z m -1.883,1.168 c 0.107,0.342 0.299,0.557 0.58,0.643 0.28,0.089 0.66,0.133 1.145,0.133 C 0.327,1.944 0.736,1.9 1.02,1.811 1.303,1.725 1.5,1.51 1.605,1.168 l 2.644,-8.561 c 0,-0.05 -0.031,-0.078 -0.092,-0.078 H 2.432 c -0.087,0 -0.144,0.039 -0.169,0.118 L 1.567,-5.082 C 1.541,-4.994 1.484,-4.95 1.395,-4.95 h -3.092 c -0.089,0 -0.145,-0.05 -0.172,-0.146 L -2.565,-7.34 c -0.028,-0.089 -0.083,-0.131 -0.172,-0.131 h -1.71 c -0.069,0 -0.106,0.026 -0.106,0.078 z"
         style="fill:#201d1c;fill-opacity:1;fill-rule:nonzero;stroke:none"
         transform="matrix(1.3333333,0,0,-1.3333333,37.353067,5.3504)"
         clip-path="url(#clipPath3)" />
      <path
         id="path4"
         d="m 0,0 c -0.087,0 -0.13,-0.043 -0.13,-0.13 v -2.141 c 0,-0.086 0.047,-0.132 0.144,-0.132 h 2.38 c 0.122,0 0.259,0.061 0.409,0.186 0.121,0.104 0.215,0.256 0.282,0.46 0.065,0.201 0.098,0.423 0.098,0.668 0,0.123 -0.006,0.235 -0.02,0.335 C 3.148,-0.655 3.122,-0.561 3.078,-0.472 2.936,-0.184 2.771,-0.026 2.578,0 h -2.58 z M -1.908,1.708 H 2.986 C 3.229,1.708 3.472,1.659 3.709,1.564 3.945,1.467 4.177,1.302 4.406,1.063 4.801,0.652 5.011,0.031 5.039,-0.8 v -0.303 c 0,-0.769 -0.092,-1.331 -0.278,-1.68 C 4.639,-2.958 4.511,-3.119 4.379,-3.262 4.248,-3.407 4.07,-3.541 3.841,-3.663 L 3.809,-3.702 3.788,-3.769 3.801,-3.82 c 0.201,-0.263 0.345,-0.493 0.428,-0.69 0.083,-0.196 0.16,-0.398 0.23,-0.61 l 0.724,-2.217 c 0.017,-0.072 0.051,-0.137 0.098,-0.192 0.048,-0.057 0.072,-0.095 0.072,-0.11 0,-0.045 -0.026,-0.066 -0.08,-0.066 H 3.458 c -0.052,0 -0.111,0.044 -0.172,0.136 -0.06,0.094 -0.098,0.17 -0.116,0.233 L 2.354,-5.04 c -0.123,0.49 -0.373,0.762 -0.75,0.814 H 0 c -0.087,0 -0.13,-0.043 -0.13,-0.13 v -3.218 c 0,-0.088 -0.045,-0.13 -0.132,-0.13 h -1.644 c -0.087,0 -0.132,0.043 -0.132,0.13 v 9.147 c 0,0.089 0.045,0.134 0.132,0.134"
         style="fill:#201d1c;fill-opacity:1;fill-rule:nonzero;stroke:none"
         transform="matrix(1.3333333,0,0,-1.3333333,46.588267,5.0356)"
         clip-path="url(#clipPath5)" />
      <path
         id="path6"
         d="M 0,0 C 0,0.377 0.055,0.731 0.159,1.063 0.212,1.257 0.285,1.42 0.376,1.556 0.468,1.691 0.563,1.817 0.659,1.931 0.931,2.246 1.256,2.49 1.632,2.668 2.01,2.843 2.414,2.93 2.843,2.93 H 6.33 c 0.089,0 0.132,-0.044 0.132,-0.133 V 1.354 C 6.462,1.268 6.419,1.224 6.33,1.224 H 2.923 C 2.581,1.155 2.326,0.977 2.159,0.693 1.993,0.408 1.909,0.038 1.909,-0.419 V -3.74 c 0.026,-0.305 0.124,-0.55 0.296,-0.727 0.17,-0.179 0.409,-0.282 0.718,-0.31 H 6.33 c 0.089,0 0.132,-0.043 0.132,-0.131 v -1.445 c 0,-0.087 -0.043,-0.13 -0.132,-0.13 H 2.964 C 2.7,-6.483 2.467,-6.46 2.266,-6.411 2.064,-6.364 1.888,-6.31 1.74,-6.247 1.405,-6.124 1.109,-5.925 0.845,-5.649 0.583,-5.375 0.366,-5.043 0.201,-4.657 0.155,-4.56 0.112,-4.433 0.067,-4.269 0.023,-4.108 0.002,-3.909 0.002,-3.673 v 3.678 z"
         style="fill:#201d1c;fill-opacity:1;fill-rule:nonzero;stroke:none"
         transform="matrix(1.3333333,0,0,-1.3333333,54.400533,6.6630667)"
         clip-path="url(#clipPath7)" />
      <path
         id="path8"
         d="M 0,0 C 0,0.089 0.044,0.133 0.132,0.133 H 1.776 C 1.863,0.133 1.908,0.089 1.908,0 v -3.57 c 0,-0.087 0.044,-0.13 0.131,-0.13 h 3.118 c 0.087,0 0.13,0.044 0.13,0.13 V 0 c 0,0.089 0.045,0.133 0.134,0.133 H 7.064 C 7.152,0.133 7.195,0.089 7.195,0 v -9.151 c 0,-0.088 -0.045,-0.131 -0.131,-0.131 H 5.421 c -0.089,0 -0.134,0.043 -0.134,0.131 v 3.612 c 0,0.086 -0.043,0.131 -0.13,0.131 H 2.039 c -0.088,0 -0.131,-0.045 -0.131,-0.131 v -3.612 c 0,-0.088 -0.045,-0.131 -0.132,-0.131 H 0.132 C 0.046,-9.282 0,-9.239 0,-9.151 Z"
         style="fill:#201d1c;fill-opacity:1;fill-rule:nonzero;stroke:none"
         transform="matrix(1.3333333,0,0,-1.3333333,64.018133,2.9358667)"
         clip-path="url(#clipPath9)" />
      <path
         id="path10"
         d="m 0,0 h 1.645 c 0.088,0 0.132,-0.044 0.132,-0.133 v -9.152 c 0,-0.089 -0.044,-0.13 -0.132,-0.13 H 0 c -0.086,0 -0.133,0.043 -0.133,0.13 v 9.152 C -0.133,-0.044 -0.087,0 0,0"
         style="fill:#201d1c;fill-opacity:1;fill-rule:nonzero;stroke:none"
         transform="matrix(1.3333333,0,0,-1.3333333,75.0096,2.758)"
         clip-path="url(#clipPath11)" />
      <path
         id="path12"
         d="m 0,0 c 0,-0.089 0.043,-0.132 0.132,-0.132 h 2.354 c 0.141,0 0.282,0.037 0.427,0.112 0.145,0.074 0.273,0.17 0.39,0.29 0.112,0.118 0.205,0.248 0.274,0.392 0.071,0.146 0.108,0.292 0.108,0.441 V 4.596 C 3.685,4.754 3.643,4.908 3.567,5.06 3.487,5.214 3.386,5.35 3.263,5.468 3.14,5.588 3.002,5.683 2.849,5.758 2.696,5.833 2.539,5.868 2.381,5.868 H 0.133 C 0.044,5.868 0.002,5.827 0.002,5.738 V 0 Z m -1.908,-1.707 v 9.152 c 0,0.089 0.043,0.133 0.131,0.133 H 2.71 C 3.209,7.578 3.642,7.482 4.007,7.29 4.369,7.097 4.669,6.847 4.908,6.542 5.143,6.233 5.318,5.884 5.427,5.491 5.536,5.096 5.591,4.697 5.591,4.295 V 1.142 C 5.591,0.8 5.534,0.454 5.427,0.098 5.316,-0.256 5.143,-0.578 4.908,-0.868 4.671,-1.156 4.373,-1.391 4.013,-1.57 3.653,-1.751 3.223,-1.839 2.723,-1.839 h -4.5 c -0.088,0 -0.131,0.043 -0.131,0.131"
         style="fill:#201d1c;fill-opacity:1;fill-rule:nonzero;stroke:none"
         transform="matrix(1.3333333,0,0,-1.3333333,81.151467,12.862133)"
         clip-path="url(#clipPath13)" />
      <path
         id="path14"
         d="M 0,0 C 0,0.595 0.161,1.08 0.485,1.452 0.81,1.825 1.279,2.01 1.891,2.01 h 4.463 c 0.114,0 0.171,-0.044 0.171,-0.133 V 0.432 C 6.525,0.347 6.48,0.301 6.393,0.301 H 2.038 C 1.951,0.301 1.906,0.255 1.906,0.158 v -1.786 c 0,-0.089 0.045,-0.132 0.132,-0.132 h 4.039 c 0.086,0 0.13,-0.045 0.13,-0.131 v -1.51 c 0,-0.088 -0.044,-0.132 -0.13,-0.132 H 2.038 c -0.087,0 -0.132,-0.044 -0.132,-0.13 v -1.905 c 0,-0.089 0.045,-0.132 0.132,-0.132 h 4.355 c 0.087,0 0.132,-0.044 0.132,-0.132 v -1.444 c 0,-0.087 -0.045,-0.13 -0.132,-0.13 H 1.302 c -0.158,0 -0.316,0.041 -0.474,0.122 C 0.669,-7.199 0.529,-7.092 0.405,-6.962 0.282,-6.83 0.186,-6.681 0.11,-6.522 0.035,-6.359 0,-6.195 0,-6.028 Z"
         style="fill:#201d1c;fill-opacity:1;fill-rule:nonzero;stroke:none"
         transform="matrix(1.3333333,0,0,-1.3333333,89.6588,5.4384)"
         clip-path="url(#clipPath15)" />
      <path
         id="path16"
         d="M 0,0 C -0.052,-0.071 -0.1,-0.109 -0.147,-0.118 -0.193,-0.127 -0.242,-0.13 -0.293,-0.13 H -2.02 c -0.073,0 -0.131,0.003 -0.179,0.012 -0.046,0.009 -0.069,0.038 -0.069,0.092 0,0.015 0.02,0.06 0.06,0.132 L 3.389,9.151 C 3.439,9.222 3.49,9.262 3.538,9.271 3.585,9.28 3.631,9.283 3.685,9.283 H 5.41 c 0.072,0 0.133,-0.004 0.178,-0.012 0.047,-0.009 0.07,-0.04 0.07,-0.092 0,-0.018 -0.021,-0.061 -0.063,-0.133 L 3.001,4.764 2.93,4.666 C 2.904,4.628 2.894,4.599 2.894,4.58 2.894,4.565 2.904,4.533 2.93,4.49 2.955,4.445 2.979,4.412 3.001,4.386 L 5.595,0.104 C 5.637,0.032 5.658,-0.011 5.658,-0.028 5.658,-0.081 5.635,-0.112 5.588,-0.12 5.542,-0.129 5.482,-0.132 5.41,-0.132 H 3.685 c -0.054,0 -0.1,0.003 -0.147,0.012 -0.048,0.01 -0.097,0.048 -0.149,0.118 L 1.786,2.585 1.748,2.657 1.694,2.702 1.639,2.657 1.601,2.585 -0.002,-0.002 Z"
         style="fill:#201d1c;fill-opacity:1;fill-rule:nonzero;stroke:none"
         transform="matrix(1.3333333,0,0,-1.3333333,102.33707,15.137733)"
         clip-path="url(#clipPath17)" />
      <path
         id="path18"
         d="M 0,0 C -0.052,0.072 -0.1,0.112 -0.147,0.12 -0.193,0.129 -0.242,0.135 -0.293,0.135 H -2.02 c -0.073,0 -0.131,-0.006 -0.179,-0.015 -0.046,-0.008 -0.069,-0.039 -0.069,-0.092 0,-0.019 0.02,-0.062 0.06,-0.132 l 1.992,-3.283 1.165,1.854 -0.951,1.531 z"
         style="fill:#201d1c;fill-opacity:1;fill-rule:nonzero;stroke:none"
         transform="matrix(1.3333333,0,0,-1.3333333,102.33707,2.9358667)"
         clip-path="url(#clipPath19)" />
      <path
         id="path20"
         d="m 0,0 c 0,-0.466 0.379,-0.845 0.846,-0.845 0.467,0 0.845,0.379 0.845,0.845 0,0.466 -0.378,0.843 -0.845,0.845 C 0.379,0.845 0,0.468 0,0 m -0.115,0 c 0,0.531 0.432,0.961 0.963,0.961 C 1.379,0.961 1.809,0.529 1.811,0 1.809,-0.531 1.38,-0.961 0.848,-0.961 c -0.532,0 -0.963,0.43 -0.963,0.961"
         style="fill:#201d1c;fill-opacity:1;fill-rule:nonzero;stroke:none"
         transform="matrix(1.3333333,0,0,-1.3333333,110.86093,4.042)"
         clip-path="url(#clipPath21)" />
      <path
         id="path22"
         d="m 0,0 h 0.136 c 0.171,0 0.39,0 0.39,0.192 0,0.165 -0.16,0.191 -0.31,0.191 H 0.002 L 0.002,0 Z m -0.153,0.511 h 0.329 c 0.25,0 0.514,-0.033 0.514,-0.318 0,-0.168 -0.123,-0.279 -0.322,-0.305 L 0.731,-0.644 H 0.546 l -0.351,0.518 h -0.197 v -0.518 h -0.153 v 1.156 z"
         style="fill:#201d1c;fill-opacity:1;fill-rule:nonzero;stroke:none"
         transform="matrix(1.3333333,0,0,-1.3333333,111.65413,3.9908)"
         clip-path="url(#clipPath23)" />
      <path
         id="path24"
         d="M 0,0 H 9.806 L 8.786,1.763 H 3.055 l 4.092,7.086 4.09,-7.086 H 9.894 L 10.912,0 h 3.381 L 7.147,12.378 Z"
         style="fill:#e6088a;fill-opacity:1;fill-rule:nonzero;stroke:none"
         transform="matrix(1.3333333,0,0,-1.3333333,5.1268,17.286533)"
         clip-path="url(#clipPath25)" />
      <path
         id="path26"
         d="m 0,0 c 0,2.432 -1.921,4.065 -4.781,4.065 h -4.936 l 2.191,-3.797 v 1.965 h 2.711 c 1.75,0 2.881,-0.876 2.881,-2.233 0,-1.357 -1.13,-2.216 -2.881,-2.216 h -1.277 l 1.384,-2.397 2.149,-3.69 h 2.001 l -2.635,4.48 C -1.236,-3.272 0,-1.814 0,0"
         style="fill:#e6088a;fill-opacity:1;fill-rule:nonzero;stroke:none"
         transform="matrix(1.3333333,0,0,-1.3333333,29.2648,6.2030667)"
         clip-path="url(#clipPath27)" />
    </g>
  </g>
</svg>
