<?xml version="1.0" encoding="UTF-8" standalone="no"?>
<!-- Created with Inkscape (http://www.inkscape.org/) -->

<svg
   version="1.1"
   id="svg1"
   width="122.71667"
   height="33.390667"
   viewBox="0 0 122.71667 33.390667"
   sodipodi:docname="certification_logo_09.pdf"
   xmlns:inkscape="http://www.inkscape.org/namespaces/inkscape"
   xmlns:sodipodi="http://sodipodi.sourceforge.net/DTD/sodipodi-0.dtd"
   xmlns="http://www.w3.org/2000/svg"
   xmlns:svg="http://www.w3.org/2000/svg">
  <defs
     id="defs1">
    <clipPath
       clipPathUnits="userSpaceOnUse"
       id="clipPath3">
      <path
         d="M 0,25.043 H 92.038 V 0 H 0 Z"
         transform="translate(-81.344005,-2.3429001)"
         id="path3" />
    </clipPath>
    <clipPath
       clipPathUnits="userSpaceOnUse"
       id="clipPath5">
      <path
         d="M 0,25.043 H 92.038 V 0 H 0 Z"
         transform="translate(-10.6975,-22.516001)"
         id="path5" />
    </clipPath>
    <clipPath
       clipPathUnits="userSpaceOnUse"
       id="clipPath7">
      <path
         d="M 0,25.043 H 92.038 V 0 H 0 Z"
         transform="translate(-72.964402,-19.6188)"
         id="path7" />
    </clipPath>
    <clipPath
       clipPathUnits="userSpaceOnUse"
       id="clipPath9">
      <path
         d="M 0,25.043 H 92.038 V 0 H 0 Z"
         transform="translate(-73.512402,-19.456001)"
         id="path9" />
    </clipPath>
    <clipPath
       clipPathUnits="userSpaceOnUse"
       id="clipPath11">
      <path
         d="M 0,25.043 H 92.038 V 0 H 0 Z"
         transform="translate(-72.965402,-19.0022)"
         id="path11" />
    </clipPath>
    <clipPath
       clipPathUnits="userSpaceOnUse"
       id="clipPath13">
      <path
         d="M 0,25.043 H 92.038 V 0 H 0 Z"
         transform="translate(-72.965402,-18.7)"
         id="path13" />
    </clipPath>
    <clipPath
       clipPathUnits="userSpaceOnUse"
       id="clipPath15">
      <path
         d="M 0,25.043 H 92.038 V 0 H 0 Z"
         transform="translate(-72.965402,-18.3978)"
         id="path15" />
    </clipPath>
    <clipPath
       clipPathUnits="userSpaceOnUse"
       id="clipPath17">
      <path
         d="M 0,25.043 H 92.038 V 0 H 0 Z"
         transform="translate(-72.963502,-18.0956)"
         id="path17" />
    </clipPath>
    <clipPath
       clipPathUnits="userSpaceOnUse"
       id="clipPath19">
      <path
         d="M 0,25.043 H 92.038 V 0 H 0 Z"
         transform="translate(-72.966302,-17.7934)"
         id="path19" />
    </clipPath>
    <clipPath
       clipPathUnits="userSpaceOnUse"
       id="clipPath21">
      <path
         d="M 0,25.043 H 92.038 V 0 H 0 Z"
         transform="translate(-72.966302,-17.4912)"
         id="path21" />
    </clipPath>
    <clipPath
       clipPathUnits="userSpaceOnUse"
       id="clipPath23">
      <path
         d="M 0,25.043 H 92.038 V 0 H 0 Z"
         transform="translate(-77.745002,-17.3406)"
         id="path23" />
    </clipPath>
    <clipPath
       clipPathUnits="userSpaceOnUse"
       id="clipPath25">
      <path
         d="M 0,25.043 H 92.038 V 0 H 0 Z"
         transform="translate(-70.481002,-9.8893005)"
         id="path25" />
    </clipPath>
    <clipPath
       clipPathUnits="userSpaceOnUse"
       id="clipPath27">
      <path
         d="M 0,25.043 H 92.038 V 0 H 0 Z"
         transform="translate(-72.964402,-10.3431)"
         id="path27" />
    </clipPath>
    <clipPath
       clipPathUnits="userSpaceOnUse"
       id="clipPath29">
      <path
         d="M 0,25.043 H 92.038 V 0 H 0 Z"
         transform="translate(-72.964402,-10.645301)"
         id="path29" />
    </clipPath>
    <clipPath
       clipPathUnits="userSpaceOnUse"
       id="clipPath31">
      <path
         d="M 0,25.043 H 92.038 V 0 H 0 Z"
         transform="translate(-72.964402,-9.7377)"
         id="path31" />
    </clipPath>
    <clipPath
       clipPathUnits="userSpaceOnUse"
       id="clipPath33">
      <path
         d="M 0,25.043 H 92.038 V 0 H 0 Z"
         transform="translate(-72.964402,-9.4346002)"
         id="path33" />
    </clipPath>
    <clipPath
       clipPathUnits="userSpaceOnUse"
       id="clipPath35">
      <path
         d="M 0,25.043 H 92.038 V 0 H 0 Z"
         transform="translate(-72.965402,-9.1315005)"
         id="path35" />
    </clipPath>
    <clipPath
       clipPathUnits="userSpaceOnUse"
       id="clipPath37">
      <path
         d="M 0,25.043 H 92.038 V 0 H 0 Z"
         transform="translate(-72.964402,-8.8293)"
         id="path37" />
    </clipPath>
    <clipPath
       clipPathUnits="userSpaceOnUse"
       id="clipPath39">
      <path
         d="M 0,25.043 H 92.038 V 0 H 0 Z"
         transform="translate(-72.963502,-8.5271002)"
         id="path39" />
    </clipPath>
    <clipPath
       clipPathUnits="userSpaceOnUse"
       id="clipPath41">
      <path
         d="M 0,25.043 H 92.038 V 0 H 0 Z"
         transform="translate(-72.964402,-8.2239)"
         id="path41" />
    </clipPath>
    <clipPath
       clipPathUnits="userSpaceOnUse"
       id="clipPath43">
      <path
         d="M 0,25.043 H 92.038 V 0 H 0 Z"
         transform="translate(-72.964402,-10.947401)"
         id="path43" />
    </clipPath>
    <clipPath
       clipPathUnits="userSpaceOnUse"
       id="clipPath45">
      <path
         d="M 0,25.043 H 92.038 V 0 H 0 Z"
         transform="translate(-72.963502,-11.2487)"
         id="path45" />
    </clipPath>
    <clipPath
       clipPathUnits="userSpaceOnUse"
       id="clipPath47">
      <path
         d="M 0,25.043 H 92.038 V 0 H 0 Z"
         transform="translate(-72.963502,-11.5518)"
         id="path47" />
    </clipPath>
    <clipPath
       clipPathUnits="userSpaceOnUse"
       id="clipPath49">
      <path
         d="M 0,25.043 H 92.038 V 0 H 0 Z"
         transform="translate(-72.963502,-11.854001)"
         id="path49" />
    </clipPath>
    <clipPath
       clipPathUnits="userSpaceOnUse"
       id="clipPath51">
      <path
         d="M 0,25.043 H 92.038 V 0 H 0 Z"
         transform="translate(-68.129302,-12.0047)"
         id="path51" />
    </clipPath>
    <clipPath
       clipPathUnits="userSpaceOnUse"
       id="clipPath53">
      <path
         d="M 0,25.043 H 92.038 V 0 H 0 Z"
         transform="translate(-72.964402,-12.4584)"
         id="path53" />
    </clipPath>
    <clipPath
       clipPathUnits="userSpaceOnUse"
       id="clipPath55">
      <path
         d="M 0,25.043 H 92.038 V 0 H 0 Z"
         transform="translate(-67.472201,-12.609101)"
         id="path55" />
    </clipPath>
    <clipPath
       clipPathUnits="userSpaceOnUse"
       id="clipPath57">
      <path
         d="M 0,25.043 H 92.038 V 0 H 0 Z"
         transform="translate(-69.108401,-13.054301)"
         id="path57" />
    </clipPath>
    <clipPath
       clipPathUnits="userSpaceOnUse"
       id="clipPath59">
      <path
         d="M 0,25.043 H 92.038 V 0 H 0 Z"
         transform="translate(-73.201702,-14.307401)"
         id="path59" />
    </clipPath>
    <clipPath
       clipPathUnits="userSpaceOnUse"
       id="clipPath61">
      <path
         d="M 0,25.043 H 92.038 V 0 H 0 Z"
         transform="translate(-68.629202,-5.0504001)"
         id="path61" />
    </clipPath>
    <clipPath
       clipPathUnits="userSpaceOnUse"
       id="clipPath63">
      <path
         d="M 0,25.043 H 92.038 V 0 H 0 Z"
         id="path63" />
    </clipPath>
    <clipPath
       clipPathUnits="userSpaceOnUse"
       id="clipPath65">
      <path
         d="M 0,25.043 H 92.038 V 0 H 0 Z"
         transform="translate(-72.218802,-5.6246999)"
         id="path65" />
    </clipPath>
    <clipPath
       clipPathUnits="userSpaceOnUse"
       id="clipPath67">
      <path
         d="M 0,25.043 H 92.038 V 0 H 0 Z"
         id="path67" />
    </clipPath>
    <clipPath
       clipPathUnits="userSpaceOnUse"
       id="clipPath69">
      <path
         d="M 0,25.043 H 92.038 V 0 H 0 Z"
         transform="translate(-74.936702,-4.3085999)"
         id="path69" />
    </clipPath>
    <clipPath
       clipPathUnits="userSpaceOnUse"
       id="clipPath71">
      <path
         d="M 0,25.043 H 92.038 V 0 H 0 Z"
         transform="translate(-17.5291,-17.7068)"
         id="path71" />
    </clipPath>
    <clipPath
       clipPathUnits="userSpaceOnUse"
       id="clipPath73">
      <path
         d="M 0,25.043 H 92.038 V 0 H 0 Z"
         transform="translate(-18.8518,-18.0325)"
         id="path73" />
    </clipPath>
    <clipPath
       clipPathUnits="userSpaceOnUse"
       id="clipPath75">
      <path
         d="M 0,25.043 H 92.038 V 0 H 0 Z"
         transform="translate(-20.230101,-18.4364)"
         id="path75" />
    </clipPath>
    <clipPath
       clipPathUnits="userSpaceOnUse"
       id="clipPath77">
      <path
         d="M 0,25.043 H 92.038 V 0 H 0 Z"
         transform="translate(-21.711901,-16.7108)"
         id="path77" />
    </clipPath>
    <clipPath
       clipPathUnits="userSpaceOnUse"
       id="clipPath79">
      <path
         d="M 0,25.043 H 92.038 V 0 H 0 Z"
         id="path79" />
    </clipPath>
    <clipPath
       clipPathUnits="userSpaceOnUse"
       id="clipPath81">
      <path
         d="M 0,25.043 H 92.038 V 0 H 0 Z"
         id="path81" />
    </clipPath>
    <clipPath
       clipPathUnits="userSpaceOnUse"
       id="clipPath83">
      <path
         d="M 0,25.043 H 92.038 V 0 H 0 Z"
         transform="translate(-25.850301,-18.0325)"
         id="path83" />
    </clipPath>
    <clipPath
       clipPathUnits="userSpaceOnUse"
       id="clipPath85">
      <path
         d="M 0,25.043 H 92.038 V 0 H 0 Z"
         transform="translate(-27.665401,-18.0288)"
         id="path85" />
    </clipPath>
    <clipPath
       clipPathUnits="userSpaceOnUse"
       id="clipPath87">
      <path
         d="M 0,25.043 H 92.038 V 0 H 0 Z"
         transform="translate(-30.255201,-16.7108)"
         id="path87" />
    </clipPath>
    <clipPath
       clipPathUnits="userSpaceOnUse"
       id="clipPath89">
      <path
         d="M 0,25.043 H 92.038 V 0 H 0 Z"
         transform="translate(-31.029101,-17.399)"
         id="path89" />
    </clipPath>
    <clipPath
       clipPathUnits="userSpaceOnUse"
       id="clipPath91">
      <path
         d="M 0,25.043 H 92.038 V 0 H 0 Z"
         transform="translate(-33.896601,-16.7174)"
         id="path91" />
    </clipPath>
    <clipPath
       clipPathUnits="userSpaceOnUse"
       id="clipPath93">
      <path
         d="M 0,25.043 H 92.038 V 0 H 0 Z"
         transform="translate(-37.324301,-18.652)"
         id="path93" />
    </clipPath>
    <clipPath
       clipPathUnits="userSpaceOnUse"
       id="clipPath95">
      <path
         d="M 0,25.043 H 92.038 V 0 H 0 Z"
         transform="translate(-39.116801,-16.7174)"
         id="path95" />
    </clipPath>
    <clipPath
       clipPathUnits="userSpaceOnUse"
       id="clipPath97">
      <path
         d="M 0,25.043 H 92.038 V 0 H 0 Z"
         transform="translate(-41.792301,-17.069501)"
         id="path97" />
    </clipPath>
    <clipPath
       clipPathUnits="userSpaceOnUse"
       id="clipPath99">
      <path
         d="M 0,25.043 H 92.038 V 0 H 0 Z"
         transform="translate(-43.644001,-17.069501)"
         id="path99" />
    </clipPath>
    <clipPath
       clipPathUnits="userSpaceOnUse"
       id="clipPath101">
      <path
         d="M 0,25.043 H 92.038 V 0 H 0 Z"
         transform="translate(-45.471301,-19.1001)"
         id="path101" />
    </clipPath>
    <clipPath
       clipPathUnits="userSpaceOnUse"
       id="clipPath103">
      <path
         d="M 0,25.043 H 92.038 V 0 H 0 Z"
         id="path103" />
    </clipPath>
    <clipPath
       clipPathUnits="userSpaceOnUse"
       id="clipPath105">
      <path
         d="M 0,25.043 H 92.038 V 0 H 0 Z"
         transform="translate(-48.482901,-16.7174)"
         id="path105" />
    </clipPath>
    <clipPath
       clipPathUnits="userSpaceOnUse"
       id="clipPath107">
      <path
         d="M 0,25.043 H 92.038 V 0 H 0 Z"
         transform="translate(-50.913701,-17.4621)"
         id="path107" />
    </clipPath>
    <clipPath
       clipPathUnits="userSpaceOnUse"
       id="clipPath109">
      <path
         d="M 0,25.043 H 92.038 V 0 H 0 Z"
         transform="translate(-52.858601,-18.6445)"
         id="path109" />
    </clipPath>
    <clipPath
       clipPathUnits="userSpaceOnUse"
       id="clipPath111">
      <path
         d="M 0,25.043 H 92.038 V 0 H 0 Z"
         transform="translate(-54.040102,-19.4522)"
         id="path111" />
    </clipPath>
    <clipPath
       clipPathUnits="userSpaceOnUse"
       id="clipPath113">
      <path
         d="M 0,25.043 H 92.038 V 0 H 0 Z"
         transform="translate(-14.061,-13.2615)"
         id="path113" />
    </clipPath>
    <clipPath
       clipPathUnits="userSpaceOnUse"
       id="clipPath115">
      <path
         d="M 0,25.043 H 92.038 V 0 H 0 Z"
         transform="translate(-14.461101,-12.272)"
         id="path115" />
    </clipPath>
    <clipPath
       clipPathUnits="userSpaceOnUse"
       id="clipPath117">
      <path
         d="M 0,25.043 H 92.038 V 0 H 0 Z"
         transform="translate(-16.84,-13.8762)"
         id="path117" />
    </clipPath>
    <clipPath
       clipPathUnits="userSpaceOnUse"
       id="clipPath119">
      <path
         d="M 0,25.043 H 92.038 V 0 H 0 Z"
         transform="translate(-18.3369,-15.0501)"
         id="path119" />
    </clipPath>
    <clipPath
       clipPathUnits="userSpaceOnUse"
       id="clipPath121">
      <path
         d="M 0,25.043 H 92.038 V 0 H 0 Z"
         id="path121" />
    </clipPath>
    <clipPath
       clipPathUnits="userSpaceOnUse"
       id="clipPath123">
      <path
         d="M 0,25.043 H 92.038 V 0 H 0 Z"
         transform="translate(-21.426601,-12.272)"
         id="path123" />
    </clipPath>
    <clipPath
       clipPathUnits="userSpaceOnUse"
       id="clipPath125">
      <path
         d="M 0,25.043 H 92.038 V 0 H 0 Z"
         id="path125" />
    </clipPath>
    <clipPath
       clipPathUnits="userSpaceOnUse"
       id="clipPath127">
      <path
         d="M 0,25.043 H 92.038 V 0 H 0 Z"
         transform="translate(-25.935001,-13.2615)"
         id="path127" />
    </clipPath>
    <clipPath
       clipPathUnits="userSpaceOnUse"
       id="clipPath129">
      <path
         d="M 0,25.043 H 92.038 V 0 H 0 Z"
         transform="translate(-26.9056,-13.3829)"
         id="path129" />
    </clipPath>
    <clipPath
       clipPathUnits="userSpaceOnUse"
       id="clipPath131">
      <path
         d="M 0,25.043 H 92.038 V 0 H 0 Z"
         transform="translate(-28.017501,-15.0501)"
         id="path131" />
    </clipPath>
    <clipPath
       clipPathUnits="userSpaceOnUse"
       id="clipPath133">
      <path
         d="M 0,25.043 H 92.038 V 0 H 0 Z"
         id="path133" />
    </clipPath>
    <clipPath
       clipPathUnits="userSpaceOnUse"
       id="clipPath135">
      <path
         d="M 0,25.043 H 92.038 V 0 H 0 Z"
         transform="translate(-31.596701,-13.2276)"
         id="path135" />
    </clipPath>
    <clipPath
       clipPathUnits="userSpaceOnUse"
       id="clipPath137">
      <path
         d="M 0,25.043 H 92.038 V 0 H 0 Z"
         transform="translate(-34.593201,-15.0501)"
         id="path137" />
    </clipPath>
    <clipPath
       clipPathUnits="userSpaceOnUse"
       id="clipPath139">
      <path
         d="M 0,25.043 H 92.038 V 0 H 0 Z"
         transform="translate(-37.783701,-15.0501)"
         id="path139" />
    </clipPath>
    <clipPath
       clipPathUnits="userSpaceOnUse"
       id="clipPath141">
      <path
         d="M 0,25.043 H 92.038 V 0 H 0 Z"
         transform="translate(-39.313501,-13.2276)"
         id="path141" />
    </clipPath>
    <clipPath
       clipPathUnits="userSpaceOnUse"
       id="clipPath143">
      <path
         d="M 0,25.043 H 92.038 V 0 H 0 Z"
         id="path143" />
    </clipPath>
    <clipPath
       clipPathUnits="userSpaceOnUse"
       id="clipPath145">
      <path
         d="M 0,25.043 H 92.038 V 0 H 0 Z"
         id="path145" />
    </clipPath>
    <clipPath
       clipPathUnits="userSpaceOnUse"
       id="clipPath147">
      <path
         d="M 0,25.043 H 92.038 V 0 H 0 Z"
         transform="translate(-44.778401,-13.8423)"
         id="path147" />
    </clipPath>
    <clipPath
       clipPathUnits="userSpaceOnUse"
       id="clipPath149">
      <path
         d="M 0,25.043 H 92.038 V 0 H 0 Z"
         transform="translate(-47.964201,-13.2615)"
         id="path149" />
    </clipPath>
    <clipPath
       clipPathUnits="userSpaceOnUse"
       id="clipPath151">
      <path
         d="M 0,25.043 H 92.038 V 0 H 0 Z"
         transform="translate(-48.823701,-13.0167)"
         id="path151" />
    </clipPath>
    <clipPath
       clipPathUnits="userSpaceOnUse"
       id="clipPath153">
      <path
         d="M 0,25.043 H 92.038 V 0 H 0 Z"
         transform="translate(-50.768701,-14.198201)"
         id="path153" />
    </clipPath>
    <clipPath
       clipPathUnits="userSpaceOnUse"
       id="clipPath155">
      <path
         d="M 0,25.043 H 92.038 V 0 H 0 Z"
         transform="translate(-52.621402,-14.198201)"
         id="path155" />
    </clipPath>
    <clipPath
       clipPathUnits="userSpaceOnUse"
       id="clipPath157">
      <path
         d="M 0,25.043 H 92.038 V 0 H 0 Z"
         transform="translate(-53.802901,-12.272)"
         id="path157" />
    </clipPath>
    <clipPath
       clipPathUnits="userSpaceOnUse"
       id="clipPath159">
      <path
         d="M 0,25.043 H 92.038 V 0 H 0 Z"
         transform="translate(-56.452001,-14.6538)"
         id="path159" />
    </clipPath>
    <clipPath
       clipPathUnits="userSpaceOnUse"
       id="clipPath161">
      <path
         d="M 0,25.043 H 92.038 V 0 H 0 Z"
         transform="translate(-58.086301,-13.0167)"
         id="path161" />
    </clipPath>
    <clipPath
       clipPathUnits="userSpaceOnUse"
       id="clipPath163">
      <path
         d="M 0,25.043 H 92.038 V 0 H 0 Z"
         transform="translate(-12.3363,-4.5703004)"
         id="path163" />
    </clipPath>
    <clipPath
       clipPathUnits="userSpaceOnUse"
       id="clipPath165">
      <path
         d="M 0,25.043 H 92.038 V 0 H 0 Z"
         id="path165" />
    </clipPath>
    <clipPath
       clipPathUnits="userSpaceOnUse"
       id="clipPath167">
      <path
         d="M 0,25.043 H 92.038 V 0 H 0 Z"
         transform="translate(-19.427001,-7.3409002)"
         id="path167" />
    </clipPath>
    <clipPath
       clipPathUnits="userSpaceOnUse"
       id="clipPath169">
      <path
         d="M 0,25.043 H 92.038 V 0 H 0 Z"
         id="path169" />
    </clipPath>
    <clipPath
       clipPathUnits="userSpaceOnUse"
       id="clipPath171">
      <path
         d="M 0,25.043 H 92.038 V 0 H 0 Z"
         transform="translate(-26.5507,-4.5317001)"
         id="path171" />
    </clipPath>
    <clipPath
       clipPathUnits="userSpaceOnUse"
       id="clipPath173">
      <path
         d="M 0,25.043 H 92.038 V 0 H 0 Z"
         transform="translate(-30.705201,-4.7087001)"
         id="path173" />
    </clipPath>
    <clipPath
       clipPathUnits="userSpaceOnUse"
       id="clipPath175">
      <path
         d="M 0,25.043 H 92.038 V 0 H 0 Z"
         transform="translate(-36.945801,-5.3639001)"
         id="path175" />
    </clipPath>
    <clipPath
       clipPathUnits="userSpaceOnUse"
       id="clipPath177">
      <path
         d="M 0,25.043 H 92.038 V 0 H 0 Z"
         transform="translate(-39.716401,-7.3409002)"
         id="path177" />
    </clipPath>
    <clipPath
       clipPathUnits="userSpaceOnUse"
       id="clipPath179">
      <path
         d="M 0,25.043 H 92.038 V 0 H 0 Z"
         transform="translate(-42.319501,-7.4830004)"
         id="path179" />
    </clipPath>
    <clipPath
       clipPathUnits="userSpaceOnUse"
       id="clipPath181">
      <path
         d="M 0,25.043 H 92.038 V 0 H 0 Z"
         id="path181" />
    </clipPath>
    <clipPath
       clipPathUnits="userSpaceOnUse"
       id="clipPath183">
      <path
         d="M 0,25.043 H 92.038 V 0 H 0 Z"
         transform="translate(-47.878501,-7.5047002)"
         id="path183" />
    </clipPath>
    <clipPath
       clipPathUnits="userSpaceOnUse"
       id="clipPath185">
      <path
         d="M 0,25.043 H 92.038 V 0 H 0 Z"
         id="path185" />
    </clipPath>
    <clipPath
       clipPathUnits="userSpaceOnUse"
       id="clipPath187">
      <path
         d="M 0,25.043 H 92.038 V 0 H 0 Z"
         transform="translate(-55.186702,-5.3639001)"
         id="path187" />
    </clipPath>
    <clipPath
       clipPathUnits="userSpaceOnUse"
       id="clipPath189">
      <path
         d="M 0,25.043 H 92.038 V 0 H 0 Z"
         transform="translate(-57.539302,-5.3903001)"
         id="path189" />
    </clipPath>
    <clipPath
       clipPathUnits="userSpaceOnUse"
       id="clipPath191">
      <path
         d="M 0,25.043 H 92.038 V 0 H 0 Z"
         transform="translate(-62.860202,-20.004801)"
         id="path191" />
    </clipPath>
  </defs>
  <sodipodi:namedview
     id="namedview1"
     pagecolor="#ffffff"
     bordercolor="#000000"
     borderopacity="0.25"
     inkscape:showpageshadow="2"
     inkscape:pageopacity="0.0"
     inkscape:pagecheckerboard="0"
     inkscape:deskcolor="#d1d1d1">
    <inkscape:page
       x="0"
       y="0"
       inkscape:label="1"
       id="page1"
       width="122.71667"
       height="33.390667"
       margin="2.7022667 9.3056002 2.7026668 9.3055868"
       bleed="0" />
  </sodipodi:namedview>
  <g
     id="g1"
     inkscape:groupmode="layer"
     inkscape:label="1">
    <g
       id="layer-MC0">
      <path
         id="path2"
         d="m 0,0 -70.643,-0.066 c -1.917,-0.002 -3.472,1.665 -3.472,3.721 v 13.048 c 0,2.054 1.553,3.72 3.468,3.72 h 70.643 c 1.916,0 3.468,-1.666 3.468,-3.72 V 3.721 c 0,-2.054 -1.551,-3.719 -3.465,-3.72 z"
         style="fill:#ffffff;fill-opacity:1;fill-rule:nonzero;stroke:none"
         transform="matrix(1.3333333,0,0,-1.3333333,108.45867,30.2668)"
         clip-path="url(#clipPath3)" />
      <path
         id="path4"
         d="m 0,0 c -1.774,0 -3.218,-1.557 -3.218,-3.471 v -13.048 c 0,-0.962 0.376,-1.891 1.032,-2.546 0.597,-0.596 1.373,-0.924 2.186,-0.924 h 0.003 l 70.04,0.065 -0.001,0.002 h 0.604 c 1.772,0.001 3.215,1.558 3.215,3.471 v 12.98 C 73.861,-1.557 72.417,0 70.643,0 Z m 0,-20.489 c -0.947,0 -1.848,0.38 -2.54,1.07 -0.749,0.749 -1.178,1.806 -1.178,2.9 V -3.471 C -3.718,-1.281 -2.05,0.5 0,0.5 h 70.643 c 2.05,0 3.718,-1.781 3.718,-3.971 v -12.98 c 0,-1.986 -1.372,-3.636 -3.157,-3.926 l 0.045,-0.044 -0.603,-0.002 -70.643,-0.066 z"
         style="fill:#231f20;fill-opacity:1;fill-rule:nonzero;stroke:none"
         transform="matrix(1.3333333,0,0,-1.3333333,14.263333,3.3693333)"
         clip-path="url(#clipPath5)" />
      <path
         id="path6"
         d="m 0,0 -6.038,-3.021 c -0.222,-0.095 -0.419,-0.221 -0.59,-0.377 -0.393,-0.358 -0.6,-0.786 -0.6,-1.234 0,-0.449 0.208,-0.875 0.6,-1.235 L 0,-11.831 6.629,-5.866 c 0.392,0.359 0.6,0.786 0.6,1.234 0,0.448 -0.208,0.876 -0.6,1.234 -0.172,0.157 -0.369,0.282 -0.584,0.374 L 0.001,0 Z m 0,-12.099 -6.761,6.084 c -0.43,0.393 -0.667,0.884 -0.667,1.383 0,0.499 0.237,0.99 0.666,1.381 0.187,0.172 0.403,0.309 0.64,0.411 L 0,0.223 6.128,-2.842 c 0.231,-0.099 0.446,-0.236 0.634,-0.408 0.429,-0.392 0.666,-0.883 0.666,-1.382 0,-0.499 -0.237,-0.989 -0.666,-1.382 z"
         style="fill:#110f0e;fill-opacity:1;fill-rule:nonzero;stroke:none"
         transform="matrix(1.3333333,0,0,-1.3333333,97.285867,7.2322667)"
         clip-path="url(#clipPath7)" />
      <path
         id="path8"
         d="M 0,0 C 0,0 -0.253,-0.152 -0.548,-0.152 -0.843,-0.152 -1.097,0 -1.097,0 c 0,0 0.253,0.152 0.549,0.152 C -0.252,0.152 0,0 0,0"
         style="fill:#110f0e;fill-opacity:1;fill-rule:nonzero;stroke:none"
         transform="matrix(1.3333333,0,0,-1.3333333,98.016533,7.4493333)"
         clip-path="url(#clipPath9)" />
      <path
         id="path10"
         d="m 0,0 c -0.62,0 -1.152,0.152 -1.152,0.152 0,0 0.533,0.15 1.152,0.15 0.619,0 1.152,-0.15 1.152,-0.15 C 1.152,0.152 0.62,0 0,0"
         style="fill:#110f0e;fill-opacity:1;fill-rule:nonzero;stroke:none"
         transform="matrix(1.3333333,0,0,-1.3333333,97.2872,8.0544)"
         clip-path="url(#clipPath11)" />
      <path
         id="path12"
         d="m 0,0 c -0.945,0 -1.758,0.151 -1.758,0.151 0,0 0.813,0.151 1.758,0.151 0.945,0 1.757,-0.151 1.757,-0.151 C 1.757,0.151 0.945,0 0,0"
         style="fill:#110f0e;fill-opacity:1;fill-rule:nonzero;stroke:none"
         transform="matrix(1.3333333,0,0,-1.3333333,97.2872,8.4573333)"
         clip-path="url(#clipPath13)" />
      <path
         id="path14"
         d="m 0,0 c -1.271,0 -2.363,0.152 -2.363,0.152 0,0 1.092,0.151 2.363,0.151 1.271,0 2.362,-0.15 2.362,-0.15 0,0 -1.091,-0.152 -2.362,-0.152 z"
         style="fill:#110f0e;fill-opacity:1;fill-rule:nonzero;stroke:none"
         transform="matrix(1.3333333,0,0,-1.3333333,97.2872,8.8602667)"
         clip-path="url(#clipPath15)" />
      <path
         id="path16"
         d="m 0,0 c -1.596,0 -2.966,0.152 -2.966,0.152 0,0 1.37,0.151 2.966,0.151 1.596,0 2.965,-0.151 2.965,-0.151 C 2.965,0.152 1.596,0 0,0"
         style="fill:#110f0e;fill-opacity:1;fill-rule:nonzero;stroke:none"
         transform="matrix(1.3333333,0,0,-1.3333333,97.284667,9.2632)"
         clip-path="url(#clipPath17)" />
      <path
         id="path18"
         d="m 0,0 c -1.921,0 -3.57,0.152 -3.57,0.152 0,0 1.65,0.151 3.57,0.151 1.92,0 3.569,-0.151 3.569,-0.151 C 3.569,0.152 1.92,0 0,0"
         style="fill:#110f0e;fill-opacity:1;fill-rule:nonzero;stroke:none"
         transform="matrix(1.3333333,0,0,-1.3333333,97.2884,9.6661333)"
         clip-path="url(#clipPath19)" />
      <path
         id="path20"
         d="m 0,0 c -2.247,0 -4.176,0.152 -4.176,0.152 0,0 1.929,0.15 4.176,0.15 2.247,0 4.174,-0.15 4.174,-0.15 C 4.174,0.152 2.246,0 0,0"
         style="fill:#110f0e;fill-opacity:1;fill-rule:nonzero;stroke:none"
         transform="matrix(1.3333333,0,0,-1.3333333,97.2884,10.069067)"
         clip-path="url(#clipPath21)" />
      <path
         id="path22"
         d="m 0,0 c 0,0 -2.207,-0.151 -4.779,-0.151 -2.572,0 -4.78,0.151 -4.78,0.151 0,0 2.208,0.152 4.78,0.152 C -2.207,0.152 0,0 0,0 Z"
         style="fill:#110f0e;fill-opacity:1;fill-rule:nonzero;stroke:none"
         transform="matrix(1.3333333,0,0,-1.3333333,103.66,10.269867)"
         clip-path="url(#clipPath23)" />
      <path
         id="path24"
         d="m 0,0 c 0,0 1.148,0.152 2.484,0.152 1.337,0 2.486,-0.151 2.486,-0.151 0,0 -1.149,-0.152 -2.486,-0.152 C 1.148,-0.151 0,0.001 0,0.001 Z"
         style="fill:#110f0e;fill-opacity:1;fill-rule:nonzero;stroke:none"
         transform="matrix(1.3333333,0,0,-1.3333333,93.974667,20.204933)"
         clip-path="url(#clipPath25)" />
      <path
         id="path26"
         d="m 0,0 c 1.518,0 2.82,-0.152 2.82,-0.152 0,0 -1.302,-0.15 -2.82,-0.15 -1.518,0 -2.82,0.15 -2.82,0.15 0,0 1.302,0.152 2.82,0.152"
         style="fill:#110f0e;fill-opacity:1;fill-rule:nonzero;stroke:none"
         transform="matrix(1.3333333,0,0,-1.3333333,97.285867,19.599867)"
         clip-path="url(#clipPath27)" />
      <path
         id="path28"
         d="m 0,0 c 1.698,0 3.157,-0.152 3.157,-0.152 0,0 -1.459,-0.151 -3.157,-0.15 -1.698,0 -3.156,0.15 -3.156,0.15 0,0 1.458,0.152 3.156,0.152"
         style="fill:#110f0e;fill-opacity:1;fill-rule:nonzero;stroke:none"
         transform="matrix(1.3333333,0,0,-1.3333333,97.285867,19.196933)"
         clip-path="url(#clipPath29)" />
      <path
         id="path30"
         d="m 0,0 c 1.155,0 2.147,-0.152 2.147,-0.152 0,0 -0.992,-0.151 -2.147,-0.15 -1.155,0 -2.146,0.151 -2.146,0.151 0,0 0.991,0.152 2.146,0.152 z"
         style="fill:#110f0e;fill-opacity:1;fill-rule:nonzero;stroke:none"
         transform="matrix(1.3333333,0,0,-1.3333333,97.285867,20.407067)"
         clip-path="url(#clipPath31)" />
      <path
         id="path32"
         d="m 0,0 c 0.974,0 1.811,-0.151 1.811,-0.151 0,0 -0.837,-0.151 -1.811,-0.151 -0.974,0 -1.811,0.15 -1.811,0.15 0,0 0.836,0.152 1.811,0.152"
         style="fill:#110f0e;fill-opacity:1;fill-rule:nonzero;stroke:none"
         transform="matrix(1.3333333,0,0,-1.3333333,97.285867,20.8112)"
         clip-path="url(#clipPath33)" />
      <path
         id="path34"
         d="m 0,0 c 0.795,0 1.476,-0.151 1.476,-0.151 0,0 -0.681,-0.151 -1.476,-0.151 -0.795,0 -1.475,0.151 -1.475,0.151 0,0 0.681,0.151 1.475,0.151"
         style="fill:#110f0e;fill-opacity:1;fill-rule:nonzero;stroke:none"
         transform="matrix(1.3333333,0,0,-1.3333333,97.2872,21.215333)"
         clip-path="url(#clipPath35)" />
      <path
         id="path36"
         d="m 0,0 c 0.613,0 1.139,-0.151 1.139,-0.151 0,0 -0.526,-0.151 -1.139,-0.151 -0.613,0 -1.138,0.15 -1.138,0.15 0,0 0.526,0.152 1.138,0.152"
         style="fill:#110f0e;fill-opacity:1;fill-rule:nonzero;stroke:none"
         transform="matrix(1.3333333,0,0,-1.3333333,97.285867,21.618267)"
         clip-path="url(#clipPath37)" />
      <path
         id="path38"
         d="m 0,0 c 0.431,0 0.801,-0.152 0.801,-0.152 0,0 -0.37,-0.151 -0.801,-0.151 -0.431,0 -0.801,0.151 -0.801,0.151 0,0 0.37,0.152 0.801,0.152"
         style="fill:#110f0e;fill-opacity:1;fill-rule:nonzero;stroke:none"
         transform="matrix(1.3333333,0,0,-1.3333333,97.284667,22.0212)"
         clip-path="url(#clipPath39)" />
      <path
         id="path40"
         d="m 0,0 c 0.25,0 0.466,-0.152 0.466,-0.152 0,0 -0.216,-0.15 -0.466,-0.15 -0.25,0 -0.466,0.151 -0.466,0.151 0,0 0.216,0.151 0.466,0.151"
         style="fill:#110f0e;fill-opacity:1;fill-rule:nonzero;stroke:none"
         transform="matrix(1.3333333,0,0,-1.3333333,97.285867,22.425467)"
         clip-path="url(#clipPath41)" />
      <path
         id="path42"
         d="m 0,0 c 1.878,0 3.492,-0.152 3.492,-0.152 0,0 -1.613,-0.151 -3.492,-0.151 -1.879,0 -3.49,0.151 -3.49,0.151 0,0 1.612,0.152 3.49,0.152"
         style="fill:#110f0e;fill-opacity:1;fill-rule:nonzero;stroke:none"
         transform="matrix(1.3333333,0,0,-1.3333333,97.285867,18.794133)"
         clip-path="url(#clipPath43)" />
      <path
         id="path44"
         d="m 0,0 c 2.059,0 3.828,-0.151 3.828,-0.151 0,0 -1.768,-0.151 -3.828,-0.151 -2.059,0 -3.826,0.15 -3.826,0.15 0,0 1.767,0.152 3.826,0.152"
         style="fill:#110f0e;fill-opacity:1;fill-rule:nonzero;stroke:none"
         transform="matrix(1.3333333,0,0,-1.3333333,97.284667,18.3924)"
         clip-path="url(#clipPath45)" />
      <path
         id="path46"
         d="m 0,0 c 2.241,0 4.164,-0.151 4.164,-0.151 0,0 -1.923,-0.151 -4.164,-0.151 -2.24,0 -4.162,0.151 -4.162,0.151 0,0 1.922,0.152 4.162,0.151"
         style="fill:#110f0e;fill-opacity:1;fill-rule:nonzero;stroke:none"
         transform="matrix(1.3333333,0,0,-1.3333333,97.284667,17.988267)"
         clip-path="url(#clipPath47)" />
      <path
         id="path48"
         d="m 0,0 c 2.419,0 4.498,-0.152 4.498,-0.152 0,0 -2.078,-0.15 -4.498,-0.15 -2.42,0 -4.496,0.15 -4.496,0.15 0,0 2.076,0.152 4.496,0.152"
         style="fill:#110f0e;fill-opacity:1;fill-rule:nonzero;stroke:none"
         transform="matrix(1.3333333,0,0,-1.3333333,97.284667,17.585333)"
         clip-path="url(#clipPath49)" />
      <path
         id="path50"
         d="M 0,0 C 0,0 2.231,0.151 4.831,0.151 7.432,0.151 9.665,0 9.665,0 9.665,0 7.432,-0.152 4.831,-0.152 2.231,-0.152 0,0 0,0"
         style="fill:#110f0e;fill-opacity:1;fill-rule:nonzero;stroke:none"
         transform="matrix(1.3333333,0,0,-1.3333333,90.839067,17.3844)"
         clip-path="url(#clipPath51)" />
      <path
         id="path52"
         d="m 0,0 c 2.749,0 5.109,-0.152 5.109,-0.152 0,0 -2.36,-0.15 -5.109,-0.15 -2.749,0 -5.107,0.15 -5.107,0.15 0,0 2.358,0.152 5.107,0.152"
         style="fill:#110f0e;fill-opacity:1;fill-rule:nonzero;stroke:none"
         transform="matrix(1.3333333,0,0,-1.3333333,97.285867,16.779467)"
         clip-path="url(#clipPath53)" />
      <path
         id="path54"
         d="M 0,0 C 0,0 2.534,0.151 5.488,0.151 8.441,0.151 10.978,0 10.978,0 10.978,0 8.442,-0.152 5.488,-0.152 2.533,-0.152 -0.001,0 -0.001,0 Z"
         style="fill:#110f0e;fill-opacity:1;fill-rule:nonzero;stroke:none"
         transform="matrix(1.3333333,0,0,-1.3333333,89.962933,16.578533)"
         clip-path="url(#clipPath55)" />
      <path
         id="path56"
         d="M 0,0 V 3.849 H 1.396 L 2.234,1.224 3.062,3.849 H 4.461 V 0 H 3.596 V 3.029 L 2.679,0 H 1.781 L 0.867,3.029 V 0 H 0.001 Z"
         style="fill:#110f0e;fill-opacity:1;fill-rule:nonzero;stroke:none"
         transform="matrix(1.3333333,0,0,-1.3333333,92.144533,15.984933)"
         clip-path="url(#clipPath57)" />
      <path
         id="path58"
         d="m 0,0 0.908,0.073 c 0.054,-0.254 0.165,-0.439 0.332,-0.559 0.167,-0.119 0.392,-0.179 0.676,-0.179 0.3,0 0.526,0.053 0.679,0.159 0.152,0.107 0.228,0.23 0.228,0.371 0,0.092 -0.033,0.169 -0.096,0.233 C 2.663,0.162 2.551,0.217 2.392,0.265 2.283,0.297 2.033,0.352 1.646,0.433 1.146,0.536 0.796,0.663 0.593,0.813 0.31,1.025 0.169,1.283 0.169,1.588 c 0,0.196 0.066,0.38 0.199,0.55 0.134,0.17 0.326,0.3 0.576,0.39 0.252,0.089 0.555,0.133 0.909,0.133 0.58,0 1.016,-0.106 1.309,-0.318 C 3.455,2.131 3.609,1.849 3.624,1.495 L 2.692,1.461 C 2.651,1.659 2.565,1.801 2.435,1.888 2.304,1.974 2.107,2.017 1.844,2.017 1.582,2.017 1.361,1.971 1.208,1.878 1.109,1.819 1.06,1.739 1.06,1.639 1.06,1.548 1.106,1.47 1.199,1.406 1.317,1.323 1.602,1.238 2.056,1.148 2.51,1.058 2.846,0.967 3.063,0.871 3.281,0.776 3.451,0.645 3.574,0.479 3.696,0.313 3.758,0.109 3.758,-0.134 3.758,-0.355 3.685,-0.561 3.538,-0.753 3.39,-0.946 3.183,-1.088 2.914,-1.182 2.644,-1.277 2.31,-1.323 1.908,-1.323 c -0.583,0 -1.032,0.112 -1.345,0.337 -0.313,0.225 -0.5,0.553 -0.561,0.984 z"
         style="fill:#110f0e;fill-opacity:1;fill-rule:nonzero;stroke:none"
         transform="matrix(1.3333333,0,0,-1.3333333,97.602267,14.314133)"
         clip-path="url(#clipPath59)" />
      <path
         id="path60"
         d="m 0,0 0.448,0.043 c 0.026,-0.149 0.082,-0.26 0.164,-0.331 0.082,-0.071 0.194,-0.106 0.333,-0.106 0.148,0 0.26,0.031 0.335,0.094 0.076,0.063 0.113,0.136 0.113,0.22 0,0.055 -0.016,0.1 -0.047,0.137 C 1.314,0.095 1.259,0.128 1.181,0.156 1.127,0.175 1.004,0.208 0.812,0.256 0.566,0.317 0.392,0.392 0.293,0.481 0.153,0.607 0.083,0.76 0.083,0.94 0.083,1.056 0.116,1.165 0.182,1.267 0.248,1.368 0.343,1.445 0.466,1.498 0.59,1.551 0.74,1.577 0.915,1.577 1.201,1.577 1.417,1.515 1.562,1.39 1.707,1.263 1.783,1.097 1.79,0.887 L 1.329,0.866 C 1.31,0.984 1.267,1.068 1.202,1.119 1.138,1.17 1.04,1.197 0.91,1.197 0.78,1.197 0.672,1.169 0.597,1.114 0.548,1.078 0.523,1.031 0.523,0.972 0.523,0.918 0.546,0.872 0.592,0.834 0.651,0.785 0.792,0.734 1.016,0.682 1.24,0.629 1.406,0.574 1.513,0.518 1.62,0.461 1.704,0.383 1.764,0.285 1.825,0.187 1.856,0.066 1.856,-0.078 1.856,-0.209 1.819,-0.331 1.746,-0.445 1.674,-0.559 1.57,-0.645 1.438,-0.699 1.306,-0.755 1.14,-0.782 0.942,-0.782 0.654,-0.782 0.433,-0.715 0.279,-0.583 0.124,-0.45 0.032,-0.255 0.002,0 Z"
         style="fill:#110f0e;fill-opacity:1;fill-rule:nonzero;stroke:none"
         transform="matrix(1.3333333,0,0,-1.3333333,91.5056,26.6568)"
         clip-path="url(#clipPath61)" />
      <path
         id="path62"
         d="m 70.857,6.59 h 0.46 V 4.309 h -0.46 z"
         style="fill:#110f0e;fill-opacity:1;fill-rule:nonzero;stroke:none"
         transform="matrix(1.3333333,0,0,-1.3333333,0,33.390667)"
         clip-path="url(#clipPath63)" />
      <path
         id="path64"
         d="M 0,0 H 0.341 C 0.562,0 0.699,0.009 0.755,0.027 0.81,0.046 0.853,0.078 0.884,0.124 0.915,0.17 0.931,0.227 0.931,0.296 0.931,0.373 0.91,0.435 0.87,0.482 0.829,0.529 0.771,0.559 0.696,0.571 0.658,0.576 0.546,0.579 0.36,0.579 H 0 Z M -0.461,-1.316 V 0.965 H 0.507 C 0.751,0.965 0.928,0.944 1.039,0.904 1.15,0.862 1.238,0.79 1.305,0.684 1.371,0.58 1.404,0.46 1.404,0.325 1.404,0.153 1.354,0.012 1.253,-0.099 1.152,-0.21 1.002,-0.281 0.802,-0.31 0.901,-0.368 0.984,-0.432 1.049,-0.501 1.113,-0.57 1.2,-0.694 1.31,-0.872 L 1.589,-1.316 H 1.038 L 0.705,-0.82 c -0.118,0.177 -0.199,0.289 -0.243,0.335 -0.043,0.046 -0.089,0.077 -0.138,0.094 -0.049,0.018 -0.126,0.026 -0.232,0.026 h -0.093 v -0.952 h -0.46 z"
         style="fill:#110f0e;fill-opacity:1;fill-rule:nonzero;stroke:none"
         transform="matrix(1.3333333,0,0,-1.3333333,96.291733,25.891067)"
         clip-path="url(#clipPath65)" />
      <path
         id="path66"
         d="m 74.043,6.59 h 0.46 V 4.309 h -0.46 z"
         style="fill:#110f0e;fill-opacity:1;fill-rule:nonzero;stroke:none"
         transform="matrix(1.3333333,0,0,-1.3333333,0,33.390667)"
         clip-path="url(#clipPath67)" />
      <path
         id="path68"
         d="M 0,0 V 2.281 H 0.689 L 1.103,0.725 1.512,2.281 H 2.203 V 0 H 1.775 V 1.795 L 1.322,0 H 0.878 L 0.427,1.795 V 0 h -0.428 z"
         style="fill:#110f0e;fill-opacity:1;fill-rule:nonzero;stroke:none"
         transform="matrix(1.3333333,0,0,-1.3333333,99.9156,27.645867)"
         clip-path="url(#clipPath69)" />
      <path
         id="path70"
         d="m 0,0 c -0.004,-0.052 -0.008,-0.107 -0.011,-0.159 -0.027,-0.508 -0.197,-0.896 -0.774,-0.896 -0.852,0 -0.908,0.541 -0.908,1.282 v 0.396 c 0.023,0.708 0.078,1.233 0.908,1.233 0.463,-0.007 0.722,-0.244 0.76,-0.718 0.007,-0.07 0.015,-0.141 0.011,-0.211 h -0.511 c -0.023,0.178 -0.004,0.511 -0.259,0.511 -0.408,0 -0.374,-0.484 -0.374,-0.7 v -0.771 c 0,-0.23 0.019,-0.603 0.374,-0.603 0.285,0 0.252,0.459 0.262,0.637 h 0.523 z"
         style="fill:#110f0e;fill-opacity:1;fill-rule:nonzero;stroke:none"
         transform="matrix(1.3333333,0,0,-1.3333333,23.372133,9.7816)"
         clip-path="url(#clipPath71)" />
      <path
         id="path72"
         d="m 0,0 v 0.182 c -0.004,0.211 -0.059,0.277 -0.252,0.277 -0.241,0 -0.23,-0.185 -0.23,-0.373 V 0.001 l 0.482,0 z m -0.963,0.056 c -0.023,0.492 0.23,0.773 0.704,0.773 0.67,0 0.741,-0.348 0.741,-0.918 v -0.282 h -0.963 v -0.304 c 0.004,-0.274 0.107,-0.326 0.252,-0.326 0.178,0 0.23,0.13 0.222,0.393 h 0.482 c 0.019,-0.467 -0.174,-0.764 -0.666,-0.764 -0.556,0 -0.781,0.263 -0.77,0.879 v 0.548 z"
         style="fill:#110f0e;fill-opacity:1;fill-rule:nonzero;stroke:none"
         transform="matrix(1.3333333,0,0,-1.3333333,25.135733,9.3473333)"
         clip-path="url(#clipPath73)" />
      <path
         id="path74"
         d="m 0,0 h 0.008 c 0.059,0.152 0.118,0.237 0.189,0.297 0.137,0.114 0.229,0.107 0.3,0.111 V -0.163 C 0.231,-0.137 0.026,-0.203 0.019,-0.511 v -1.208 h -0.482 v 2.09 H 0 Z"
         style="fill:#110f0e;fill-opacity:1;fill-rule:nonzero;stroke:none"
         transform="matrix(1.3333333,0,0,-1.3333333,26.973467,8.8088)"
         clip-path="url(#clipPath75)" />
      <path
         id="path76"
         d="m 0,0 c -0.285,-0.034 -0.685,-0.059 -0.685,0.329 v 1.415 h -0.197 v 0.353 h 0.193 v 0.574 h 0.485 V 2.097 H 0 V 1.744 H -0.204 V 0.448 C -0.193,0.359 -0.059,0.37 0,0.378 Z"
         style="fill:#110f0e;fill-opacity:1;fill-rule:nonzero;stroke:none"
         transform="matrix(1.3333333,0,0,-1.3333333,28.9492,11.1096)"
         clip-path="url(#clipPath77)" />
      <path
         id="path78"
         d="m 22.083,18.807 h 0.482 v -2.09 h -0.482 z m 0,0.689 h 0.482 v -0.437 h -0.482 z"
         style="fill:#110f0e;fill-opacity:1;fill-rule:nonzero;stroke:none"
         transform="matrix(1.3333333,0,0,-1.3333333,0,33.390667)"
         clip-path="url(#clipPath79)" />
      <path
         id="path80"
         d="m 24.49,16.717 h -0.482 v 2.09 h 0.482 z m 0,2.342 h -0.482 v 0.437 h 0.482 z m -0.741,0.052 c -0.037,0.012 -0.078,0.023 -0.107,0.023 -0.071,0 -0.1,-0.033 -0.1,-0.082 v -0.245 h 0.207 V 18.455 H 23.542 V 16.717 H 23.06 v 1.738 h -0.186 v 0.352 h 0.186 v 0.207 c 0,0.378 0.155,0.482 0.507,0.482 h 0.182 z"
         style="fill:#110f0e;fill-opacity:1;fill-rule:nonzero;stroke:none"
         transform="matrix(1.3333333,0,0,-1.3333333,0,33.390667)"
         clip-path="url(#clipPath81)" />
      <path
         id="path82"
         d="m 0,0 v 0.182 c -0.004,0.211 -0.059,0.277 -0.252,0.277 -0.241,0 -0.23,-0.185 -0.23,-0.373 V 0.001 l 0.482,0 z m -0.963,0.056 c -0.023,0.492 0.23,0.773 0.704,0.773 0.67,0 0.741,-0.348 0.741,-0.918 v -0.282 h -0.963 v -0.304 c 0.004,-0.274 0.107,-0.326 0.252,-0.326 0.178,0 0.23,0.13 0.222,0.393 h 0.482 c 0.019,-0.467 -0.174,-0.764 -0.666,-0.764 -0.556,0 -0.781,0.263 -0.77,0.879 v 0.548 z"
         style="fill:#110f0e;fill-opacity:1;fill-rule:nonzero;stroke:none"
         transform="matrix(1.3333333,0,0,-1.3333333,34.467067,9.3473333)"
         clip-path="url(#clipPath83)" />
      <path
         id="path84"
         d="m 0,0 c 0.008,0.167 0,0.463 -0.226,0.463 -0.226,0 -0.203,-0.197 -0.218,-0.404 v -0.696 c 0.011,-0.2 0.063,-0.36 0.211,-0.36 0.155,0 0.233,0.13 0.233,0.371 z M 0,-1.089 H -0.008 C -0.1,-1.3 -0.233,-1.356 -0.423,-1.367 c -0.407,0 -0.492,0.37 -0.503,0.704 v 0.756 c 0.011,0.574 0.193,0.734 0.503,0.741 0.204,0.004 0.334,-0.067 0.431,-0.266 H 0.015 C 0.004,0.631 0,0.69 0,0.753 V 1.468 H 0.482 V -1.31 H 0 v 0.222 z"
         style="fill:#110f0e;fill-opacity:1;fill-rule:nonzero;stroke:none"
         transform="matrix(1.3333333,0,0,-1.3333333,36.8872,9.3522667)"
         clip-path="url(#clipPath85)" />
      <path
         id="path86"
         d="m 0,0 c -0.285,-0.034 -0.685,-0.059 -0.685,0.329 v 1.415 h -0.197 v 0.353 h 0.193 v 0.574 h 0.485 V 2.097 H 0 V 1.744 H -0.204 V 0.448 C -0.193,0.359 -0.059,0.37 0,0.378 Z"
         style="fill:#110f0e;fill-opacity:1;fill-rule:nonzero;stroke:none"
         transform="matrix(1.3333333,0,0,-1.3333333,40.340267,11.1096)"
         clip-path="url(#clipPath87)" />
      <path
         id="path88"
         d="m 0,0 c 0,-0.255 0.023,-0.367 0.256,-0.367 0.234,0 0.241,0.111 0.241,0.367 v 0.697 c 0,0.196 0,0.396 -0.241,0.396 C 0,1.093 0,0.893 0,0.697 Z m -0.481,0.289 c 0.004,0.715 0.011,1.174 0.737,1.174 0.726,0 0.718,-0.459 0.722,-1.174 0.004,-0.726 -0.1,-1.037 -0.722,-1.026 -0.634,-0.011 -0.741,0.3 -0.737,1.026"
         style="fill:#110f0e;fill-opacity:1;fill-rule:nonzero;stroke:none"
         transform="matrix(1.3333333,0,0,-1.3333333,41.372133,10.192)"
         clip-path="url(#clipPath89)" />
      <path
         id="path90"
         d="M 0,0 H -0.519 V 2.778 H 0.308 L 0.586,1.489 C 0.63,1.278 0.66,1.063 0.682,0.848 h 0.007 c 0.026,0.274 0.044,0.46 0.082,0.641 L 1.049,2.778 H 1.872 V 0 H 1.353 v 0.875 c 0,0.551 0.011,1.104 0.044,1.656 L 1.39,2.531 0.834,0 H 0.52 L -0.025,2.531 H -0.044 C -0.011,1.979 0,1.426 0,0.875 Z"
         style="fill:#110f0e;fill-opacity:1;fill-rule:nonzero;stroke:none"
         transform="matrix(1.3333333,0,0,-1.3333333,45.195467,11.1008)"
         clip-path="url(#clipPath91)" />
      <path
         id="path92"
         d="m 0,0 c 0.004,0.249 -0.019,0.492 -0.304,0.492 -0.174,0 -0.285,-0.07 -0.285,-0.259 0,-0.21 0.133,-0.292 0.296,-0.396 0.171,-0.107 0.486,-0.315 0.63,-0.456 0.178,-0.174 0.233,-0.34 0.233,-0.581 0,-0.527 -0.348,-0.801 -0.855,-0.801 -0.623,0 -0.845,0.349 -0.845,0.845 v 0.203 h 0.519 v -0.163 c -0.011,-0.27 0.071,-0.467 0.326,-0.467 0.218,0 0.322,0.115 0.322,0.326 0,0.163 -0.075,0.274 -0.207,0.367 -0.271,0.211 -0.608,0.364 -0.819,0.641 -0.086,0.127 -0.134,0.278 -0.134,0.427 0,0.474 0.266,0.733 0.815,0.733 C 0.519,0.911 0.496,0.274 0.5,0 Z"
         style="fill:#110f0e;fill-opacity:1;fill-rule:nonzero;stroke:none"
         transform="matrix(1.3333333,0,0,-1.3333333,49.765733,8.5213333)"
         clip-path="url(#clipPath93)" />
      <path
         id="path94"
         d="m 0,0 c 0.004,0.119 0.019,0.312 0.044,0.471 0.033,0.193 0.171,0.444 0.489,0.781 l 0.252,0.267 c 0.167,0.181 0.256,0.27 0.256,0.533 0,0.264 -0.1,0.33 -0.248,0.33 C 0.685,2.382 0.589,2.349 0.552,2.244 0.5,2.122 0.515,1.982 0.511,1.852 H 0.026 V 1.93 c 0,0.245 -0.011,0.867 0.789,0.859 C 1.252,2.786 1.56,2.515 1.56,2.071 1.56,1.763 1.445,1.53 1.23,1.311 L 0.823,0.889 C 0.715,0.778 0.556,0.596 0.553,0.407 H 1.519 V -0.001 H 0.001 Z"
         style="fill:#110f0e;fill-opacity:1;fill-rule:nonzero;stroke:none"
         transform="matrix(1.3333333,0,0,-1.3333333,52.155733,11.1008)"
         clip-path="url(#clipPath95)" />
      <path
         id="path96"
         d="m 0,0 c 0.27,0.004 0.241,0.255 0.241,0.611 0,0.2 0.026,0.5 -0.252,0.5 -0.256,0 -0.256,-0.27 -0.256,-0.5 C -0.271,0.266 -0.279,-0.026 -0.001,0 Z m -0.786,1.315 c 0,0.885 0.256,1.122 0.804,1.122 0.408,0 0.7,-0.185 0.685,-0.626 H 0.221 C 0.217,1.904 0.21,2.045 -0.001,2.03 -0.294,2.007 -0.267,1.678 -0.275,1.511 V 1.333 c 0.086,0.089 0.167,0.185 0.408,0.185 0.44,0 0.626,-0.3 0.626,-0.87 0,-0.697 -0.167,-1.056 -0.767,-1.056 -0.601,0 -0.786,0.404 -0.778,1.056 v 0.666 z"
         style="fill:#110f0e;fill-opacity:1;fill-rule:nonzero;stroke:none"
         transform="matrix(1.3333333,0,0,-1.3333333,55.723067,10.631333)"
         clip-path="url(#clipPath97)" />
      <path
         id="path98"
         d="m 0,0 c 0.27,0.004 0.241,0.255 0.241,0.611 0,0.2 0.026,0.5 -0.252,0.5 -0.256,0 -0.256,-0.27 -0.256,-0.5 C -0.271,0.266 -0.279,-0.026 -0.001,0 Z m -0.785,1.315 c 0,0.885 0.256,1.122 0.804,1.122 0.407,0 0.7,-0.185 0.685,-0.626 H 0.222 C 0.218,1.904 0.211,2.045 0,2.03 -0.293,2.007 -0.266,1.678 -0.274,1.511 V 1.333 c 0.086,0.089 0.167,0.185 0.408,0.185 0.44,0 0.626,-0.3 0.626,-0.87 0,-0.697 -0.167,-1.056 -0.768,-1.056 -0.6,0 -0.785,0.404 -0.777,1.056 v 0.666 z"
         style="fill:#110f0e;fill-opacity:1;fill-rule:nonzero;stroke:none"
         transform="matrix(1.3333333,0,0,-1.3333333,58.192,10.631333)"
         clip-path="url(#clipPath99)" />
      <path
         id="path100"
         d="m 0,0 c -0.27,-0.004 -0.241,-0.256 -0.241,-0.611 0,-0.2 -0.026,-0.5 0.252,-0.5 0.256,0 0.256,0.27 0.256,0.5 C 0.271,-0.266 0.279,0.026 0.001,0 Z m 0.785,-1.315 c 0,-0.886 -0.252,-1.122 -0.8,-1.122 -0.408,0 -0.7,0.185 -0.685,0.626 h 0.482 c 0.003,-0.093 0.015,-0.23 0.226,-0.219 0.292,0 0.262,0.352 0.27,0.519 v 0.178 C 0.192,-1.422 0.111,-1.518 -0.13,-1.518 c -0.44,0 -0.63,0.3 -0.63,0.87 0,0.697 0.171,1.057 0.771,1.057 0.601,0 0.782,-0.404 0.774,-1.057 v -0.666 z"
         style="fill:#110f0e;fill-opacity:1;fill-rule:nonzero;stroke:none"
         transform="matrix(1.3333333,0,0,-1.3333333,60.6284,7.9238667)"
         clip-path="url(#clipPath101)" />
      <path
         id="path102"
         d="m 46.679,17.206 h 0.489 v -0.489 h -0.489 z m 0,1.571 h 0.489 v -0.489 h -0.489 z"
         style="fill:#110f0e;fill-opacity:1;fill-rule:nonzero;stroke:none"
         transform="matrix(1.3333333,0,0,-1.3333333,0,33.390667)"
         clip-path="url(#clipPath103)" />
      <path
         id="path104"
         d="m 0,0 c 0.004,0.119 0.019,0.312 0.044,0.471 0.033,0.193 0.171,0.444 0.489,0.781 l 0.252,0.267 c 0.167,0.181 0.256,0.27 0.256,0.533 0,0.264 -0.1,0.33 -0.248,0.33 C 0.685,2.382 0.589,2.349 0.552,2.244 0.5,2.122 0.515,1.982 0.511,1.852 H 0.026 V 1.93 c 0,0.245 -0.011,0.867 0.789,0.859 C 1.252,2.786 1.56,2.515 1.56,2.071 1.56,1.763 1.445,1.53 1.23,1.311 L 0.823,0.889 C 0.715,0.778 0.556,0.596 0.553,0.407 H 1.519 V -0.001 H 0.001 Z"
         style="fill:#110f0e;fill-opacity:1;fill-rule:nonzero;stroke:none"
         transform="matrix(1.3333333,0,0,-1.3333333,64.643867,11.1008)"
         clip-path="url(#clipPath105)" />
      <path
         id="path106"
         d="m 0,0 c -0.015,-0.312 0.092,-0.393 0.226,-0.393 0.134,0 0.252,0.082 0.237,0.393 V 1.248 C 0.478,1.556 0.363,1.637 0.226,1.637 0.088,1.637 -0.015,1.555 0,1.248 Z m -0.519,1.249 c 0,0.59 0.282,0.797 0.752,0.797 0.471,0 0.749,-0.207 0.749,-0.797 V 0.001 c 0,-0.589 -0.282,-0.8 -0.752,-0.8 -0.471,0 -0.749,0.211 -0.749,0.8 z"
         style="fill:#110f0e;fill-opacity:1;fill-rule:nonzero;stroke:none"
         transform="matrix(1.3333333,0,0,-1.3333333,67.884933,10.107867)"
         clip-path="url(#clipPath107)" />
      <path
         id="path108"
         d="m 0,0 h -0.626 v 0.371 c 0.36,0.004 0.659,0.1 0.763,0.482 H 0.519 V -1.925 H 0 v 1.926 z"
         style="fill:#110f0e;fill-opacity:1;fill-rule:nonzero;stroke:none"
         transform="matrix(1.3333333,0,0,-1.3333333,70.478133,8.5313333)"
         clip-path="url(#clipPath109)" />
      <path
         id="path110"
         d="M 0,0 H 1.564 V -0.374 C 1.319,-0.807 1.16,-1.26 1.045,-1.718 0.959,-2.048 0.897,-2.392 0.882,-2.733 H 0.348 c 0.041,0.586 0.226,1.152 0.441,1.697 0.059,0.147 0.193,0.44 0.318,0.629 h -1.108 v 0.408 z"
         style="fill:#110f0e;fill-opacity:1;fill-rule:nonzero;stroke:none"
         transform="matrix(1.3333333,0,0,-1.3333333,72.053467,7.4544)"
         clip-path="url(#clipPath111)" />
      <path
         id="path112"
         d="m 0,0 c -0.004,-0.052 -0.008,-0.107 -0.011,-0.159 -0.027,-0.508 -0.197,-0.896 -0.774,-0.896 -0.852,0 -0.908,0.541 -0.908,1.282 v 0.396 c 0.023,0.708 0.078,1.234 0.908,1.234 0.463,-0.007 0.722,-0.244 0.76,-0.718 0.007,-0.071 0.015,-0.141 0.011,-0.211 h -0.511 c -0.023,0.178 -0.004,0.511 -0.259,0.511 -0.408,0 -0.374,-0.485 -0.374,-0.7 v -0.771 c 0,-0.23 0.019,-0.603 0.374,-0.603 0.285,0 0.252,0.459 0.262,0.637 h 0.523 z"
         style="fill:#110f0e;fill-opacity:1;fill-rule:nonzero;stroke:none"
         transform="matrix(1.3333333,0,0,-1.3333333,18.748,15.708667)"
         clip-path="url(#clipPath113)" />
      <path
         id="path114"
         d="M 0,0 V 2.778 H 1.459 V 2.37 H 0.518 V 1.67 H 1.385 V 1.262 H 0.518 V 0.407 h 0.941 v -0.408 l -1.459,0 z"
         style="fill:#110f0e;fill-opacity:1;fill-rule:nonzero;stroke:none"
         transform="matrix(1.3333333,0,0,-1.3333333,19.281467,17.028)"
         clip-path="url(#clipPath115)" />
      <path
         id="path116"
         d="m 0,0 h 0.408 c 0.17,0.011 0.304,0.122 0.304,0.4 0,0.312 -0.13,0.363 -0.326,0.367 H 10e-4 L 0.001,0 Z m 0,-0.408 v -1.196 h -0.519 v 2.778 h 0.982 c 0.448,0 0.789,-0.155 0.789,-0.667 0,-0.304 -0.078,-0.622 -0.426,-0.67 V -0.17 c 0.307,-0.041 0.4,-0.238 0.4,-0.504 0,-0.115 -0.015,-0.797 0.111,-0.878 V -1.604 H 0.766 c -0.063,0.178 -0.051,0.519 -0.055,0.704 -0.004,0.17 0,0.404 -0.178,0.456 -0.141,0.04 -0.293,0.036 -0.441,0.036 z"
         style="fill:#110f0e;fill-opacity:1;fill-rule:nonzero;stroke:none"
         transform="matrix(1.3333333,0,0,-1.3333333,22.453333,14.889067)"
         clip-path="url(#clipPath117)" />
      <path
         id="path118"
         d="M 0,0 H 1.73 V -0.408 H 1.126 V -2.779 H 0.607 v 2.371 l -0.607,0 z"
         style="fill:#110f0e;fill-opacity:1;fill-rule:nonzero;stroke:none"
         transform="matrix(1.3333333,0,0,-1.3333333,24.4492,13.323867)"
         clip-path="url(#clipPath119)" />
      <path
         id="path120"
         d="m 20.382,15.05 h 0.519 v -2.778 h -0.519 z"
         style="fill:#110f0e;fill-opacity:1;fill-rule:nonzero;stroke:none"
         transform="matrix(1.3333333,0,0,-1.3333333,0,33.390667)"
         clip-path="url(#clipPath121)" />
      <path
         id="path122"
         d="M 0,0 V 2.778 H 1.471 V 2.37 H 0.519 V 1.666 H 1.411 V 1.259 H 0.519 v -1.26 l -0.519,0 z"
         style="fill:#110f0e;fill-opacity:1;fill-rule:nonzero;stroke:none"
         transform="matrix(1.3333333,0,0,-1.3333333,28.5688,17.028)"
         clip-path="url(#clipPath123)" />
      <path
         id="path124"
         d="m 23.264,15.05 h 0.519 v -2.778 h -0.519 z"
         style="fill:#110f0e;fill-opacity:1;fill-rule:nonzero;stroke:none"
         transform="matrix(1.3333333,0,0,-1.3333333,0,33.390667)"
         clip-path="url(#clipPath125)" />
      <path
         id="path126"
         d="m 0,0 c -0.004,-0.052 -0.008,-0.107 -0.011,-0.159 -0.027,-0.508 -0.197,-0.896 -0.774,-0.896 -0.852,0 -0.908,0.541 -0.908,1.282 v 0.396 c 0.023,0.708 0.078,1.234 0.908,1.234 0.463,-0.007 0.722,-0.244 0.76,-0.718 0.007,-0.071 0.015,-0.141 0.011,-0.211 h -0.511 c -0.023,0.178 -0.004,0.511 -0.259,0.511 -0.408,0 -0.374,-0.485 -0.374,-0.7 v -0.771 c 0,-0.23 0.019,-0.603 0.374,-0.603 0.285,0 0.252,0.459 0.262,0.637 h 0.523 z"
         style="fill:#110f0e;fill-opacity:1;fill-rule:nonzero;stroke:none"
         transform="matrix(1.3333333,0,0,-1.3333333,34.58,15.708667)"
         clip-path="url(#clipPath127)" />
      <path
         id="path128"
         d="M 0,0 H 0.444 L 0.303,0.789 C 0.277,0.919 0.266,1.044 0.251,1.174 0.248,1.237 0.24,1.3 0.233,1.359 H 0.225 C 0.217,1.3 0.21,1.237 0.206,1.174 0.191,1.044 0.18,0.919 0.154,0.789 L -0.001,0 Z m -0.774,-1.111 0.663,2.778 h 0.7 l 0.63,-2.778 H 0.664 l -0.138,0.704 h -0.607 l -0.137,-0.704 z"
         style="fill:#110f0e;fill-opacity:1;fill-rule:nonzero;stroke:none"
         transform="matrix(1.3333333,0,0,-1.3333333,35.874133,15.5468)"
         clip-path="url(#clipPath129)" />
      <path
         id="path130"
         d="M 0,0 H 1.73 V -0.408 H 1.126 V -2.779 H 0.607 v 2.371 l -0.607,0 z"
         style="fill:#110f0e;fill-opacity:1;fill-rule:nonzero;stroke:none"
         transform="matrix(1.3333333,0,0,-1.3333333,37.356667,13.323867)"
         clip-path="url(#clipPath131)" />
      <path
         id="path132"
         d="m 30.062,15.05 h 0.519 v -2.778 h -0.519 z"
         style="fill:#110f0e;fill-opacity:1;fill-rule:nonzero;stroke:none"
         transform="matrix(1.3333333,0,0,-1.3333333,0,33.390667)"
         clip-path="url(#clipPath133)" />
      <path
         id="path134"
         d="m 0,0 c 0,-0.23 0.019,-0.603 0.374,-0.603 0.355,0 0.373,0.381 0.373,0.648 v 0.711 c 0,0.222 0.012,0.715 -0.373,0.715 C -0.034,1.471 0,0.986 0,0.771 Z M -0.534,0.656 C -0.511,1.364 -0.456,1.89 0.374,1.89 1.203,1.89 1.26,1.364 1.281,0.656 V 0.26 c 0,-0.741 -0.055,-1.282 -0.907,-1.282 -0.852,0 -0.908,0.541 -0.908,1.282 z"
         style="fill:#110f0e;fill-opacity:1;fill-rule:nonzero;stroke:none"
         transform="matrix(1.3333333,0,0,-1.3333333,42.128933,15.753867)"
         clip-path="url(#clipPath135)" />
      <path
         id="path136"
         d="m 0,0 h 0.519 v -2.778 h -0.542 l -0.403,0.989 c -0.138,0.33 -0.249,0.667 -0.371,1.105 h -0.008 c 0.019,-0.23 0.041,-0.512 0.056,-0.793 0.015,-0.278 0.026,-0.556 0.026,-0.778 v -0.522 h -0.519 v 2.778 h 0.538 L -0.3,-1.01 c 0.133,-0.322 0.244,-0.653 0.37,-1.104 h 0.007 c -0.019,0.252 -0.037,0.522 -0.052,0.788 -0.015,0.267 -0.026,0.534 -0.026,0.782 v 0.545 z"
         style="fill:#110f0e;fill-opacity:1;fill-rule:nonzero;stroke:none"
         transform="matrix(1.3333333,0,0,-1.3333333,46.124267,13.323867)"
         clip-path="url(#clipPath137)" />
      <path
         id="path138"
         d="m 0,0 h 0.519 v -2.778 h -0.542 l -0.403,0.989 c -0.138,0.33 -0.249,0.667 -0.37,1.105 h -0.008 c 0.019,-0.23 0.041,-0.512 0.056,-0.793 0.015,-0.278 0.026,-0.556 0.026,-0.778 v -0.522 h -0.519 v 2.778 h 0.538 l 0.404,-1.011 c 0.133,-0.322 0.244,-0.653 0.37,-1.104 H 0.078 C 0.059,-1.862 0.041,-1.592 0.026,-1.326 0.011,-1.059 0,-0.792 0,-0.544 v 0.545 z"
         style="fill:#110f0e;fill-opacity:1;fill-rule:nonzero;stroke:none"
         transform="matrix(1.3333333,0,0,-1.3333333,50.378267,13.323867)"
         clip-path="url(#clipPath139)" />
      <path
         id="path140"
         d="m 0,0 c 0,-0.23 0.019,-0.603 0.374,-0.603 0.355,0 0.373,0.381 0.373,0.648 v 0.711 c 0,0.222 0.012,0.715 -0.373,0.715 C -0.034,1.471 0,0.986 0,0.771 Z M -0.534,0.656 C -0.511,1.364 -0.456,1.89 0.374,1.89 1.203,1.89 1.26,1.364 1.281,0.656 V 0.26 c 0,-0.741 -0.055,-1.282 -0.907,-1.282 -0.852,0 -0.908,0.541 -0.908,1.282 z"
         style="fill:#110f0e;fill-opacity:1;fill-rule:nonzero;stroke:none"
         transform="matrix(1.3333333,0,0,-1.3333333,52.418,15.753867)"
         clip-path="url(#clipPath141)" />
      <path
         id="path142"
         d="m 41.192,12.761 h 0.489 v -0.489 h -0.489 z"
         style="fill:#110f0e;fill-opacity:1;fill-rule:nonzero;stroke:none"
         transform="matrix(1.3333333,0,0,-1.3333333,0,33.390667)"
         clip-path="url(#clipPath143)" />
      <path
         id="path144"
         d="m 42.322,12.761 h 0.489 v -0.489 h -0.489 z m 0,1.57 h 0.489 v -0.489 h -0.489 z"
         style="fill:#110f0e;fill-opacity:1;fill-rule:nonzero;stroke:none"
         transform="matrix(1.3333333,0,0,-1.3333333,0,33.390667)"
         clip-path="url(#clipPath145)" />
      <path
         id="path146"
         d="M 0,0 H 0.278 C 0.504,0 0.655,0.096 0.655,0.433 0.655,0.751 0.529,0.8 0.236,0.8 H -0.001 V 0 Z M -0.519,-1.57 V 1.208 H 0.54 c 0.497,0 0.649,-0.4 0.649,-0.789 C 1.189,0.182 1.126,-0.085 0.93,-0.24 0.767,-0.37 0.549,-0.41 0.348,-0.407 H 0 V -1.57 Z"
         style="fill:#110f0e;fill-opacity:1;fill-rule:nonzero;stroke:none"
         transform="matrix(1.3333333,0,0,-1.3333333,59.704533,14.934267)"
         clip-path="url(#clipPath147)" />
      <path
         id="path148"
         d="m 0,0 c -0.004,-0.052 -0.008,-0.107 -0.011,-0.159 -0.027,-0.508 -0.197,-0.896 -0.774,-0.896 -0.852,0 -0.908,0.541 -0.908,1.282 v 0.396 c 0.023,0.708 0.078,1.234 0.908,1.234 0.463,-0.007 0.722,-0.244 0.76,-0.718 0.007,-0.071 0.015,-0.141 0.011,-0.211 h -0.511 c -0.023,0.178 -0.004,0.511 -0.259,0.511 -0.408,0 -0.374,-0.485 -0.374,-0.7 v -0.771 c 0,-0.23 0.019,-0.603 0.374,-0.603 0.285,0 0.252,0.459 0.262,0.637 h 0.523 z"
         style="fill:#110f0e;fill-opacity:1;fill-rule:nonzero;stroke:none"
         transform="matrix(1.3333333,0,0,-1.3333333,63.952267,15.708667)"
         clip-path="url(#clipPath149)" />
      <path
         id="path150"
         d="m 0,0 c -0.015,-0.312 0.092,-0.393 0.226,-0.393 0.134,0 0.252,0.082 0.237,0.393 V 1.248 C 0.478,1.556 0.363,1.637 0.226,1.637 0.089,1.637 -0.015,1.555 0,1.248 Z m -0.519,1.248 c 0,0.59 0.282,0.797 0.752,0.797 0.471,0 0.749,-0.207 0.749,-0.797 V 0 c 0,-0.589 -0.282,-0.8 -0.752,-0.8 -0.471,0 -0.749,0.211 -0.749,0.8 z"
         style="fill:#110f0e;fill-opacity:1;fill-rule:nonzero;stroke:none"
         transform="matrix(1.3333333,0,0,-1.3333333,65.098267,16.035067)"
         clip-path="url(#clipPath151)" />
      <path
         id="path152"
         d="m 0,0 h -0.626 v 0.371 c 0.36,0.004 0.659,0.1 0.763,0.482 H 0.519 V -1.925 H 0 v 1.926 z"
         style="fill:#110f0e;fill-opacity:1;fill-rule:nonzero;stroke:none"
         transform="matrix(1.3333333,0,0,-1.3333333,67.6916,14.459733)"
         clip-path="url(#clipPath153)" />
      <path
         id="path154"
         d="m 0,0 h -0.626 v 0.371 c 0.36,0.004 0.659,0.1 0.763,0.482 H 0.519 V -1.925 H 0 v 1.926 z"
         style="fill:#110f0e;fill-opacity:1;fill-rule:nonzero;stroke:none"
         transform="matrix(1.3333333,0,0,-1.3333333,70.161867,14.459733)"
         clip-path="url(#clipPath155)" />
      <path
         id="path156"
         d="m 0,0 c 0.004,0.119 0.019,0.311 0.044,0.471 0.033,0.193 0.171,0.444 0.489,0.781 l 0.252,0.267 c 0.167,0.181 0.256,0.27 0.256,0.533 0,0.264 -0.1,0.33 -0.248,0.33 C 0.685,2.382 0.589,2.349 0.552,2.244 0.5,2.122 0.515,1.982 0.511,1.852 H 0.026 V 1.93 c 0,0.245 -0.011,0.867 0.789,0.859 C 1.252,2.786 1.56,2.515 1.56,2.071 1.56,1.763 1.445,1.53 1.23,1.311 L 0.823,0.889 C 0.715,0.778 0.556,0.596 0.553,0.407 H 1.519 V -0.001 H 0.001 Z"
         style="fill:#110f0e;fill-opacity:1;fill-rule:nonzero;stroke:none"
         transform="matrix(1.3333333,0,0,-1.3333333,71.7372,17.028)"
         clip-path="url(#clipPath157)" />
      <path
         id="path158"
         d="m 0,0 c -0.27,-0.004 -0.241,-0.255 -0.241,-0.611 0,-0.2 -0.026,-0.5 0.252,-0.5 0.256,0 0.256,0.27 0.256,0.5 C 0.271,-0.266 0.279,0.026 0.001,0 Z m 0.785,-1.315 c 0,-0.886 -0.252,-1.122 -0.8,-1.122 -0.408,0 -0.7,0.185 -0.685,0.626 h 0.482 c 0.003,-0.093 0.015,-0.23 0.226,-0.219 0.292,0 0.262,0.352 0.27,0.519 v 0.178 C 0.192,-1.422 0.111,-1.519 -0.13,-1.519 c -0.44,0 -0.63,0.301 -0.63,0.871 0,0.697 0.171,1.057 0.771,1.057 0.601,0 0.782,-0.404 0.774,-1.057 v -0.666 z"
         style="fill:#110f0e;fill-opacity:1;fill-rule:nonzero;stroke:none"
         transform="matrix(1.3333333,0,0,-1.3333333,75.269333,13.852267)"
         clip-path="url(#clipPath159)" />
      <path
         id="path160"
         d="m 0,0 c -0.015,-0.312 0.092,-0.393 0.226,-0.393 0.134,0 0.252,0.082 0.237,0.393 V 1.248 C 0.478,1.556 0.363,1.637 0.226,1.637 0.088,1.637 -0.015,1.555 0,1.248 Z m -0.519,1.248 c 0,0.59 0.282,0.797 0.752,0.797 0.471,0 0.749,-0.207 0.749,-0.797 V 0 c 0,-0.589 -0.282,-0.8 -0.752,-0.8 -0.471,0 -0.749,0.211 -0.749,0.8 z"
         style="fill:#110f0e;fill-opacity:1;fill-rule:nonzero;stroke:none"
         transform="matrix(1.3333333,0,0,-1.3333333,77.4484,16.035067)"
         clip-path="url(#clipPath161)" />
      <path
         id="path162"
         d="m 0,0 c -0.29,0.076 -0.525,0.177 -0.706,0.304 l 0.353,0.794 C -0.183,0.986 0.015,0.894 0.239,0.826 0.464,0.757 0.684,0.722 0.902,0.722 c 0.413,0 0.619,0.104 0.619,0.31 0,0.108 -0.059,0.189 -0.177,0.242 C 1.227,1.326 1.037,1.381 0.777,1.439 0.49,1.501 0.251,1.567 0.059,1.638 c -0.192,0.071 -0.356,0.184 -0.494,0.34 -0.137,0.155 -0.206,0.366 -0.206,0.631 0,0.231 0.063,0.44 0.19,0.628 0.127,0.186 0.316,0.334 0.568,0.443 0.251,0.108 0.56,0.163 0.926,0.163 0.251,0 0.496,-0.028 0.739,-0.085 C 2.025,3.702 2.239,3.62 2.423,3.511 L 2.092,2.712 C 1.729,2.908 1.378,3.006 1.037,3.006 0.824,3.006 0.668,2.974 0.571,2.911 0.473,2.848 0.424,2.765 0.424,2.663 0.424,2.562 0.482,2.485 0.598,2.435 0.714,2.386 0.9,2.332 1.158,2.278 1.448,2.217 1.688,2.15 1.878,2.08 2.068,2.009 2.233,1.897 2.372,1.743 2.512,1.588 2.581,1.379 2.581,1.115 2.581,0.887 2.518,0.68 2.391,0.495 2.264,0.311 2.074,0.163 1.821,0.053 1.567,-0.057 1.26,-0.113 0.897,-0.113 c -0.308,0 -0.607,0.038 -0.896,0.114 z"
         style="fill:#110f0e;fill-opacity:1;fill-rule:nonzero;stroke:none"
         transform="matrix(1.3333333,0,0,-1.3333333,16.4484,27.296933)"
         clip-path="url(#clipPath163)" />
      <path
         id="path164"
         d="m 15.411,8.336 h 1.076 V 4.533 h -1.076 z"
         style="fill:#110f0e;fill-opacity:1;fill-rule:nonzero;stroke:none"
         transform="matrix(1.3333333,0,0,-1.3333333,0,33.390667)"
         clip-path="url(#clipPath165)" />
      <path
         id="path166"
         d="M 0,0 C -0.112,0.098 -0.279,0.147 -0.5,0.147 H -1.098 V -0.967 H -0.5 c 0.221,0 0.388,0.048 0.5,0.144 0.112,0.096 0.169,0.233 0.169,0.411 0,0.178 -0.057,0.315 -0.169,0.413 z m -0.511,-1.798 h -0.587 v -1.011 h -1.076 v 3.803 h 1.739 C -0.09,0.994 0.208,0.937 0.461,0.823 0.715,0.709 0.91,0.546 1.048,0.333 1.185,0.121 1.254,-0.128 1.254,-0.414 1.254,-0.7 1.19,-0.929 1.061,-1.134 0.932,-1.339 0.748,-1.5 0.509,-1.615 L 1.33,-2.811 H 0.178 l -0.69,1.011 z"
         style="fill:#110f0e;fill-opacity:1;fill-rule:nonzero;stroke:none"
         transform="matrix(1.3333333,0,0,-1.3333333,25.902667,23.6028)"
         clip-path="url(#clipPath167)" />
      <path
         id="path168"
         d="M 21.274,8.336 H 22.35 V 4.533 h -1.076 z"
         style="fill:#110f0e;fill-opacity:1;fill-rule:nonzero;stroke:none"
         transform="matrix(1.3333333,0,0,-1.3333333,0,33.390667)"
         clip-path="url(#clipPath169)" />
      <path
         id="path170"
         d="M 0,0 -0.011,2.016 -0.989,0.375 H -1.468 L -2.44,1.961 v -1.962 h -0.994 v 3.803 h 0.886 L -1.212,1.607 0.092,3.802 H 0.978 L 0.989,-10e-4 H 0.001 Z"
         style="fill:#110f0e;fill-opacity:1;fill-rule:nonzero;stroke:none"
         transform="matrix(1.3333333,0,0,-1.3333333,35.400933,27.3484)"
         clip-path="url(#clipPath171)" />
      <path
         id="path172"
         d="m 0,0 c -0.317,0.169 -0.566,0.403 -0.747,0.703 -0.181,0.301 -0.273,0.641 -0.273,1.022 0,0.38 0.091,0.721 0.273,1.021 0.18,0.3 0.43,0.536 0.747,0.703 0.317,0.169 0.675,0.253 1.073,0.253 0.348,0 0.661,-0.062 0.941,-0.185 0.278,-0.123 0.511,-0.3 0.695,-0.533 L 2.025,2.365 C 1.778,2.662 1.48,2.81 1.129,2.81 0.923,2.81 0.738,2.765 0.577,2.675 0.416,2.584 0.291,2.456 0.202,2.291 0.114,2.127 0.07,1.937 0.07,1.724 0.07,1.51 0.114,1.321 0.202,1.156 0.291,0.991 0.416,0.863 0.577,0.773 0.738,0.683 0.923,0.637 1.129,0.637 c 0.351,0 0.65,0.149 0.896,0.446 L 2.709,0.463 C 2.525,0.232 2.293,0.054 2.014,-0.07 1.735,-0.193 1.422,-0.254 1.073,-0.254 0.675,-0.254 0.317,-0.17 0,-0.002 Z"
         style="fill:#110f0e;fill-opacity:1;fill-rule:nonzero;stroke:none"
         transform="matrix(1.3333333,0,0,-1.3333333,40.940267,27.1124)"
         clip-path="url(#clipPath173)" />
      <path
         id="path174"
         d="m 0,0 v -0.831 h -3.054 v 3.803 h 2.983 V 2.141 H -1.989 V 1.5 h 1.69 V 0.696 h -1.69 V 0 h 1.988 z"
         style="fill:#110f0e;fill-opacity:1;fill-rule:nonzero;stroke:none"
         transform="matrix(1.3333333,0,0,-1.3333333,49.261067,26.2388)"
         clip-path="url(#clipPath175)" />
      <path
         id="path176"
         d="M 0,0 C -0.112,0.098 -0.279,0.147 -0.5,0.147 H -1.098 V -0.967 H -0.5 c 0.221,0 0.388,0.048 0.5,0.144 0.112,0.096 0.169,0.233 0.169,0.411 0,0.178 -0.057,0.315 -0.169,0.413 z m -0.51,-1.798 h -0.587 v -1.011 h -1.076 v 3.803 h 1.739 c 0.345,0 0.643,-0.057 0.896,-0.171 C 0.715,0.709 0.911,0.546 1.049,0.333 1.186,0.121 1.255,-0.128 1.255,-0.414 1.255,-0.7 1.191,-0.929 1.062,-1.134 0.933,-1.339 0.749,-1.5 0.51,-1.615 L 1.331,-2.811 H 0.179 l -0.69,1.011 z"
         style="fill:#110f0e;fill-opacity:1;fill-rule:nonzero;stroke:none"
         transform="matrix(1.3333333,0,0,-1.3333333,52.9552,23.6028)"
         clip-path="url(#clipPath177)" />
      <path
         id="path178"
         d="M 0,0 H -1.168 V 0.853 H 2.239 V 0 H 1.076 V -2.95 H 0 Z"
         style="fill:#110f0e;fill-opacity:1;fill-rule:nonzero;stroke:none"
         transform="matrix(1.3333333,0,0,-1.3333333,56.426,23.413333)"
         clip-path="url(#clipPath179)" />
      <path
         id="path180"
         d="m 44.96,8.336 h 1.076 V 4.533 H 44.96 Z"
         style="fill:#110f0e;fill-opacity:1;fill-rule:nonzero;stroke:none"
         transform="matrix(1.3333333,0,0,-1.3333333,0,33.390667)"
         clip-path="url(#clipPath181)" />
      <path
         id="path182"
         d="M 0,0 V -0.837 H 1.679 V -1.668 H 0 V -2.972 H -1.076 V 0.831 H 1.907 V 0 Z"
         style="fill:#110f0e;fill-opacity:1;fill-rule:nonzero;stroke:none"
         transform="matrix(1.3333333,0,0,-1.3333333,63.838,23.3844)"
         clip-path="url(#clipPath183)" />
      <path
         id="path184"
         d="m 50.291,8.336 h 1.076 V 4.533 h -1.076 z"
         style="fill:#110f0e;fill-opacity:1;fill-rule:nonzero;stroke:none"
         transform="matrix(1.3333333,0,0,-1.3333333,0,33.390667)"
         clip-path="url(#clipPath185)" />
      <path
         id="path186"
         d="m 0,0 v -0.831 h -3.054 v 3.803 h 2.983 V 2.141 H -1.989 V 1.5 h 1.69 V 0.696 h -1.69 V 0 h 1.988 z"
         style="fill:#110f0e;fill-opacity:1;fill-rule:nonzero;stroke:none"
         transform="matrix(1.3333333,0,0,-1.3333333,73.582267,26.2388)"
         clip-path="url(#clipPath187)" />
      <path
         id="path188"
         d="M 0,0 C 0.326,0 0.587,0.092 0.785,0.277 0.983,0.461 1.082,0.716 1.082,1.043 1.082,1.37 0.983,1.625 0.785,1.809 0.587,1.994 0.326,2.086 0,2.086 H -0.679 V -0.001 H 0 Z M -1.755,2.946 H 0.044 C 0.46,2.946 0.83,2.868 1.152,2.712 1.474,2.556 1.725,2.336 1.903,2.049 2.08,1.763 2.169,1.428 2.169,1.044 2.169,0.66 2.081,0.325 1.903,0.039 1.725,-0.248 1.475,-0.469 1.152,-0.624 0.83,-0.78 0.46,-0.858 0.044,-0.858 h -1.799 z"
         style="fill:#110f0e;fill-opacity:1;fill-rule:nonzero;stroke:none"
         transform="matrix(1.3333333,0,0,-1.3333333,76.719067,26.2036)"
         clip-path="url(#clipPath189)" />
      <path
         id="path190"
         d="M 0,0 V -15.473"
         style="fill:none;stroke:#110f0e;stroke-width:0.313;stroke-linecap:butt;stroke-linejoin:miter;stroke-miterlimit:10;stroke-dasharray:none;stroke-opacity:1"
         transform="matrix(1.3333333,0,0,-1.3333333,83.8136,6.7176)"
         clip-path="url(#clipPath191)" />
    </g>
  </g>
</svg>
