<?xml version="1.0" encoding="UTF-8" standalone="no"?>
<!-- Created with Inkscape (http://www.inkscape.org/) -->

<svg
   version="1.1"
   id="svg1"
   width="37.782131"
   height="33.390667"
   viewBox="0 0 37.782131 33.390667"
   sodipodi:docname="certification_logo_04.pdf"
   xmlns:inkscape="http://www.inkscape.org/namespaces/inkscape"
   xmlns:sodipodi="http://sodipodi.sourceforge.net/DTD/sodipodi-0.dtd"
   xmlns="http://www.w3.org/2000/svg"
   xmlns:svg="http://www.w3.org/2000/svg">
  <defs
     id="defs1">
    <linearGradient
       x1="0"
       y1="0"
       x2="1"
       y2="0"
       gradientUnits="userSpaceOnUse"
       gradientTransform="matrix(21.295044,0,0,-21.295044,3.5208061,12.52153)"
       spreadMethod="pad"
       id="linearGradient10">
      <stop
         style="stop-opacity:1;stop-color:#a18124"
         offset="0"
         id="stop2" />
      <stop
         style="stop-opacity:1;stop-color:#dba325"
         offset="0.129799"
         id="stop3" />
      <stop
         style="stop-opacity:1;stop-color:#f3d357"
         offset="0.273059"
         id="stop4" />
      <stop
         style="stop-opacity:1;stop-color:#f3e764"
         offset="0.396018"
         id="stop5" />
      <stop
         style="stop-opacity:1;stop-color:#f6eda0"
         offset="0.497303"
         id="stop6" />
      <stop
         style="stop-opacity:1;stop-color:#f7d769"
         offset="0.615342"
         id="stop7" />
      <stop
         style="stop-opacity:1;stop-color:#eabb3a"
         offset="0.741899"
         id="stop8" />
      <stop
         style="stop-opacity:1;stop-color:#d5a82a"
         offset="0.876893"
         id="stop9" />
      <stop
         style="stop-opacity:1;stop-color:#aa8b27"
         offset="1"
         id="stop10" />
    </linearGradient>
  </defs>
  <sodipodi:namedview
     id="namedview1"
     pagecolor="#ffffff"
     bordercolor="#000000"
     borderopacity="0.25"
     inkscape:showpageshadow="2"
     inkscape:pageopacity="0.0"
     inkscape:pagecheckerboard="0"
     inkscape:deskcolor="#d1d1d1">
    <inkscape:page
       x="0"
       y="0"
       inkscape:label="1"
       id="page1"
       width="37.782131"
       height="33.390667"
       margin="1.9266133 4.6943998 1.9265333"
       bleed="0" />
  </sodipodi:namedview>
  <g
     id="g1"
     inkscape:groupmode="layer"
     inkscape:label="1">
    <g
       id="layer-MC0">
      <path
         id="path10"
         d="m 11.115,22.799 c -0.441,-0.307 -0.778,-0.737 -0.969,-1.243 v 0 c -0.057,-0.148 -0.11,-0.296 -0.16,-0.445 v 0 C 4.045,16.885 4.026,9.249 11.613,5.238 v 0 c 0.28,-0.149 0.589,-0.247 0.903,-0.285 v 0 c 0.035,-0.005 0.075,-0.008 0.117,-0.014 v 0 C 3.938,8.977 4.25,16.92 10.218,21.055 v 0 c 0.116,0.078 0.247,0.166 0.378,0.25 v 0 c 1.853,2.135 0.884,1.187 1.814,2.293 v 0 c -0.301,-0.152 -0.769,-0.434 -1.295,-0.799 m 6.674,-1.516 c 0.13,-0.083 0.261,-0.172 0.377,-0.252 v 0 C 24.111,16.863 24.378,8.919 15.661,4.93 v 0 c 0.042,0.005 0.081,0.01 0.116,0.014 v 0 c 0.314,0.037 0.624,0.133 0.905,0.28 v 0 c 7.61,3.967 7.633,11.603 1.716,15.863 v 0 c -0.051,0.149 -0.103,0.298 -0.157,0.446 v 0 c -0.19,0.506 -0.524,0.938 -0.963,1.248 v 0 c -0.524,0.369 -0.992,0.653 -1.291,0.806 v 0 c 0.925,-1.11 -0.04,-0.157 1.802,-2.304 M 9.554,22.247 C 9.275,21.964 9.086,21.606 9.013,21.212 v 0 C 8.953,20.901 8.92,20.659 8.899,20.514 v 0 c 0.189,0.159 0.313,0.261 0.558,0.45 v 0 c 1.187,2.291 0.334,0.671 1.088,2.208 v 0 C 10.15,22.831 9.835,22.534 9.554,22.247 m 9.371,-1.311 c 0.246,-0.19 0.367,-0.292 0.556,-0.453 v 0 0.001 c -0.019,0.145 -0.052,0.388 -0.109,0.698 v 0 c -0.072,0.395 -0.259,0.754 -0.536,1.04 v 0 c -0.28,0.288 -0.594,0.586 -0.986,0.93 v 0 c 0.745,-1.542 -0.098,0.083 1.075,-2.216 m 3.466,1.161 c 0,-0.433 0.351,-0.784 0.785,-0.784 v 0 c 0.433,0 0.783,0.351 0.784,0.784 v 0 c -0.001,0.43 -0.352,0.783 -0.784,0.783 v 0 c -0.433,0 -0.785,-0.351 -0.785,-0.783 m 0.094,0 c 0,0.38 0.308,0.687 0.689,0.687 v 0 c 0.38,-10e-4 0.689,-0.308 0.689,-0.687 v 0 c 0,-0.38 -0.309,-0.689 -0.689,-0.689 v 0 c -0.381,0 -0.689,0.309 -0.689,0.689 m 0.358,-0.494 h 0.125 v 0.422 h 0.16 l 0.286,-0.422 h 0.152 l -0.296,0.433 c 0.162,0.021 0.261,0.111 0.261,0.249 v 0 c 0,0.232 -0.215,0.259 -0.418,0.259 v 0 h -0.268 l -0.002,0.001 z m 0.128,0.837 h 0.174 c 0.123,0 0.253,-0.021 0.253,-0.156 v 0 c 0,-0.157 -0.179,-0.157 -0.317,-0.157 v 0 h -0.11 z M 8.229,21.313 C 8.013,21.024 7.887,20.681 7.865,20.319 v 0 C 7.844,19.967 7.841,19.695 7.849,19.49 v 0 c 0.055,0.062 0.173,0.195 0.493,0.508 v 0 l 0.809,2.429 C 8.791,22.03 8.477,21.646 8.229,21.313 m 11.807,-1.347 c 0.318,-0.316 0.435,-0.45 0.49,-0.512 v 0 c 0.008,0.204 0.007,0.477 -0.011,0.828 v 0 c -0.02,0.363 -0.144,0.707 -0.359,0.997 v 0 C 19.909,21.613 19.597,22 19.24,22.398 v 0 z M 7.097,20.359 C 6.881,19.966 6.793,19.516 6.846,19.068 v 0 C 6.875,18.816 6.914,18.574 6.96,18.346 v 0 c 0.125,0.19 0.272,0.39 0.409,0.566 v 0 c 0.018,0.119 0.452,2.588 0.457,2.619 v 0 C 7.553,21.139 7.309,20.744 7.097,20.359 m 13.905,-1.486 c 0.136,-0.177 0.282,-0.378 0.406,-0.568 v 0 c 0.048,0.227 0.088,0.47 0.118,0.722 v 0 c 0.054,0.447 -0.031,0.896 -0.245,1.292 v 0 c -0.208,0.385 -0.45,0.782 -0.721,1.175 v 0 c 0.003,-0.021 0.424,-2.501 0.442,-2.621 M 13.639,4.675 c 0.256,-0.11 0.256,-0.11 0.506,-0.233 v 0 c 0.251,0.121 0.251,0.121 0.509,0.229 v 0 c 9.954,4.104 9.189,12.444 3.102,16.365 v 0 C 23.04,17.075 24.533,9.071 14.146,4.868 v 0 C 3.784,9.13 5.321,17.125 10.627,21.055 v 0 C 4.518,17.17 3.706,8.835 13.639,4.675 M 6.089,19.287 C 5.899,18.768 5.887,18.203 6.056,17.678 v 0 c 0.07,-0.217 0.143,-0.416 0.215,-0.587 v 0 c 0.06,0.138 0.165,0.353 0.308,0.616 v 0 c -0.012,0.284 -0.004,2.454 0.019,2.761 v 0 C 6.404,20.083 6.228,19.669 6.089,19.287 M 21.785,17.663 C 21.928,17.4 22.03,17.184 22.09,17.046 v 0 c 0.073,0.17 0.147,0.369 0.218,0.586 v 0 c 0.172,0.525 0.162,1.089 -0.023,1.608 v 0 c -0.138,0.384 -0.31,0.798 -0.502,1.184 v 0 c 0.02,-0.31 0.016,-2.476 0.002,-2.761 M 5.167,17.734 C 5.105,17.298 5.181,16.857 5.386,16.468 v 0 C 5.523,16.21 5.672,15.962 5.821,15.745 v 0 c 0.08,0.326 0.119,0.437 0.188,0.656 v 0 c -0.043,0.173 -0.439,2.093 -0.505,2.82 v 0 C 5.353,18.738 5.242,18.261 5.167,17.734 m 17.181,-1.38 c 0.068,-0.219 0.106,-0.329 0.184,-0.658 v 0 c 0.152,0.219 0.301,0.464 0.44,0.723 v 0 c 0.208,0.386 0.286,0.828 0.226,1.263 v 0 c -0.072,0.528 -0.18,1.005 -0.329,1.49 v 0 c -0.07,-0.727 -0.478,-2.644 -0.521,-2.818 m -9.554,2.169 c -0.139,-0.052 -0.254,-0.125 -0.35,-0.219 v 0 c -0.095,-0.092 -0.168,-0.205 -0.221,-0.335 v 0 c -0.052,-0.131 -0.078,-0.277 -0.078,-0.438 v 0 c 0,-0.16 0.024,-0.293 0.073,-0.399 v 0 c 0.05,-0.104 0.116,-0.19 0.197,-0.26 v 0 c 0.081,-0.069 0.172,-0.124 0.276,-0.165 v 0 c 0.103,-0.042 0.209,-0.08 0.317,-0.115 v 0 c 0.091,-0.032 0.167,-0.06 0.232,-0.086 v 0 c 0.063,-0.026 0.115,-0.054 0.155,-0.084 v 0 c 0.039,-0.03 0.067,-0.063 0.085,-0.099 v 0 c 0.016,-0.036 0.025,-0.078 0.025,-0.128 v 0 c 0,-0.08 -0.033,-0.152 -0.099,-0.215 v 0 c -0.068,-0.063 -0.169,-0.095 -0.305,-0.095 v 0 c -0.119,0 -0.239,0.028 -0.361,0.083 v 0 c -0.123,0.054 -0.246,0.137 -0.37,0.249 v 0 l -0.357,-0.68 c 0.346,-0.244 0.721,-0.367 1.126,-0.367 v 0 c 0.196,0 0.371,0.027 0.526,0.081 v 0 c 0.155,0.052 0.284,0.126 0.39,0.224 v 0 c 0.106,0.096 0.188,0.211 0.243,0.346 v 0 c 0.055,0.135 0.083,0.285 0.083,0.453 v 0 c 0,0.246 -0.063,0.447 -0.189,0.6 v 0 c -0.127,0.154 -0.326,0.276 -0.598,0.368 v 0 c -0.067,0.024 -0.137,0.045 -0.207,0.066 v 0 c -0.069,0.019 -0.131,0.043 -0.186,0.07 v 0 c -0.055,0.027 -0.1,0.059 -0.135,0.097 v 0 c -0.033,0.037 -0.049,0.085 -0.049,0.143 v 0 c 0,0.083 0.033,0.151 0.101,0.202 v 0 c 0.068,0.051 0.156,0.077 0.264,0.077 v 0 c 0.085,0 0.173,-0.018 0.264,-0.054 v 0 c 0.09,-0.036 0.181,-0.09 0.272,-0.165 v 0 l 0.331,0.659 c -0.159,0.086 -0.324,0.152 -0.497,0.197 v 0 C 13.578,18.578 13.414,18.6 13.254,18.6 v 0 c -0.17,0 -0.324,-0.026 -0.46,-0.077 m 4.529,-0.014 -1.22,-3.249 h 0.889 l 0.191,0.566 h 1.191 l 0.191,-0.566 h 0.889 l -1.221,3.249 z m 0.455,-0.96 0.374,-1.082 h -0.748 z m -2.874,0.96 V 15.26 h 0.833 v 0.002 3.247 z m -5.243,0 -1.22,-3.249 h 0.888 l 0.192,0.566 h 1.191 l 0.192,-0.566 h 0.888 l -1.221,3.249 z m 0.455,-0.96 0.374,-1.082 H 9.742 Z M 4.548,16.208 C 4.571,15.773 4.73,15.359 5.001,15.022 v 0 C 5.197,14.779 5.404,14.55 5.623,14.336 v 0 c 0.009,0.143 0.017,0.324 0.067,0.68 v 0 c -0.158,0.321 -0.879,2.029 -1.087,2.771 v 0 C 4.544,17.266 4.52,16.736 4.548,16.208 M 22.66,14.969 c 0.047,-0.358 0.054,-0.538 0.063,-0.681 v 0 c 0.219,0.212 0.429,0.44 0.625,0.682 v 0 c 0.273,0.335 0.434,0.748 0.46,1.182 v 0 c 0.031,0.529 0.01,1.059 -0.045,1.579 v 0 C 23.552,16.991 22.82,15.288 22.66,14.969 M 4.235,14.518 c 0.102,-0.379 0.309,-0.716 0.602,-0.973 v 0 c 0.298,-0.261 0.599,-0.497 0.828,-0.657 v 0 c -0.018,0.143 -0.037,0.543 -0.043,0.7 v 0 c -0.298,0.403 -1.372,1.988 -1.67,2.597 v 0 c 0.04,-0.568 0.144,-1.148 0.283,-1.667 M 22.72,13.539 C 22.712,13.382 22.692,12.982 22.672,12.84 v 0 h 10e-4 c 0.23,0.158 0.533,0.392 0.83,0.652 v 0 c 0.296,0.255 0.505,0.59 0.609,0.968 v 0 c 0.141,0.52 0.248,1.098 0.292,1.666 v 0 C 24.102,15.519 23.02,13.941 22.72,13.539 m -7.432,1.024 c -0.08,-0.032 -0.148,-0.077 -0.206,-0.135 v 0 c -0.057,-0.057 -0.103,-0.124 -0.136,-0.201 v 0 c -0.033,-0.077 -0.048,-0.16 -0.048,-0.249 v 0 c 0,-0.089 0.015,-0.173 0.048,-0.249 v 0 c 0.033,-0.077 0.079,-0.144 0.136,-0.201 v 0 c 0.058,-0.058 0.126,-0.103 0.206,-0.135 v 0 c 0.08,-0.032 0.169,-0.049 0.265,-0.049 v 0 c 0.095,0 0.183,0.017 0.264,0.049 v 0 c 0.081,0.032 0.15,0.077 0.208,0.135 v 0 c 0.058,0.057 0.104,0.124 0.135,0.201 v 0 c 0.034,0.076 0.05,0.16 0.05,0.249 v 0 c 0,0.089 -0.016,0.172 -0.05,0.249 v 0 c -0.031,0.077 -0.077,0.144 -0.135,0.201 v 0 c -0.058,0.058 -0.127,0.103 -0.208,0.135 v 0 c -0.081,0.033 -0.169,0.048 -0.264,0.048 v 0 c -0.096,0 -0.185,-0.015 -0.265,-0.048 m 0.137,-0.891 c -0.04,0.016 -0.075,0.04 -0.106,0.068 v 0 c -0.031,0.03 -0.055,0.065 -0.072,0.106 v 0 c -0.018,0.04 -0.027,0.084 -0.027,0.132 v 0 c 0,0.048 0.009,0.092 0.027,0.132 v 0 c 0.017,0.041 0.041,0.075 0.072,0.105 v 0 c 0.031,0.03 0.066,0.054 0.106,0.07 v 0 c 0.041,0.016 0.083,0.024 0.128,0.024 v 0 c 0.046,0 0.087,-0.008 0.129,-0.024 v 0 c 0.039,-0.016 0.075,-0.04 0.106,-0.07 v 0 c 0.03,-0.03 0.056,-0.064 0.074,-0.105 v 0 c 0.017,-0.04 0.025,-0.084 0.025,-0.132 v 0 c 0,-0.048 -0.008,-0.092 -0.025,-0.132 v 0 C 15.844,13.805 15.818,13.77 15.788,13.74 v 0 c -0.031,-0.028 -0.067,-0.052 -0.106,-0.068 v 0 C 15.64,13.656 15.599,13.647 15.553,13.647 v 0 c -0.045,0 -0.087,0.009 -0.128,0.025 m -3.217,0.891 c -0.08,-0.032 -0.148,-0.077 -0.207,-0.135 v 0 c -0.056,-0.057 -0.102,-0.124 -0.134,-0.201 v 0 c -0.033,-0.077 -0.049,-0.16 -0.049,-0.249 v 0 c 0,-0.089 0.016,-0.173 0.049,-0.249 v 0 c 0.032,-0.077 0.078,-0.144 0.134,-0.201 v 0 c 0.059,-0.058 0.127,-0.103 0.207,-0.135 v 0 c 0.081,-0.032 0.169,-0.049 0.265,-0.049 v 0 c 0.095,0 0.183,0.017 0.265,0.049 v 0 c 0.08,0.032 0.149,0.077 0.208,0.135 v 0 c 0.057,0.057 0.102,0.124 0.135,0.201 v 0 c 0.032,0.076 0.049,0.16 0.049,0.249 v 0 c 0,0.089 -0.017,0.172 -0.049,0.249 v 0 c -0.033,0.077 -0.078,0.144 -0.135,0.201 v 0 c -0.059,0.058 -0.128,0.103 -0.208,0.135 v 0 c -0.082,0.033 -0.17,0.048 -0.265,0.048 v 0 c -0.096,0 -0.184,-0.015 -0.265,-0.048 m 0.137,-0.891 c -0.04,0.016 -0.075,0.04 -0.106,0.068 v 0 c -0.031,0.03 -0.055,0.065 -0.072,0.106 v 0 c -0.018,0.04 -0.027,0.084 -0.027,0.132 v 0 c 0,0.048 0.009,0.092 0.027,0.132 v 0 c 0.017,0.041 0.041,0.075 0.072,0.105 v 0 c 0.031,0.03 0.066,0.054 0.106,0.07 v 0 c 0.041,0.016 0.083,0.024 0.128,0.024 v 0 c 0.046,0 0.088,-0.008 0.129,-0.024 v 0 c 0.04,-0.016 0.075,-0.04 0.106,-0.07 v 0 c 0.031,-0.03 0.056,-0.064 0.074,-0.105 v 0 c 0.017,-0.04 0.026,-0.084 0.026,-0.132 v 0 c 0,-0.048 -0.009,-0.092 -0.026,-0.132 v 0 C 12.764,13.805 12.739,13.77 12.708,13.74 v 0 c -0.031,-0.028 -0.066,-0.052 -0.106,-0.068 v 0 c -0.041,-0.016 -0.083,-0.025 -0.129,-0.025 v 0 c -0.045,0 -0.087,0.009 -0.128,0.025 m 6.686,0.906 v -1.2 h 0.002 0.672 v 0.264 h -0.367 v 0.207 h 0.346 v 0.264 h -0.346 v 0.201 h 0.367 v 0.264 z m -0.459,0 -0.289,-0.731 -0.285,0.731 h -0.335 l 0.499,-1.2 h 0.245 l 0.499,1.2 z m -1.341,0 v -1.2 h 0.003 0.305 v 1.2 z m -0.951,0 v -0.264 h 0.253 v -0.936 h 0.309 v 0.936 h 0.253 v 0.264 z m -2.029,0 -0.236,-0.64 -0.238,0.64 h -0.304 l -0.202,-1.2 h 0.003 0.304 l 0.102,0.691 0.265,-0.691 h 0.123 l 0.279,0.691 0.102,-0.691 h 0.307 v 0 l -0.201,1.2 z m -3.32,0 v -0.264 h 0.254 v -0.936 h 0.308 v 0.936 h 0.253 v 0.264 z m -0.137,0 h -0.305 v -0.652 c 0,-0.035 -0.001,-0.071 -0.004,-0.108 v 0 C 10.482,13.782 10.474,13.747 10.46,13.719 v 0 c -0.014,-0.03 -0.034,-0.054 -0.061,-0.073 v 0 C 10.37,13.628 10.331,13.618 10.28,13.618 v 0 c -0.052,0 -0.091,0.01 -0.12,0.028 v 0 c -0.028,0.019 -0.049,0.043 -0.062,0.073 v 0 c -0.013,0.028 -0.021,0.063 -0.023,0.099 v 0 c -0.003,0.037 -0.005,0.073 -0.005,0.108 v 0 0.652 H 9.763 v -0.695 c 0,-0.188 0.042,-0.324 0.127,-0.411 v 0 c 0.085,-0.085 0.214,-0.128 0.39,-0.128 v 0 c 0.175,0 0.304,0.043 0.389,0.128 v 0 c 0.084,0.087 0.127,0.223 0.127,0.411 v 0 0.695 z m -1.921,0 -0.45,-1.2 h 0.003 0.325 l 0.07,0.208 h 0.44 l 0.071,-0.208 h 0.329 l -0.451,1.2 z m 0.169,-0.354 0.138,-0.4 H 8.903 Z M 4.1,13.076 c 0.229,-0.512 0.605,-0.938 1.085,-1.223 v 0 c 0.251,-0.149 0.494,-0.276 0.732,-0.39 v 0 c -0.055,0.232 -0.073,0.296 -0.144,0.674 v 0 c -0.105,0.095 -1.761,1.783 -2.18,2.335 v 0 C 3.718,14.009 3.896,13.533 4.1,13.076 m 18.46,-0.987 c -0.073,-0.377 -0.091,-0.441 -0.146,-0.673 v 0 c 0.238,0.112 0.481,0.239 0.733,0.387 v 0 c 0.481,0.281 0.861,0.704 1.092,1.216 v 0 c 0.207,0.456 0.387,0.931 0.515,1.393 v 0 C 24.331,13.863 22.665,12.184 22.56,12.089 m -4.489,0.706 v -10e-4 -2.129 h 0.809 c 0.145,0 0.28,0.029 0.405,0.087 v 0 c 0.126,0.059 0.236,0.137 0.33,0.235 v 0 c 0.093,0.098 0.167,0.211 0.22,0.34 v 0 c 0.053,0.129 0.079,0.263 0.079,0.404 v 0 c 0,0.14 -0.027,0.276 -0.081,0.405 v 0 c -0.053,0.128 -0.127,0.242 -0.221,0.339 v 0 c -0.095,0.096 -0.204,0.175 -0.329,0.233 v 0 c -0.127,0.058 -0.26,0.087 -0.403,0.087 v 0 z m 0.546,-0.469 h 0.126 c 0.093,0 0.177,-0.015 0.252,-0.045 v 0 c 0.073,-0.03 0.136,-0.072 0.187,-0.124 v 0 c 0.051,-0.053 0.091,-0.116 0.119,-0.19 v 0 c 0.027,-0.073 0.042,-0.152 0.042,-0.236 v 0 c 0,-0.088 -0.014,-0.167 -0.041,-0.24 v 0 c -0.027,-0.072 -0.065,-0.135 -0.117,-0.187 v 0 c -0.051,-0.053 -0.114,-0.095 -0.188,-0.125 v 0 c -0.074,-0.03 -0.159,-0.045 -0.254,-0.045 v 0 h -0.126 z m -2.523,0.469 v -2.13 h 0.546 v 0.82 l 0.522,-0.82 h 0.68 l -0.661,0.873 c 0.151,0.036 0.265,0.103 0.343,0.205 v 0 c 0.076,0.1 0.115,0.232 0.115,0.394 v 0 c 0,0.09 -0.015,0.175 -0.043,0.254 v 0 c -0.03,0.079 -0.072,0.15 -0.129,0.21 v 0 c -0.056,0.06 -0.128,0.107 -0.216,0.142 v 0 c -0.087,0.035 -0.189,0.052 -0.307,0.052 v 0 z m 0.546,-0.426 h 0.104 c 0.108,0 0.19,-0.023 0.248,-0.068 v 0 c 0.058,-0.046 0.086,-0.11 0.086,-0.195 v 0 c 0,-0.085 -0.028,-0.15 -0.086,-0.195 v 0 c -0.058,-0.045 -0.14,-0.068 -0.248,-0.068 v 0 H 16.64 Z m -2.183,0.426 -0.799,-2.13 h 0.582 l 0.125,0.37 h 0.781 l 0.125,-0.37 h 0.583 l -0.801,2.13 z m 0.298,-0.63 0.245,-0.71 h -0.49 z m -1.578,0.63 -0.363,-1.376 -0.445,1.376 h -0.435 l -0.446,-1.376 -0.364,1.376 h -0.571 l 0.628,-2.13 h 0.557 l 0.413,1.235 0.413,-1.235 h 0.557 l 0.627,2.13 z m -3.946,0 -0.8,-2.13 h 0.583 l 0.125,0.37 H 9.92 l 0.126,-0.37 h 0.582 l -0.8,2.13 z m 0.298,-0.63 0.246,-0.71 H 9.284 Z M 4.214,11.497 c 0.345,-0.54 0.854,-0.947 1.453,-1.161 v 0 c 0.232,-0.083 0.47,-0.157 0.72,-0.222 v 0 c -0.132,0.294 -0.224,0.563 -0.248,0.633 v 0 C 5.725,11.012 3.893,12.394 3.521,12.74 v 0 c 0.142,-0.316 0.392,-0.776 0.693,-1.243 m 17.974,-0.796 c -0.025,-0.07 -0.121,-0.338 -0.253,-0.631 v 0 c 0.251,0.063 0.489,0.135 0.722,0.217 v 0 c 0.6,0.212 1.11,0.615 1.46,1.153 v 0 c 0.302,0.465 0.556,0.923 0.699,1.239 v 0 C 24.443,12.335 22.603,10.964 22.188,10.701 M 4.838,9.62 C 5.148,9.311 5.536,9.101 5.963,9.018 v 0 C 6.333,8.944 6.705,8.897 7.078,8.87 v 0 C 6.982,9.018 6.819,9.271 6.726,9.449 v 0 C 6.672,9.471 4.66,10.352 3.698,10.999 v 0 C 4.067,10.463 4.432,10.027 4.838,9.62 M 21.593,9.407 C 21.498,9.23 21.335,8.977 21.238,8.83 v 0 c 0.374,0.025 0.745,0.07 1.115,0.14 v 0 c 0.427,0.082 0.817,0.288 1.128,0.596 v 0 c 0.409,0.406 0.777,0.84 1.148,1.373 v 0 C 23.664,10.297 21.648,9.428 21.593,9.407 M 14.99,9.676 C 14.907,9.645 14.837,9.607 14.781,9.562 v 0 C 14.724,9.516 14.679,9.469 14.644,9.419 v 0 C 14.61,9.372 14.584,9.329 14.568,9.292 v 0 C 14.552,9.255 14.543,9.23 14.541,9.219 v 0 L 14.9,9.055 c 0.002,0.005 0.011,0.024 0.028,0.057 v 0 c 0.017,0.031 0.042,0.066 0.074,0.107 v 0 c 0.033,0.038 0.072,0.073 0.119,0.102 v 0 c 0.048,0.029 0.102,0.044 0.164,0.044 v 0 c 0.079,0 0.14,-0.018 0.183,-0.054 v 0 c 0.044,-0.036 0.066,-0.097 0.066,-0.184 v 0 c 0,-0.055 -0.021,-0.115 -0.062,-0.181 v 0 C 15.431,8.881 15.377,8.815 15.313,8.746 v 0 C 15.248,8.678 15.178,8.611 15.103,8.547 v 0 C 15.027,8.483 14.955,8.425 14.886,8.372 v 0 C 14.816,8.319 14.756,8.275 14.707,8.239 v 0 C 14.657,8.203 14.625,8.181 14.611,8.17 v 0 -0.332 h 1.328 v 0.364 h -0.697 c 0.008,0.006 0.03,0.02 0.067,0.045 v 0 c 0.038,0.024 0.084,0.057 0.137,0.099 v 0 c 0.054,0.042 0.11,0.091 0.169,0.146 v 0 c 0.059,0.054 0.114,0.117 0.166,0.184 v 0 c 0.051,0.066 0.093,0.138 0.125,0.212 v 0 c 0.032,0.076 0.048,0.152 0.048,0.234 v 0 c 0,0.064 -0.011,0.132 -0.032,0.201 v 0 c -0.021,0.07 -0.058,0.136 -0.107,0.196 v 0 c -0.05,0.06 -0.118,0.109 -0.204,0.147 v 0 c -0.087,0.037 -0.196,0.056 -0.326,0.056 v 0 c -0.114,0 -0.212,-0.016 -0.295,-0.046 M 13.227,9.662 c -0.09,-0.04 -0.171,-0.099 -0.241,-0.18 v 0 C 12.915,9.402 12.86,9.302 12.82,9.183 v 0 C 12.779,9.062 12.758,8.922 12.758,8.762 v 0 c 0,-0.172 0.021,-0.318 0.062,-0.439 v 0 c 0.04,-0.122 0.095,-0.22 0.166,-0.297 v 0 c 0.07,-0.076 0.151,-0.131 0.241,-0.168 v 0 c 0.09,-0.036 0.185,-0.053 0.284,-0.053 v 0 c 0.099,0 0.193,0.017 0.284,0.053 v 0 c 0.09,0.037 0.17,0.092 0.24,0.168 v 0 c 0.071,0.077 0.126,0.175 0.165,0.297 v 0 c 0.041,0.121 0.061,0.267 0.061,0.439 v 0 c 0,0.16 -0.02,0.3 -0.061,0.421 v 0 c -0.039,0.119 -0.094,0.219 -0.165,0.299 v 0 c -0.07,0.081 -0.15,0.14 -0.24,0.18 v 0 c -0.091,0.04 -0.185,0.06 -0.284,0.06 v 0 c -0.099,0 -0.194,-0.02 -0.284,-0.06 M 13.334,8.236 C 13.285,8.279 13.246,8.344 13.219,8.43 v 0 c -0.027,0.088 -0.04,0.197 -0.04,0.332 v 0 c 0,0.125 0.013,0.231 0.04,0.319 v 0 c 0.027,0.088 0.066,0.155 0.115,0.202 v 0 c 0.05,0.047 0.108,0.07 0.177,0.07 v 0 c 0.068,0 0.127,-0.023 0.176,-0.07 v 0 c 0.049,-0.047 0.087,-0.114 0.114,-0.202 v 0 C 13.827,8.993 13.84,8.887 13.84,8.762 v 0 c 0,-0.133 -0.013,-0.244 -0.039,-0.331 v 0 C 13.774,8.344 13.736,8.279 13.687,8.236 v 0 C 13.638,8.195 13.579,8.173 13.511,8.173 v 0 c -0.069,0 -0.127,0.022 -0.177,0.063 m -1.883,1.44 C 11.368,9.645 11.298,9.607 11.242,9.562 v 0 C 11.185,9.516 11.139,9.469 11.105,9.419 v 0 C 11.07,9.372 11.045,9.329 11.029,9.292 v 0 C 11.013,9.255 11.004,9.23 11.003,9.219 v 0 l 0.359,-0.164 c 10e-4,0.005 0.01,0.024 0.027,0.057 v 0 c 0.017,0.031 0.042,0.066 0.073,0.107 v 0 c 0.033,0.038 0.073,0.073 0.12,0.102 v 0 c 0.047,0.029 0.102,0.044 0.164,0.044 v 0 c 0.078,0 0.14,-0.018 0.184,-0.054 v 0 c 0.043,-0.036 0.064,-0.097 0.064,-0.184 v 0 c 0,-0.055 -0.02,-0.115 -0.061,-0.181 v 0 C 11.892,8.881 11.839,8.815 11.774,8.746 v 0 C 11.709,8.678 11.639,8.611 11.564,8.547 v 0 C 11.488,8.483 11.416,8.425 11.346,8.372 v 0 C 11.277,8.319 11.218,8.275 11.168,8.239 v 0 C 11.118,8.203 11.086,8.181 11.073,8.17 v 0 -0.332 H 12.4 v 0.364 h -0.697 c 0.008,0.006 0.03,0.02 0.067,0.045 v 0 c 0.038,0.024 0.083,0.057 0.137,0.099 v 0 c 0.054,0.042 0.11,0.091 0.169,0.146 v 0 c 0.059,0.054 0.114,0.117 0.166,0.184 v 0 c 0.051,0.066 0.093,0.138 0.125,0.212 v 0 c 0.032,0.076 0.048,0.152 0.048,0.234 v 0 c 0,0.064 -0.01,0.132 -0.032,0.201 v 0 c -0.022,0.07 -0.057,0.136 -0.107,0.196 v 0 c -0.05,0.06 -0.119,0.109 -0.205,0.147 v 0 c -0.087,0.037 -0.195,0.056 -0.325,0.056 v 0 c -0.113,0 -0.212,-0.016 -0.295,-0.046 M 16.508,9.688 16.344,8.701 16.69,8.575 c 0.009,0.02 0.025,0.041 0.048,0.064 v 0 c 0.023,0.024 0.053,0.044 0.089,0.062 v 0 c 0.036,0.017 0.08,0.026 0.131,0.026 v 0 c 0.078,0 0.14,-0.024 0.185,-0.072 v 0 C 17.189,8.607 17.212,8.54 17.212,8.454 v 0 C 17.213,8.366 17.19,8.294 17.142,8.239 v 0 C 17.094,8.183 17.026,8.154 16.939,8.154 v 0 c -0.042,0 -0.08,0.006 -0.112,0.018 v 0 c -0.032,0.011 -0.058,0.026 -0.081,0.046 v 0 C 16.724,8.237 16.705,8.259 16.69,8.283 v 0 c -0.015,0.025 -0.027,0.05 -0.036,0.076 v 0 l -0.358,-0.16 c 0.016,-0.045 0.042,-0.09 0.075,-0.137 v 0 c 0.033,-0.046 0.076,-0.089 0.13,-0.128 v 0 c 0.053,-0.038 0.117,-0.07 0.192,-0.094 v 0 c 0.076,-0.024 0.163,-0.035 0.263,-0.035 v 0 c 0.131,0 0.249,0.027 0.35,0.082 v 0 c 0.103,0.056 0.183,0.134 0.24,0.235 v 0 c 0.059,0.1 0.089,0.22 0.089,0.356 v 0 c 0,0.137 -0.027,0.247 -0.082,0.333 v 0 C 17.499,8.897 17.43,8.96 17.346,9.001 v 0 c -0.084,0.039 -0.172,0.06 -0.264,0.06 v 0 c -0.051,0 -0.097,-0.005 -0.138,-0.017 v 0 C 16.904,9.032 16.871,9.02 16.846,9.005 v 0 C 16.821,8.991 16.807,8.981 16.802,8.975 v 0 l 0.058,0.348 h 0.687 V 9.688 Z M 5.435,8.181 C 5.873,7.87 6.39,7.704 6.926,7.701 v 0 C 7.275,7.699 7.624,7.716 7.97,7.753 v 0 C 7.81,7.929 7.681,8.075 7.527,8.268 v 0 C 7.314,8.31 5.084,8.855 4.154,9.27 v 0 C 4.557,8.861 4.983,8.501 5.435,8.181 M 20.786,8.23 C 20.631,8.039 20.5,7.893 20.339,7.717 v 0 C 20.685,7.679 21.034,7.66 21.384,7.66 v 0 c 0.535,0 1.051,0.165 1.492,0.472 v 0 c 0.455,0.316 0.883,0.674 1.286,1.081 v 0 C 23.231,8.803 20.998,8.271 20.786,8.23 M 6.393,6.767 C 6.875,6.545 7.404,6.467 7.929,6.546 v 0 C 8.292,6.6 8.658,6.674 9.032,6.77 v 0 C 8.953,6.835 8.776,6.979 8.513,7.221 v 0 C 7.94,7.237 5.717,7.427 4.902,7.623 v 0 C 5.365,7.306 5.843,7.022 6.393,6.767 m 13.4,0.421 C 19.529,6.947 19.352,6.806 19.272,6.739 v 0 c 0.373,-0.097 0.74,-0.172 1.102,-0.229 v 0 c 0.524,-0.081 1.053,-0.007 1.537,0.213 v 0 c 0.551,0.252 1.031,0.533 1.495,0.847 v 0 C 22.59,7.378 20.367,7.202 19.793,7.188 M 5.908,6.121 C 6.377,5.911 6.844,5.731 7.35,5.581 v 0 C 7.981,5.394 8.645,5.395 9.275,5.586 v 0 c 0.3,0.092 0.608,0.197 0.951,0.327 v 0 C 10.045,6.03 9.853,6.16 9.651,6.305 v 0 C 8.667,6.197 6.901,6.063 5.908,6.121 m 12.165,-0.23 c 0.343,-0.132 0.65,-0.24 0.95,-0.333 v 0 c 0.629,-0.195 1.292,-0.199 1.924,-0.016 v 0 c 0.507,0.148 0.974,0.326 1.446,0.531 v 0 c -0.994,-0.05 -2.76,0.092 -3.741,0.205 v 0 C 18.446,6.134 18.255,6.006 18.073,5.891 M 7.107,4.8 C 7.646,4.65 8.24,4.536 8.801,4.459 v 0 c 0.544,-0.074 1.09,-0.005 1.598,0.206 v 0 c 0.39,0.161 0.776,0.335 1.117,0.506 v 0 C 11.308,5.281 11.133,5.377 10.9,5.51 v 0 C 10.846,5.498 8,4.885 7.107,4.8 m 9.671,0.356 c 0.341,-0.173 0.726,-0.349 1.115,-0.513 v 0 C 18.4,4.43 18.946,4.358 19.49,4.429 v 0 c 0.561,0.072 1.156,0.184 1.695,0.331 v 0 c -0.892,0.09 -3.734,0.718 -3.788,0.732 v 0 C 17.163,5.359 16.988,5.265 16.778,5.156 M 14.171,2.955 13.78,3.347 13.922,2.808 13.383,2.925 13.791,2.548 13.275,2.351 13.819,2.257 13.49,1.809 l 0.507,0.22 -0.037,-0.558 0.31,0.462 0.265,-0.488 0.014,0.558 0.486,-0.266 -0.288,0.478 0.55,0.041 -0.496,0.245 0.441,0.336 L 14.693,2.772 14.884,3.296 14.458,2.941 14.34,3.487 Z M 16.508,2.832 16.21,3.134 16.319,2.721 15.906,2.81 16.218,2.522 15.824,2.372 16.24,2.3 15.988,1.958 16.376,2.126 16.347,1.699 16.583,2.053 16.787,1.679 16.798,2.106 17.167,1.904 16.948,2.268 17.369,2.3 16.99,2.487 17.326,2.744 16.908,2.695 17.053,3.094 16.729,2.823 16.637,3.239 Z m -4.818,0 L 11.391,3.134 11.5,2.721 11.089,2.81 11.4,2.522 11.006,2.372 11.422,2.3 11.171,1.958 11.558,2.126 11.53,1.699 11.766,2.053 11.969,1.679 11.979,2.106 12.35,1.904 12.131,2.268 12.551,2.3 12.173,2.487 12.508,2.744 12.091,2.695 12.236,3.094 11.911,2.823 11.82,3.239 Z M 18.632,2.678 18.368,2.944 18.464,2.579 18.101,2.658 18.375,2.404 18.028,2.272 18.394,2.208 18.173,1.905 18.514,2.054 18.49,1.678 l 0.209,0.312 0.179,-0.33 0.009,0.377 0.328,-0.18 -0.194,0.322 0.37,0.029 -0.334,0.165 0.298,0.226 -0.369,-0.044 0.127,0.354 -0.287,-0.24 -0.08,0.369 z m -8.95,0 L 9.418,2.944 9.515,2.579 9.15,2.658 9.425,2.404 9.077,2.272 9.444,2.208 9.223,1.905 9.564,2.054 9.54,1.678 9.749,1.99 9.928,1.66 l 0.009,0.377 0.327,-0.18 -0.192,0.322 0.37,0.029 -0.335,0.165 0.298,0.226 -0.37,-0.044 0.129,0.354 -0.287,-0.24 -0.081,0.369 z"
         transform="matrix(1.3333333,0,0,-1.3333333,0,33.390667)"
         style="fill:url(#linearGradient10);stroke:none" />
    </g>
  </g>
</svg>
