<?xml version="1.0" encoding="UTF-8" standalone="no"?>
<!-- Created with Inkscape (http://www.inkscape.org/) -->

<svg
   version="1.1"
   id="svg1"
   width="37.782131"
   height="33.390667"
   viewBox="0 0 37.782131 33.390667"
   sodipodi:docname="certification_logo_10.pdf"
   xmlns:inkscape="http://www.inkscape.org/namespaces/inkscape"
   xmlns:sodipodi="http://sodipodi.sourceforge.net/DTD/sodipodi-0.dtd"
   xmlns="http://www.w3.org/2000/svg"
   xmlns:svg="http://www.w3.org/2000/svg">
  <defs
     id="defs1">
    <clipPath
       clipPathUnits="userSpaceOnUse"
       id="clipPath3">
      <path
         d="M 0,25.043 H 28.337 V 0 H 0 Z"
         transform="translate(-14.168301,-23.740901)"
         id="path3" />
    </clipPath>
    <clipPath
       clipPathUnits="userSpaceOnUse"
       id="clipPath5">
      <path
         d="M 0,25.043 H 28.337 V 0 H 0 Z"
         transform="translate(-14.168301,-23.250801)"
         id="path5" />
    </clipPath>
    <clipPath
       clipPathUnits="userSpaceOnUse"
       id="clipPath7">
      <path
         d="M 0,25.043 H 28.337 V 0 H 0 Z"
         transform="translate(-14.168301,-23.250801)"
         id="path7" />
    </clipPath>
    <clipPath
       clipPathUnits="userSpaceOnUse"
       id="clipPath9">
      <path
         d="M 0,25.043 H 28.337 V 0 H 0 Z"
         transform="translate(-6.1580002,-17.1611)"
         id="path9" />
    </clipPath>
    <clipPath
       clipPathUnits="userSpaceOnUse"
       id="clipPath11">
      <path
         d="M 0,25.043 H 28.337 V 0 H 0 Z"
         transform="translate(-6.6001001,-17.8527)"
         id="path11" />
    </clipPath>
    <clipPath
       clipPathUnits="userSpaceOnUse"
       id="clipPath13">
      <path
         d="M 0,25.043 H 28.337 V 0 H 0 Z"
         transform="translate(-6.7781002,-18.0944)"
         id="path13" />
    </clipPath>
    <clipPath
       clipPathUnits="userSpaceOnUse"
       id="clipPath15">
      <path
         d="M 0,25.043 H 28.337 V 0 H 0 Z"
         transform="translate(-7.1587002,-18.5452)"
         id="path15" />
    </clipPath>
    <clipPath
       clipPathUnits="userSpaceOnUse"
       id="clipPath17">
      <path
         d="M 0,25.043 H 28.337 V 0 H 0 Z"
         transform="translate(-7.3654002,-19.185101)"
         id="path17" />
    </clipPath>
    <clipPath
       clipPathUnits="userSpaceOnUse"
       id="clipPath19">
      <path
         d="M 0,25.043 H 28.337 V 0 H 0 Z"
         transform="translate(-8.3406002,-19.7138)"
         id="path19" />
    </clipPath>
    <clipPath
       clipPathUnits="userSpaceOnUse"
       id="clipPath21">
      <path
         d="M 0,25.043 H 28.337 V 0 H 0 Z"
         transform="translate(-8.7913,-20.2212)"
         id="path21" />
    </clipPath>
    <clipPath
       clipPathUnits="userSpaceOnUse"
       id="clipPath23">
      <path
         d="M 0,25.043 H 28.337 V 0 H 0 Z"
         transform="translate(-9.5691002,-20.555201)"
         id="path23" />
    </clipPath>
    <clipPath
       clipPathUnits="userSpaceOnUse"
       id="clipPath25">
      <path
         d="M 0,25.043 H 28.337 V 0 H 0 Z"
         transform="translate(-9.8649002,-20.7246)"
         id="path25" />
    </clipPath>
    <clipPath
       clipPathUnits="userSpaceOnUse"
       id="clipPath27">
      <path
         d="M 0,25.043 H 28.337 V 0 H 0 Z"
         transform="translate(-10.7863,-21.139601)"
         id="path27" />
    </clipPath>
    <clipPath
       clipPathUnits="userSpaceOnUse"
       id="clipPath29">
      <path
         d="M 0,25.043 H 28.337 V 0 H 0 Z"
         transform="translate(-11.3139,-21.658301)"
         id="path29" />
    </clipPath>
    <clipPath
       clipPathUnits="userSpaceOnUse"
       id="clipPath31">
      <path
         d="M 0,25.043 H 28.337 V 0 H 0 Z"
         transform="translate(-12.3979,-21.609101)"
         id="path31" />
    </clipPath>
    <clipPath
       clipPathUnits="userSpaceOnUse"
       id="clipPath33">
      <path
         d="M 0,25.043 H 28.337 V 0 H 0 Z"
         transform="translate(-12.688401,-21.665401)"
         id="path33" />
    </clipPath>
    <clipPath
       clipPathUnits="userSpaceOnUse"
       id="clipPath35">
      <path
         d="M 0,25.043 H 28.337 V 0 H 0 Z"
         transform="translate(-13.599801,-21.924401)"
         id="path35" />
    </clipPath>
    <clipPath
       clipPathUnits="userSpaceOnUse"
       id="clipPath37">
      <path
         d="M 0,25.043 H 28.337 V 0 H 0 Z"
         transform="translate(-14.465001,-21.772301)"
         id="path37" />
    </clipPath>
    <clipPath
       clipPathUnits="userSpaceOnUse"
       id="clipPath39">
      <path
         d="M 0,25.043 H 28.337 V 0 H 0 Z"
         transform="translate(-14.9631,-21.743301)"
         id="path39" />
    </clipPath>
    <clipPath
       clipPathUnits="userSpaceOnUse"
       id="clipPath41">
      <path
         d="M 0,25.043 H 28.337 V 0 H 0 Z"
         transform="translate(-15.6846,-21.790301)"
         id="path41" />
    </clipPath>
    <clipPath
       clipPathUnits="userSpaceOnUse"
       id="clipPath43">
      <path
         d="M 0,25.043 H 28.337 V 0 H 0 Z"
         transform="translate(-16.181001,-21.563801)"
         id="path43" />
    </clipPath>
    <clipPath
       clipPathUnits="userSpaceOnUse"
       id="clipPath45">
      <path
         d="M 0,25.043 H 28.337 V 0 H 0 Z"
         transform="translate(-17.124,-21.468301)"
         id="path45" />
    </clipPath>
    <clipPath
       clipPathUnits="userSpaceOnUse"
       id="clipPath47">
      <path
         d="M 0,25.043 H 28.337 V 0 H 0 Z"
         transform="translate(-17.7624,-21.056101)"
         id="path47" />
    </clipPath>
    <clipPath
       clipPathUnits="userSpaceOnUse"
       id="clipPath49">
      <path
         d="M 0,25.043 H 28.337 V 0 H 0 Z"
         transform="translate(-18.8121,-20.514)"
         id="path49" />
    </clipPath>
    <clipPath
       clipPathUnits="userSpaceOnUse"
       id="clipPath51">
      <path
         d="M 0,25.043 H 28.337 V 0 H 0 Z"
         transform="translate(-19.4089,-20.326101)"
         id="path51" />
    </clipPath>
    <clipPath
       clipPathUnits="userSpaceOnUse"
       id="clipPath53">
      <path
         d="M 0,25.043 H 28.337 V 0 H 0 Z"
         transform="translate(-19.8933,-19.802)"
         id="path53" />
    </clipPath>
    <clipPath
       clipPathUnits="userSpaceOnUse"
       id="clipPath55">
      <path
         d="M 0,25.043 H 28.337 V 0 H 0 Z"
         transform="translate(-20.965801,-18.996)"
         id="path55" />
    </clipPath>
    <clipPath
       clipPathUnits="userSpaceOnUse"
       id="clipPath57">
      <path
         d="M 0,25.043 H 28.337 V 0 H 0 Z"
         transform="translate(-21.637501,-18.498)"
         id="path57" />
    </clipPath>
    <clipPath
       clipPathUnits="userSpaceOnUse"
       id="clipPath59">
      <path
         d="M 0,25.043 H 28.337 V 0 H 0 Z"
         transform="translate(-22.023001,-17.6869)"
         id="path59" />
    </clipPath>
    <clipPath
       clipPathUnits="userSpaceOnUse"
       id="clipPath61">
      <path
         d="M 0,25.043 H 28.337 V 0 H 0 Z"
         transform="translate(-8.3587,-4.5991004)"
         id="path61" />
    </clipPath>
    <clipPath
       clipPathUnits="userSpaceOnUse"
       id="clipPath63">
      <path
         d="M 0,25.043 H 28.337 V 0 H 0 Z"
         transform="translate(-8.8251002,-4.4801001)"
         id="path63" />
    </clipPath>
    <clipPath
       clipPathUnits="userSpaceOnUse"
       id="clipPath65">
      <path
         d="M 0,25.043 H 28.337 V 0 H 0 Z"
         transform="translate(-9.5344,-4.1687999)"
         id="path65" />
    </clipPath>
    <clipPath
       clipPathUnits="userSpaceOnUse"
       id="clipPath67">
      <path
         d="M 0,25.043 H 28.337 V 0 H 0 Z"
         transform="translate(-10.0953,-3.9119001)"
         id="path67" />
    </clipPath>
    <clipPath
       clipPathUnits="userSpaceOnUse"
       id="clipPath69">
      <path
         d="M 0,25.043 H 28.337 V 0 H 0 Z"
         transform="translate(-10.8537,-3.4636003)"
         id="path69" />
    </clipPath>
    <clipPath
       clipPathUnits="userSpaceOnUse"
       id="clipPath71">
      <path
         d="M 0,25.043 H 28.337 V 0 H 0 Z"
         transform="translate(-11.4321,-3.0919003)"
         id="path71" />
    </clipPath>
    <clipPath
       clipPathUnits="userSpaceOnUse"
       id="clipPath73">
      <path
         d="M 0,25.043 H 28.337 V 0 H 0 Z"
         transform="translate(-12.0196,-3.2426998)"
         id="path73" />
    </clipPath>
    <clipPath
       clipPathUnits="userSpaceOnUse"
       id="clipPath75">
      <path
         d="M 0,25.043 H 28.337 V 0 H 0 Z"
         transform="translate(-12.7167,-2.8045003)"
         id="path75" />
    </clipPath>
    <clipPath
       clipPathUnits="userSpaceOnUse"
       id="clipPath77">
      <path
         d="M 0,25.043 H 28.337 V 0 H 0 Z"
         transform="translate(-13.2606,-2.7467998)"
         id="path77" />
    </clipPath>
    <clipPath
       clipPathUnits="userSpaceOnUse"
       id="clipPath79">
      <path
         d="M 0,25.043 H 28.337 V 0 H 0 Z"
         transform="translate(-13.8087,-3.0058003)"
         id="path79" />
    </clipPath>
    <clipPath
       clipPathUnits="userSpaceOnUse"
       id="clipPath81">
      <path
         d="M 0,25.043 H 28.337 V 0 H 0 Z"
         transform="translate(-14.478,-2.7902001)"
         id="path81" />
    </clipPath>
    <clipPath
       clipPathUnits="userSpaceOnUse"
       id="clipPath83">
      <path
         d="M 0,25.043 H 28.337 V 0 H 0 Z"
         transform="translate(-15.487,-2.9681001)"
         id="path83" />
    </clipPath>
    <clipPath
       clipPathUnits="userSpaceOnUse"
       id="clipPath85">
      <path
         d="M 0,25.043 H 28.337 V 0 H 0 Z"
         transform="translate(-16.1722,-2.9102001)"
         id="path85" />
    </clipPath>
    <clipPath
       clipPathUnits="userSpaceOnUse"
       id="clipPath87">
      <path
         d="M 0,25.043 H 28.337 V 0 H 0 Z"
         transform="translate(-17.044,-3.1315003)"
         id="path87" />
    </clipPath>
    <clipPath
       clipPathUnits="userSpaceOnUse"
       id="clipPath89">
      <path
         d="M 0,25.043 H 28.337 V 0 H 0 Z"
         transform="translate(-17.5755,-3.3050998)"
         id="path89" />
    </clipPath>
    <clipPath
       clipPathUnits="userSpaceOnUse"
       id="clipPath91">
      <path
         d="M 0,25.043 H 28.337 V 0 H 0 Z"
         transform="translate(-18.2272,-3.5732001)"
         id="path91" />
    </clipPath>
    <clipPath
       clipPathUnits="userSpaceOnUse"
       id="clipPath93">
      <path
         d="M 0,25.043 H 28.337 V 0 H 0 Z"
         transform="translate(-18.7159,-3.8201001)"
         id="path93" />
    </clipPath>
    <clipPath
       clipPathUnits="userSpaceOnUse"
       id="clipPath95">
      <path
         d="M 0,25.043 H 28.337 V 0 H 0 Z"
         transform="translate(-19.035,-4.3351004)"
         id="path95" />
    </clipPath>
    <clipPath
       clipPathUnits="userSpaceOnUse"
       id="clipPath97">
      <path
         d="M 0,25.043 H 28.337 V 0 H 0 Z"
         transform="translate(-19.7143,-4.5182999)"
         id="path97" />
    </clipPath>
    <clipPath
       clipPathUnits="userSpaceOnUse"
       id="clipPath99">
      <path
         d="M 0,25.043 H 28.337 V 0 H 0 Z"
         id="path99" />
    </clipPath>
    <clipPath
       clipPathUnits="userSpaceOnUse"
       id="clipPath101">
      <path
         d="M 0,25.043 H 28.337 V 0 H 0 Z"
         transform="translate(-11.0152,-17.5245)"
         id="path101" />
    </clipPath>
    <clipPath
       clipPathUnits="userSpaceOnUse"
       id="clipPath103">
      <path
         d="M 0,25.043 H 28.337 V 0 H 0 Z"
         transform="translate(-13.4526,-19.139)"
         id="path103" />
    </clipPath>
    <clipPath
       clipPathUnits="userSpaceOnUse"
       id="clipPath105">
      <path
         d="M 0,25.043 H 28.337 V 0 H 0 Z"
         id="path105" />
    </clipPath>
    <clipPath
       clipPathUnits="userSpaceOnUse"
       id="clipPath107">
      <path
         d="M 0,25.043 H 28.337 V 0 H 0 Z"
         transform="translate(-17.2135,-18.8013)"
         id="path107" />
    </clipPath>
    <clipPath
       clipPathUnits="userSpaceOnUse"
       id="clipPath109">
      <path
         d="M 0,25.043 H 28.337 V 0 H 0 Z"
         transform="translate(-13.818501,-17.5245)"
         id="path109" />
    </clipPath>
    <clipPath
       clipPathUnits="userSpaceOnUse"
       id="clipPath111">
      <path
         d="M 0,25.043 H 28.337 V 0 H 0 Z"
         transform="translate(-14.2833,-19.437)"
         id="path111" />
    </clipPath>
    <clipPath
       clipPathUnits="userSpaceOnUse"
       id="clipPath113">
      <path
         d="M 0,25.043 H 28.337 V 0 H 0 Z"
         transform="translate(-16.027101,-17.5245)"
         id="path113" />
    </clipPath>
    <clipPath
       clipPathUnits="userSpaceOnUse"
       id="clipPath115">
      <path
         d="M 0,25.043 H 28.337 V 0 H 0 Z"
         transform="translate(-4.9989001,-16.3038)"
         id="path115" />
    </clipPath>
    <clipPath
       clipPathUnits="userSpaceOnUse"
       id="clipPath117">
      <path
         d="M 0,25.043 H 28.337 V 0 H 0 Z"
         transform="translate(-23.3377,-16.3038)"
         id="path117" />
    </clipPath>
    <clipPath
       clipPathUnits="userSpaceOnUse"
       id="clipPath119">
      <path
         d="M 0,25.043 H 28.337 V 0 H 0 Z"
         id="path119" />
    </clipPath>
    <clipPath
       clipPathUnits="userSpaceOnUse"
       id="clipPath121">
      <path
         d="M 0,25.043 H 28.337 V 0 H 0 Z"
         transform="translate(-11.257,-16.0242)"
         id="path121" />
    </clipPath>
    <clipPath
       clipPathUnits="userSpaceOnUse"
       id="clipPath123">
      <path
         d="M 0,25.043 H 28.337 V 0 H 0 Z"
         transform="translate(-12.385,-15.828101)"
         id="path123" />
    </clipPath>
    <clipPath
       clipPathUnits="userSpaceOnUse"
       id="clipPath125">
      <path
         d="M 0,25.043 H 28.337 V 0 H 0 Z"
         transform="translate(-13.4173,-16.142801)"
         id="path125" />
    </clipPath>
    <clipPath
       clipPathUnits="userSpaceOnUse"
       id="clipPath127">
      <path
         d="M 0,25.043 H 28.337 V 0 H 0 Z"
         transform="translate(-14.130201,-16.0242)"
         id="path127" />
    </clipPath>
    <clipPath
       clipPathUnits="userSpaceOnUse"
       id="clipPath129">
      <path
         d="M 0,25.043 H 28.337 V 0 H 0 Z"
         transform="translate(-15.258201,-15.828101)"
         id="path129" />
    </clipPath>
    <clipPath
       clipPathUnits="userSpaceOnUse"
       id="clipPath131">
      <path
         d="M 0,25.043 H 28.337 V 0 H 0 Z"
         transform="translate(-16.0303,-15.828101)"
         id="path131" />
    </clipPath>
    <clipPath
       clipPathUnits="userSpaceOnUse"
       id="clipPath133">
      <path
         d="M 0,25.043 H 28.337 V 0 H 0 Z"
         id="path133" />
    </clipPath>
    <clipPath
       clipPathUnits="userSpaceOnUse"
       id="clipPath135">
      <path
         d="M 0,25.043 H 28.337 V 0 H 0 Z"
         transform="translate(-17.5323,-16.003601)"
         id="path135" />
    </clipPath>
    <clipPath
       clipPathUnits="userSpaceOnUse"
       id="clipPath137">
      <path
         d="M 0,25.043 H 28.337 V 0 H 0 Z"
         id="path137" />
    </clipPath>
    <clipPath
       clipPathUnits="userSpaceOnUse"
       id="clipPath139">
      <path
         d="M 0,25.043 H 28.337 V 0 H 0 Z"
         transform="translate(-6.5357002,-12.479501)"
         id="path139" />
    </clipPath>
    <clipPath
       clipPathUnits="userSpaceOnUse"
       id="clipPath141">
      <path
         d="M 0,25.043 H 28.337 V 0 H 0 Z"
         transform="translate(-9.1475005,-12.9621)"
         id="path141" />
    </clipPath>
    <clipPath
       clipPathUnits="userSpaceOnUse"
       id="clipPath143">
      <path
         d="M 0,25.043 H 28.337 V 0 H 0 Z"
         transform="translate(-12.1264,-12.521501)"
         id="path143" />
    </clipPath>
    <clipPath
       clipPathUnits="userSpaceOnUse"
       id="clipPath145">
      <path
         d="M 0,25.043 H 28.337 V 0 H 0 Z"
         transform="translate(-13.0984,-12.521501)"
         id="path145" />
    </clipPath>
    <clipPath
       clipPathUnits="userSpaceOnUse"
       id="clipPath147">
      <path
         d="M 0,25.043 H 28.337 V 0 H 0 Z"
         transform="translate(-15.1612,-12.521501)"
         id="path147" />
    </clipPath>
    <clipPath
       clipPathUnits="userSpaceOnUse"
       id="clipPath149">
      <path
         d="M 0,25.043 H 28.337 V 0 H 0 Z"
         transform="translate(-18.147201,-13.857101)"
         id="path149" />
    </clipPath>
    <clipPath
       clipPathUnits="userSpaceOnUse"
       id="clipPath151">
      <path
         d="M 0,25.043 H 28.337 V 0 H 0 Z"
         transform="translate(-19.835901,-12.521501)"
         id="path151" />
    </clipPath>
    <clipPath
       clipPathUnits="userSpaceOnUse"
       id="clipPath153">
      <path
         d="M 0,25.043 H 28.337 V 0 H 0 Z"
         id="path153" />
    </clipPath>
    <clipPath
       clipPathUnits="userSpaceOnUse"
       id="clipPath155">
      <path
         d="M 0,25.043 H 28.337 V 0 H 0 Z"
         transform="translate(-22.902301,-12.479501)"
         id="path155" />
    </clipPath>
    <clipPath
       clipPathUnits="userSpaceOnUse"
       id="clipPath157">
      <path
         d="M 0,25.043 H 28.337 V 0 H 0 Z"
         transform="translate(-4.2234001,-9.0580005)"
         id="path157" />
    </clipPath>
    <clipPath
       clipPathUnits="userSpaceOnUse"
       id="clipPath159">
      <path
         d="M 0,25.043 H 28.337 V 0 H 0 Z"
         transform="translate(-8.2496005,-9.9520005)"
         id="path159" />
    </clipPath>
    <clipPath
       clipPathUnits="userSpaceOnUse"
       id="clipPath161">
      <path
         d="M 0,25.043 H 28.337 V 0 H 0 Z"
         transform="translate(-9.3246002,-9.9520005)"
         id="path161" />
    </clipPath>
    <clipPath
       clipPathUnits="userSpaceOnUse"
       id="clipPath163">
      <path
         d="M 0,25.043 H 28.337 V 0 H 0 Z"
         transform="translate(-10.6917,-10.154201)"
         id="path163" />
    </clipPath>
    <clipPath
       clipPathUnits="userSpaceOnUse"
       id="clipPath165">
      <path
         d="M 0,25.043 H 28.337 V 0 H 0 Z"
         transform="translate(-12.039501,-9.9328005)"
         id="path165" />
    </clipPath>
    <clipPath
       clipPathUnits="userSpaceOnUse"
       id="clipPath167">
      <path
         d="M 0,25.043 H 28.337 V 0 H 0 Z"
         transform="translate(-13.4868,-9.9328005)"
         id="path167" />
    </clipPath>
    <clipPath
       clipPathUnits="userSpaceOnUse"
       id="clipPath169">
      <path
         d="M 0,25.043 H 28.337 V 0 H 0 Z"
         transform="translate(-14.2441,-10.1927)"
         id="path169" />
    </clipPath>
    <clipPath
       clipPathUnits="userSpaceOnUse"
       id="clipPath171">
      <path
         d="M 0,25.043 H 28.337 V 0 H 0 Z"
         id="path171" />
    </clipPath>
    <clipPath
       clipPathUnits="userSpaceOnUse"
       id="clipPath173">
      <path
         d="M 0,25.043 H 28.337 V 0 H 0 Z"
         id="path173" />
    </clipPath>
    <clipPath
       clipPathUnits="userSpaceOnUse"
       id="clipPath175">
      <path
         d="M 0,25.043 H 28.337 V 0 H 0 Z"
         transform="translate(-17.7051,-9.9520005)"
         id="path175" />
    </clipPath>
    <clipPath
       clipPathUnits="userSpaceOnUse"
       id="clipPath177">
      <path
         d="M 0,25.043 H 28.337 V 0 H 0 Z"
         transform="translate(-18.7224,-9.9520005)"
         id="path177" />
    </clipPath>
    <clipPath
       clipPathUnits="userSpaceOnUse"
       id="clipPath179">
      <path
         d="M 0,25.043 H 28.337 V 0 H 0 Z"
         transform="translate(-20.214601,-9.9520005)"
         id="path179" />
    </clipPath>
    <clipPath
       clipPathUnits="userSpaceOnUse"
       id="clipPath181">
      <path
         d="M 0,25.043 H 28.337 V 0 H 0 Z"
         id="path181" />
    </clipPath>
    <clipPath
       clipPathUnits="userSpaceOnUse"
       id="clipPath183">
      <path
         d="M 0,25.043 H 28.337 V 0 H 0 Z"
         transform="translate(-22.419201,-9.9328005)"
         id="path183" />
    </clipPath>
    <clipPath
       clipPathUnits="userSpaceOnUse"
       id="clipPath185">
      <path
         d="M 0,25.043 H 28.337 V 0 H 0 Z"
         transform="translate(-23.290501,-9.9520005)"
         id="path185" />
    </clipPath>
    <clipPath
       clipPathUnits="userSpaceOnUse"
       id="clipPath187">
      <path
         d="M 0,25.043 H 28.337 V 0 H 0 Z"
         transform="translate(-9.3995005,-5.5448001)"
         id="path187" />
    </clipPath>
    <clipPath
       clipPathUnits="userSpaceOnUse"
       id="clipPath189">
      <path
         d="M 0,25.043 H 28.337 V 0 H 0 Z"
         transform="translate(-10.2007,-5.6533004)"
         id="path189" />
    </clipPath>
    <clipPath
       clipPathUnits="userSpaceOnUse"
       id="clipPath191">
      <path
         d="M 0,25.043 H 28.337 V 0 H 0 Z"
         transform="translate(-10.7602,-5.5448001)"
         id="path191" />
    </clipPath>
    <clipPath
       clipPathUnits="userSpaceOnUse"
       id="clipPath193">
      <path
         d="M 0,25.043 H 28.337 V 0 H 0 Z"
         transform="translate(-11.984901,-5.5448001)"
         id="path193" />
    </clipPath>
    <clipPath
       clipPathUnits="userSpaceOnUse"
       id="clipPath195">
      <path
         d="M 0,25.043 H 28.337 V 0 H 0 Z"
         transform="translate(-12.561501,-5.5448001)"
         id="path195" />
    </clipPath>
    <clipPath
       clipPathUnits="userSpaceOnUse"
       id="clipPath197">
      <path
         d="M 0,25.043 H 28.337 V 0 H 0 Z"
         transform="translate(-13.2948,-5.6533004)"
         id="path197" />
    </clipPath>
    <clipPath
       clipPathUnits="userSpaceOnUse"
       id="clipPath199">
      <path
         d="M 0,25.043 H 28.337 V 0 H 0 Z"
         transform="translate(-14.017701,-5.5345004)"
         id="path199" />
    </clipPath>
    <clipPath
       clipPathUnits="userSpaceOnUse"
       id="clipPath201">
      <path
         d="M 0,25.043 H 28.337 V 0 H 0 Z"
         id="path201" />
    </clipPath>
    <clipPath
       clipPathUnits="userSpaceOnUse"
       id="clipPath203">
      <path
         d="M 0,25.043 H 28.337 V 0 H 0 Z"
         transform="translate(-15.173601,-5.5448001)"
         id="path203" />
    </clipPath>
    <clipPath
       clipPathUnits="userSpaceOnUse"
       id="clipPath205">
      <path
         d="M 0,25.043 H 28.337 V 0 H 0 Z"
         id="path205" />
    </clipPath>
    <clipPath
       clipPathUnits="userSpaceOnUse"
       id="clipPath207">
      <path
         d="M 0,25.043 H 28.337 V 0 H 0 Z"
         transform="translate(-16.4757,-5.5345004)"
         id="path207" />
    </clipPath>
    <clipPath
       clipPathUnits="userSpaceOnUse"
       id="clipPath209">
      <path
         d="M 0,25.043 H 28.337 V 0 H 0 Z"
         transform="translate(-17.0248,-5.5345004)"
         id="path209" />
    </clipPath>
    <clipPath
       clipPathUnits="userSpaceOnUse"
       id="clipPath211">
      <path
         d="M 0,25.043 H 28.337 V 0 H 0 Z"
         id="path211" />
    </clipPath>
    <clipPath
       clipPathUnits="userSpaceOnUse"
       id="clipPath213">
      <path
         d="M 0,25.043 H 28.337 V 0 H 0 Z"
         transform="translate(-17.95,-5.6533004)"
         id="path213" />
    </clipPath>
    <clipPath
       clipPathUnits="userSpaceOnUse"
       id="clipPath215">
      <path
         d="M 0,25.043 H 28.337 V 0 H 0 Z"
         transform="translate(-18.3846,-5.5448001)"
         id="path215" />
    </clipPath>
    <clipPath
       clipPathUnits="userSpaceOnUse"
       id="clipPath217">
      <path
         d="M 0,25.043 H 28.337 V 0 H 0 Z"
         transform="translate(-20.370301,-5.3540001)"
         id="path217" />
    </clipPath>
    <clipPath
       clipPathUnits="userSpaceOnUse"
       id="clipPath219">
      <path
         d="M 0,25.043 H 28.337 V 0 H 0 Z"
         transform="translate(-5.9583001,-7.7824004)"
         id="path219" />
    </clipPath>
    <clipPath
       clipPathUnits="userSpaceOnUse"
       id="clipPath221">
      <path
         d="M 0,25.043 H 28.337 V 0 H 0 Z"
         transform="translate(-22.608501,-8.811)"
         id="path221" />
    </clipPath>
    <clipPath
       clipPathUnits="userSpaceOnUse"
       id="clipPath223">
      <path
         d="M 0,25.043 H 28.337 V 0 H 0 Z"
         transform="translate(-5.7281002,-8.811)"
         id="path223" />
    </clipPath>
    <clipPath
       clipPathUnits="userSpaceOnUse"
       id="clipPath225">
      <path
         d="M 0,25.043 H 28.337 V 0 H 0 Z"
         transform="translate(-14.0817,-6.8705002)"
         id="path225" />
    </clipPath>
    <clipPath
       clipPathUnits="userSpaceOnUse"
       id="clipPath227">
      <path
         d="M 0,25.043 H 28.337 V 0 H 0 Z"
         transform="translate(-14.255001,-6.8705002)"
         id="path227" />
    </clipPath>
  </defs>
  <sodipodi:namedview
     id="namedview1"
     pagecolor="#ffffff"
     bordercolor="#000000"
     borderopacity="0.25"
     inkscape:showpageshadow="2"
     inkscape:pageopacity="0.0"
     inkscape:pagecheckerboard="0"
     inkscape:deskcolor="#d1d1d1">
    <inkscape:page
       x="0"
       y="0"
       inkscape:label="1"
       id="page1"
       width="37.782131"
       height="33.390667"
       margin="1.7361066 3.9318666 1.7361333"
       bleed="0" />
  </sodipodi:namedview>
  <g
     id="g1"
     inkscape:groupmode="layer"
     inkscape:label="1">
    <g
       id="layer-MC0">
      <path
         id="path2"
         d="m 0,0 c -6.196,0 -11.219,-5.023 -11.219,-11.219 0,-6.197 5.023,-11.22 11.219,-11.22 6.196,0 11.219,5.023 11.219,11.22 C 11.219,-5.023 6.196,0 0,0 m 0,-0.35 c 1.468,0 2.891,-0.287 4.231,-0.854 1.294,-0.547 2.457,-1.331 3.455,-2.329 0.998,-0.999 1.782,-2.161 2.33,-3.456 0.566,-1.339 0.854,-2.763 0.854,-4.23 0,-1.468 -0.288,-2.891 -0.854,-4.231 -0.548,-1.295 -1.332,-2.457 -2.33,-3.455 -0.998,-0.999 -2.161,-1.783 -3.455,-2.33 -1.34,-0.567 -2.763,-0.854 -4.231,-0.854 -1.468,0 -2.891,0.287 -4.231,0.854 -1.294,0.547 -2.457,1.331 -3.455,2.33 -0.998,0.998 -1.782,2.16 -2.33,3.455 -0.566,1.34 -0.854,2.763 -0.854,4.231 0,1.467 0.288,2.891 0.854,4.23 0.548,1.295 1.332,2.457 2.33,3.456 0.998,0.998 2.161,1.782 3.455,2.329 1.34,0.567 2.763,0.854 4.231,0.854"
         style="fill:#223062;fill-opacity:1;fill-rule:nonzero;stroke:none"
         transform="matrix(1.3333333,0,0,-1.3333333,18.891067,1.7361333)"
         clip-path="url(#clipPath3)" />
      <path
         id="path4"
         d="m 0,0 c -5.926,0 -10.729,-4.804 -10.729,-10.729 0,-5.926 4.803,-10.73 10.729,-10.73 5.926,0 10.729,4.804 10.729,10.73 C 10.729,-4.804 5.926,0 0,0 m 0,-0.054 c 1.441,0 2.839,-0.282 4.155,-0.839 1.272,-0.537 2.413,-1.307 3.394,-2.288 0.98,-0.98 1.75,-2.122 2.288,-3.393 0.556,-1.316 0.839,-2.714 0.839,-4.155 0,-1.442 -0.283,-2.84 -0.839,-4.156 -0.538,-1.271 -1.308,-2.413 -2.288,-3.393 -0.981,-0.98 -2.122,-1.75 -3.394,-2.288 -1.316,-0.557 -2.714,-0.839 -4.155,-0.839 -1.441,0 -2.839,0.282 -4.155,0.839 -1.272,0.538 -2.413,1.308 -3.394,2.288 -0.98,0.98 -1.75,2.122 -2.288,3.393 -0.556,1.316 -0.839,2.714 -0.839,4.156 0,1.441 0.283,2.839 0.839,4.155 0.538,1.271 1.308,2.413 2.288,3.393 0.981,0.981 2.122,1.751 3.394,2.288 1.316,0.557 2.714,0.839 4.155,0.839"
         style="fill:#223062;fill-opacity:1;fill-rule:nonzero;stroke:none"
         transform="matrix(1.3333333,0,0,-1.3333333,18.891067,2.3896)"
         clip-path="url(#clipPath5)" />
      <path
         id="path6"
         d="m 0,0 c -5.926,0 -10.729,-4.804 -10.729,-10.729 0,-5.926 4.803,-10.73 10.729,-10.73 5.926,0 10.729,4.804 10.729,10.73 C 10.729,-4.804 5.926,0 0,0 m 0,-0.054 c 1.441,0 2.839,-0.282 4.155,-0.839 1.272,-0.537 2.413,-1.307 3.394,-2.288 0.98,-0.98 1.75,-2.122 2.288,-3.393 0.556,-1.316 0.839,-2.714 0.839,-4.155 0,-1.442 -0.283,-2.84 -0.839,-4.156 -0.538,-1.271 -1.308,-2.413 -2.288,-3.393 -0.981,-0.98 -2.122,-1.75 -3.394,-2.288 -1.316,-0.557 -2.714,-0.839 -4.155,-0.839 -1.441,0 -2.839,0.282 -4.155,0.839 -1.272,0.538 -2.413,1.308 -3.394,2.288 -0.98,0.98 -1.75,2.122 -2.288,3.393 -0.556,1.316 -0.839,2.714 -0.839,4.156 0,1.441 0.283,2.839 0.839,4.155 0.538,1.271 1.308,2.413 2.288,3.393 0.981,0.981 2.122,1.751 3.394,2.288 1.316,0.557 2.714,0.839 4.155,0.839"
         style="fill:#223062;fill-opacity:1;fill-rule:nonzero;stroke:none"
         transform="matrix(1.3333333,0,0,-1.3333333,18.891067,2.3896)"
         clip-path="url(#clipPath7)" />
      <path
         id="path8"
         d="M 0,0 -0.648,0.384 -0.559,0.534 0.089,0.15 Z"
         style="fill:#233164;fill-opacity:1;fill-rule:nonzero;stroke:none"
         transform="matrix(1.3333333,0,0,-1.3333333,8.2106667,10.5092)"
         clip-path="url(#clipPath9)" />
      <path
         id="path10"
         d="m 0,0 -0.332,-0.002 0.105,0.154 0.333,0.004 z M -0.392,-0.102 -0.503,-0.12 -0.38,0.061 c 0.031,0.045 0.043,0.084 0.039,0.12 -0.004,0.035 -0.023,0.064 -0.057,0.087 -0.035,0.023 -0.069,0.03 -0.103,0.021 C -0.535,0.28 -0.567,0.253 -0.597,0.209 L -0.72,0.027 -0.745,0.137 Z m 0.123,-0.294 -0.623,0.422 0.181,0.267 c 0.058,0.086 0.124,0.14 0.197,0.161 0.072,0.021 0.144,0.007 0.215,-0.04 0.046,-0.032 0.078,-0.07 0.097,-0.115 0.019,-0.044 0.023,-0.093 0.014,-0.145 -0.01,-0.053 -0.034,-0.107 -0.071,-0.163 l -0.129,-0.189 -0.02,0.107 0.237,-0.161 z"
         style="fill:#233164;fill-opacity:1;fill-rule:nonzero;stroke:none"
         transform="matrix(1.3333333,0,0,-1.3333333,8.8001333,9.5870667)"
         clip-path="url(#clipPath11)" />
      <path
         id="path12"
         d="M 0,0 -0.597,0.459 -0.49,0.598 0.106,0.138 Z"
         style="fill:#233164;fill-opacity:1;fill-rule:nonzero;stroke:none"
         transform="matrix(1.3333333,0,0,-1.3333333,9.0374667,9.2648)"
         clip-path="url(#clipPath13)" />
      <path
         id="path14"
         d="m 0,0 c -0.039,-0.046 -0.083,-0.084 -0.131,-0.115 -0.049,-0.032 -0.094,-0.052 -0.135,-0.06 l -0.061,0.13 c 0.039,0.01 0.078,0.026 0.118,0.05 0.04,0.024 0.074,0.053 0.104,0.087 0.022,0.026 0.038,0.049 0.046,0.07 C -0.05,0.182 -0.047,0.2 -0.05,0.216 -0.052,0.232 -0.06,0.244 -0.072,0.255 -0.087,0.268 -0.104,0.272 -0.123,0.268 -0.143,0.264 -0.164,0.254 -0.186,0.24 -0.209,0.225 -0.233,0.208 -0.258,0.189 -0.284,0.17 -0.31,0.152 -0.338,0.135 -0.366,0.118 -0.395,0.104 -0.424,0.095 -0.452,0.086 -0.482,0.083 -0.512,0.088 c -0.03,0.005 -0.06,0.02 -0.091,0.046 -0.032,0.028 -0.054,0.063 -0.066,0.104 -0.012,0.041 -0.01,0.086 0.004,0.135 0.015,0.049 0.045,0.101 0.092,0.155 0.031,0.036 0.065,0.067 0.104,0.095 0.038,0.027 0.077,0.047 0.117,0.059 L -0.287,0.555 C -0.325,0.542 -0.359,0.525 -0.39,0.505 -0.42,0.484 -0.446,0.461 -0.468,0.436 -0.49,0.41 -0.505,0.387 -0.513,0.365 -0.521,0.344 -0.524,0.325 -0.52,0.31 c 0.003,-0.015 0.011,-0.028 0.024,-0.039 0.014,-0.012 0.031,-0.017 0.051,-0.012 0.019,0.004 0.04,0.013 0.062,0.028 0.022,0.015 0.046,0.032 0.072,0.051 0.026,0.019 0.053,0.037 0.08,0.055 0.027,0.017 0.056,0.031 0.084,0.04 0.029,0.009 0.059,0.012 0.089,0.007 0.03,-0.005 0.06,-0.02 0.09,-0.046 C 0.064,0.367 0.085,0.333 0.096,0.292 0.108,0.251 0.106,0.206 0.092,0.156 0.077,0.106 0.047,0.054 0,0"
         style="fill:#233164;fill-opacity:1;fill-rule:nonzero;stroke:none"
         transform="matrix(1.3333333,0,0,-1.3333333,9.5449333,8.6637333)"
         clip-path="url(#clipPath15)" />
      <path
         id="path16"
         d="M 0,0 -0.113,0.004 0.042,0.159 C 0.081,0.197 0.101,0.233 0.104,0.268 0.106,0.303 0.093,0.335 0.064,0.364 0.035,0.394 0.003,0.407 -0.032,0.405 -0.067,0.402 -0.104,0.382 -0.142,0.344 L -0.298,0.19 -0.301,0.303 Z m 0.064,-0.312 -0.53,0.534 0.231,0.23 c 0.048,0.047 0.097,0.081 0.147,0.099 0.05,0.019 0.099,0.024 0.146,0.013 C 0.106,0.554 0.15,0.529 0.19,0.489 0.229,0.449 0.254,0.405 0.264,0.357 0.274,0.31 0.269,0.261 0.25,0.211 0.231,0.161 0.197,0.112 0.149,0.065 l -0.162,-0.162 -0.001,0.111 0.202,-0.203 z"
         style="fill:#233164;fill-opacity:1;fill-rule:nonzero;stroke:none"
         transform="matrix(1.3333333,0,0,-1.3333333,9.8205333,7.8105333)"
         clip-path="url(#clipPath17)" />
      <path
         id="path18"
         d="m 0,0 -0.32,0.088 0.142,0.12 0.322,-0.087 z m -0.405,0.008 -0.112,0.012 0.168,0.142 c 0.041,0.035 0.065,0.069 0.07,0.104 0.005,0.035 -0.005,0.068 -0.032,0.1 -0.027,0.031 -0.058,0.047 -0.093,0.048 -0.035,0 -0.073,-0.017 -0.114,-0.051 L -0.686,0.221 -0.68,0.334 Z m 0.039,-0.316 -0.485,0.575 0.246,0.208 c 0.08,0.067 0.158,0.101 0.233,0.102 0.076,0 0.141,-0.033 0.196,-0.098 C -0.14,0.436 -0.119,0.391 -0.113,0.343 -0.107,0.295 -0.116,0.247 -0.14,0.199 -0.163,0.151 -0.2,0.105 -0.252,0.062 l -0.175,-0.148 0.01,0.109 0.184,-0.219 z"
         style="fill:#233164;fill-opacity:1;fill-rule:nonzero;stroke:none"
         transform="matrix(1.3333333,0,0,-1.3333333,11.1208,7.1056)"
         clip-path="url(#clipPath19)" />
      <path
         id="path20"
         d="M 0,0 C 0.028,0.019 0.05,0.042 0.066,0.067 0.083,0.093 0.094,0.121 0.099,0.151 0.105,0.181 0.104,0.211 0.096,0.242 0.089,0.273 0.075,0.303 0.055,0.333 0.034,0.362 0.011,0.385 -0.016,0.403 -0.042,0.42 -0.07,0.431 -0.1,0.437 -0.13,0.442 -0.16,0.441 -0.19,0.434 -0.22,0.427 -0.249,0.414 -0.276,0.395 -0.304,0.376 -0.326,0.353 -0.343,0.327 -0.359,0.302 -0.37,0.274 -0.376,0.244 -0.381,0.214 -0.38,0.184 -0.373,0.153 c 0.007,-0.031 0.021,-0.061 0.042,-0.091 0.02,-0.028 0.043,-0.052 0.07,-0.069 0.027,-0.018 0.055,-0.029 0.085,-0.035 0.029,-0.005 0.059,-0.005 0.089,0.002 C -0.056,-0.033 -0.028,-0.019 0,0 M 0.086,-0.121 C 0.037,-0.155 -0.013,-0.179 -0.066,-0.192 -0.118,-0.205 -0.17,-0.208 -0.22,-0.2 c -0.051,0.007 -0.098,0.025 -0.142,0.052 -0.044,0.027 -0.082,0.063 -0.114,0.109 -0.032,0.046 -0.053,0.094 -0.063,0.145 -0.011,0.05 -0.011,0.101 0,0.151 0.01,0.05 0.03,0.097 0.06,0.142 0.03,0.045 0.069,0.084 0.118,0.118 0.048,0.034 0.099,0.057 0.151,0.07 0.052,0.013 0.103,0.015 0.153,0.007 C -0.006,0.587 0.041,0.57 0.085,0.543 0.129,0.517 0.167,0.48 0.199,0.434 0.232,0.388 0.253,0.339 0.263,0.288 0.273,0.237 0.273,0.187 0.263,0.137 0.253,0.088 0.233,0.041 0.203,-0.004 0.173,-0.048 0.134,-0.087 0.086,-0.121"
         style="fill:#233164;fill-opacity:1;fill-rule:nonzero;stroke:none"
         transform="matrix(1.3333333,0,0,-1.3333333,11.721733,6.4290667)"
         clip-path="url(#clipPath21)" />
      <path
         id="path22"
         d="M 0,0 -0.369,0.657 -0.217,0.742 0.152,0.085 Z"
         style="fill:#233164;fill-opacity:1;fill-rule:nonzero;stroke:none"
         transform="matrix(1.3333333,0,0,-1.3333333,12.7588,5.9837333)"
         clip-path="url(#clipPath23)" />
      <path
         id="path24"
         d="M 0,0 -0.325,0.679 -0.195,0.742 0.44,0.444 0.377,0.414 0.142,0.903 0.298,0.978 0.623,0.298 0.494,0.236 -0.142,0.533 -0.079,0.563 0.155,0.074 Z"
         style="fill:#233164;fill-opacity:1;fill-rule:nonzero;stroke:none"
         transform="matrix(1.3333333,0,0,-1.3333333,13.1532,5.7578667)"
         clip-path="url(#clipPath25)" />
      <path
         id="path26"
         d="M 0,0 -0.218,0.571 -0.443,0.485 -0.494,0.618 0.119,0.852 0.17,0.719 -0.055,0.633 0.163,0.062 Z"
         style="fill:#233164;fill-opacity:1;fill-rule:nonzero;stroke:none"
         transform="matrix(1.3333333,0,0,-1.3333333,14.381733,5.2045333)"
         clip-path="url(#clipPath27)" />
      <path
         id="path28"
         d="M 0,0 -0.039,0.13 0.308,0.234 0.347,0.104 Z M -0.063,-0.347 -0.279,0.375 0.266,0.538 0.306,0.404 -0.073,0.29 0.062,-0.163 0.455,-0.046 0.495,-0.18 Z"
         style="fill:#233164;fill-opacity:1;fill-rule:nonzero;stroke:none"
         transform="matrix(1.3333333,0,0,-1.3333333,15.0852,4.5129333)"
         clip-path="url(#clipPath29)" />
      <path
         id="path30"
         d="m 0,0 -0.241,0.228 0.182,0.039 0.243,-0.228 z m -0.353,0.197 -0.093,0.064 0.214,0.046 c 0.053,0.011 0.09,0.031 0.111,0.059 0.021,0.029 0.027,0.063 0.019,0.103 -0.009,0.04 -0.029,0.069 -0.059,0.086 -0.031,0.017 -0.073,0.02 -0.125,0.009 L -0.501,0.518 -0.442,0.615 Z M -0.468,-0.1 -0.625,0.637 -0.311,0.704 c 0.103,0.022 0.187,0.015 0.254,-0.02 C 0.01,0.648 0.053,0.589 0.07,0.506 0.082,0.451 0.079,0.401 0.062,0.356 0.044,0.311 0.014,0.272 -0.029,0.241 -0.073,0.21 -0.127,0.187 -0.193,0.173 l -0.224,-0.047 0.06,0.09 0.059,-0.279 z"
         style="fill:#233164;fill-opacity:1;fill-rule:nonzero;stroke:none"
         transform="matrix(1.3333333,0,0,-1.3333333,16.530533,4.5785333)"
         clip-path="url(#clipPath31)" />
      <path
         id="path32"
         d="M 0,0 -0.092,0.747 0.052,0.765 0.558,0.281 0.489,0.272 0.423,0.811 0.594,0.831 0.686,0.084 0.544,0.067 0.036,0.551 0.105,0.559 0.171,0.021 Z"
         style="fill:#233164;fill-opacity:1;fill-rule:nonzero;stroke:none"
         transform="matrix(1.3333333,0,0,-1.3333333,16.917867,4.5034667)"
         clip-path="url(#clipPath33)" />
      <path
         id="path34"
         d="M 0,0 0.042,0.134 0.429,0.146 0.481,0.016 Z M -0.162,-0.167 0.148,0.597 0.32,0.603 0.682,-0.139 0.499,-0.145 0.202,0.51 0.271,0.513 0.016,-0.161 Z"
         style="fill:#233164;fill-opacity:1;fill-rule:nonzero;stroke:none"
         transform="matrix(1.3333333,0,0,-1.3333333,18.133067,4.1581333)"
         clip-path="url(#clipPath35)" />
      <path
         id="path36"
         d="M 0,0 0.025,0.611 -0.216,0.62 -0.21,0.762 0.446,0.736 0.44,0.594 0.199,0.603 0.174,-0.007 Z"
         style="fill:#233164;fill-opacity:1;fill-rule:nonzero;stroke:none"
         transform="matrix(1.3333333,0,0,-1.3333333,19.286667,4.3609333)"
         clip-path="url(#clipPath37)" />
      <path
         id="path38"
         d="M 0,0 0.071,0.75 0.244,0.733 0.174,-0.016 Z"
         style="fill:#233164;fill-opacity:1;fill-rule:nonzero;stroke:none"
         transform="matrix(1.3333333,0,0,-1.3333333,19.9508,4.3996)"
         clip-path="url(#clipPath39)" />
      <path
         id="path40"
         d="M 0,0 C 0.033,-0.005 0.065,-0.005 0.095,0.002 0.124,0.009 0.152,0.021 0.176,0.039 0.201,0.057 0.222,0.079 0.238,0.106 0.254,0.133 0.265,0.165 0.271,0.2 0.277,0.236 0.276,0.269 0.269,0.3 0.262,0.331 0.25,0.358 0.233,0.383 0.215,0.408 0.193,0.428 0.167,0.444 0.14,0.46 0.11,0.47 0.077,0.476 0.044,0.481 0.012,0.48 -0.017,0.474 -0.047,0.467 -0.074,0.455 -0.099,0.437 -0.124,0.419 -0.144,0.397 -0.161,0.369 -0.177,0.342 -0.188,0.311 -0.194,0.276 -0.2,0.241 -0.199,0.208 -0.192,0.177 -0.185,0.145 -0.173,0.117 -0.156,0.093 -0.138,0.068 -0.116,0.048 -0.09,0.032 -0.063,0.016 -0.033,0.005 0,0 m -0.023,-0.147 c -0.058,0.01 -0.111,0.028 -0.158,0.055 -0.047,0.028 -0.086,0.062 -0.117,0.102 -0.03,0.041 -0.052,0.086 -0.065,0.136 -0.012,0.05 -0.014,0.103 -0.005,0.158 0.009,0.055 0.027,0.104 0.055,0.148 0.028,0.043 0.063,0.079 0.105,0.108 0.043,0.029 0.09,0.049 0.143,0.06 0.053,0.011 0.108,0.012 0.166,0.002 C 0.16,0.613 0.212,0.594 0.258,0.567 0.304,0.54 0.343,0.506 0.374,0.466 0.405,0.425 0.426,0.38 0.439,0.33 0.452,0.281 0.454,0.228 0.445,0.172 0.436,0.117 0.418,0.067 0.39,0.023 0.361,-0.02 0.326,-0.056 0.284,-0.085 0.242,-0.113 0.195,-0.133 0.143,-0.144 0.09,-0.155 0.035,-0.156 -0.023,-0.147"
         style="fill:#233164;fill-opacity:1;fill-rule:nonzero;stroke:none"
         transform="matrix(1.3333333,0,0,-1.3333333,20.9128,4.3369333)"
         clip-path="url(#clipPath41)" />
      <path
         id="path42"
         d="M 0,0 0.19,0.729 0.33,0.692 0.623,0.055 0.555,0.073 0.692,0.597 0.859,0.554 0.668,-0.175 0.53,-0.138 0.236,0.499 0.304,0.481 0.167,-0.044 Z"
         style="fill:#233164;fill-opacity:1;fill-rule:nonzero;stroke:none"
         transform="matrix(1.3333333,0,0,-1.3333333,21.574667,4.6389333)"
         clip-path="url(#clipPath43)" />
      <path
         id="path44"
         d="M 0,0 0.088,0.109 0.453,-0.023 0.452,-0.163 Z M -0.213,-0.095 0.359,0.5 0.521,0.441 0.582,-0.381 0.41,-0.319 0.376,0.4 0.441,0.376 -0.045,-0.155 Z"
         style="fill:#233164;fill-opacity:1;fill-rule:nonzero;stroke:none"
         transform="matrix(1.3333333,0,0,-1.3333333,22.832,4.7662667)"
         clip-path="url(#clipPath45)" />
      <path
         id="path46"
         d="M 0,0 0.31,0.686 0.469,0.614 0.217,0.058 0.561,-0.098 0.503,-0.227 Z"
         style="fill:#233164;fill-opacity:1;fill-rule:nonzero;stroke:none"
         transform="matrix(1.3333333,0,0,-1.3333333,23.6832,5.3158667)"
         clip-path="url(#clipPath47)" />
      <path
         id="path48"
         d="M 0,0 C -0.052,0.03 -0.098,0.066 -0.137,0.108 -0.177,0.15 -0.205,0.19 -0.221,0.23 l 0.117,0.083 C -0.087,0.277 -0.064,0.242 -0.033,0.207 -0.003,0.172 0.032,0.143 0.071,0.12 0.101,0.103 0.127,0.092 0.149,0.087 0.17,0.082 0.189,0.083 0.203,0.088 0.218,0.094 0.23,0.103 0.237,0.117 0.248,0.134 0.249,0.152 0.241,0.17 0.233,0.188 0.22,0.207 0.202,0.227 0.183,0.246 0.162,0.267 0.139,0.288 0.115,0.31 0.093,0.333 0.071,0.357 0.049,0.382 0.031,0.407 0.016,0.434 0.002,0.46 -0.006,0.489 -0.007,0.519 c 0,0.031 0.009,0.063 0.029,0.098 0.022,0.037 0.052,0.065 0.09,0.084 C 0.15,0.72 0.195,0.727 0.246,0.722 0.297,0.716 0.353,0.696 0.415,0.66 0.456,0.636 0.493,0.608 0.527,0.575 0.561,0.542 0.588,0.507 0.607,0.471 L 0.494,0.383 C 0.474,0.418 0.451,0.449 0.425,0.475 0.4,0.501 0.372,0.523 0.343,0.54 0.314,0.557 0.288,0.567 0.266,0.571 0.243,0.575 0.225,0.574 0.21,0.568 0.196,0.562 0.185,0.552 0.176,0.537 0.167,0.521 0.166,0.503 0.173,0.485 0.181,0.467 0.194,0.448 0.213,0.429 0.231,0.41 0.252,0.389 0.276,0.367 0.299,0.345 0.322,0.322 0.344,0.299 0.366,0.275 0.385,0.25 0.399,0.223 0.413,0.196 0.421,0.168 0.422,0.137 0.423,0.107 0.413,0.075 0.394,0.041 0.372,0.004 0.343,-0.023 0.304,-0.042 0.266,-0.06 0.221,-0.067 0.17,-0.062 0.119,-0.057 0.062,-0.036 0,0"
         style="fill:#233164;fill-opacity:1;fill-rule:nonzero;stroke:none"
         transform="matrix(1.3333333,0,0,-1.3333333,25.0828,6.0386667)"
         clip-path="url(#clipPath49)" />
      <path
         id="path50"
         d="m 0,0 0.13,-0.091 c 0.041,-0.029 0.083,-0.046 0.124,-0.052 0.041,-0.006 0.08,0 0.117,0.017 0.037,0.017 0.069,0.045 0.096,0.084 C 0.495,-0.003 0.51,0.037 0.513,0.077 0.516,0.117 0.508,0.156 0.489,0.193 0.47,0.229 0.439,0.262 0.398,0.291 L 0.268,0.382 Z M -0.225,-0.017 0.207,0.6 0.488,0.403 C 0.555,0.356 0.605,0.302 0.638,0.241 0.671,0.179 0.686,0.116 0.683,0.05 0.679,-0.016 0.656,-0.081 0.611,-0.144 0.568,-0.206 0.515,-0.25 0.454,-0.276 0.393,-0.302 0.328,-0.31 0.259,-0.299 0.19,-0.289 0.122,-0.26 0.055,-0.214 Z"
         style="fill:#233164;fill-opacity:1;fill-rule:nonzero;stroke:none"
         transform="matrix(1.3333333,0,0,-1.3333333,25.878533,6.2892)"
         clip-path="url(#clipPath51)" />
      <path
         id="path52"
         d="M 0,0 0.488,0.574 0.597,0.481 0.585,-0.22 0.532,-0.175 0.883,0.238 1.014,0.127 0.526,-0.447 0.417,-0.355 0.429,0.347 0.482,0.302 0.131,-0.111 Z"
         style="fill:#233164;fill-opacity:1;fill-rule:nonzero;stroke:none"
         transform="matrix(1.3333333,0,0,-1.3333333,26.5244,6.988)"
         clip-path="url(#clipPath53)" />
      <path
         id="path54"
         d="m 0,0 0.138,-0.149 c 0.031,-0.034 0.059,-0.054 0.086,-0.061 0.026,-0.007 0.052,0 0.075,0.022 0.023,0.022 0.033,0.046 0.028,0.074 -0.004,0.027 -0.022,0.058 -0.052,0.091 L 0.128,0.136 0.221,0.222 0.348,0.085 C 0.376,0.054 0.404,0.035 0.43,0.029 c 0.026,-0.007 0.05,0 0.072,0.02 0.022,0.02 0.03,0.043 0.026,0.07 C 0.523,0.146 0.507,0.174 0.478,0.205 L 0.36,0.333 Z m -0.214,0.038 0.553,0.511 0.25,-0.27 C 0.653,0.209 0.688,0.145 0.694,0.085 0.7,0.026 0.682,-0.024 0.638,-0.064 0.61,-0.09 0.578,-0.106 0.543,-0.112 0.509,-0.117 0.474,-0.113 0.44,-0.099 0.405,-0.085 0.373,-0.062 0.344,-0.03 L 0.39,-0.015 C 0.422,-0.05 0.445,-0.086 0.458,-0.123 0.472,-0.16 0.474,-0.197 0.466,-0.232 0.458,-0.268 0.438,-0.3 0.406,-0.33 0.358,-0.374 0.304,-0.389 0.243,-0.376 0.181,-0.363 0.117,-0.321 0.05,-0.248 Z"
         style="fill:#233164;fill-opacity:1;fill-rule:nonzero;stroke:none"
         transform="matrix(1.3333333,0,0,-1.3333333,27.9544,8.0626667)"
         clip-path="url(#clipPath55)" />
      <path
         id="path56"
         d="m 0,0 0.117,0.09 0.224,-0.292 -0.117,-0.09 z m -0.028,-0.47 0.597,0.46 0.106,-0.138 -0.597,-0.46 z m -0.315,0.409 0.597,0.46 0.106,-0.138 -0.597,-0.46 z"
         style="fill:#233164;fill-opacity:1;fill-rule:nonzero;stroke:none"
         transform="matrix(1.3333333,0,0,-1.3333333,28.85,8.7266667)"
         clip-path="url(#clipPath57)" />
      <path
         id="path58"
         d="m 0,0 0.085,-0.135 c 0.027,-0.042 0.058,-0.074 0.094,-0.095 0.036,-0.021 0.074,-0.031 0.115,-0.029 0.04,0.001 0.081,0.015 0.121,0.04 0.04,0.026 0.07,0.056 0.088,0.092 0.019,0.036 0.026,0.075 0.022,0.116 C 0.522,0.03 0.507,0.072 0.48,0.115 L 0.395,0.249 Z M -0.214,0.071 0.423,0.473 0.605,0.184 C 0.649,0.115 0.674,0.046 0.681,-0.024 0.688,-0.093 0.677,-0.158 0.649,-0.217 0.62,-0.277 0.574,-0.327 0.509,-0.368 0.445,-0.409 0.379,-0.429 0.313,-0.43 c -0.067,0 -0.13,0.018 -0.189,0.054 -0.06,0.036 -0.112,0.089 -0.155,0.158 z"
         style="fill:#233164;fill-opacity:1;fill-rule:nonzero;stroke:none"
         transform="matrix(1.3333333,0,0,-1.3333333,29.364,9.8081333)"
         clip-path="url(#clipPath59)" />
      <path
         id="path60"
         d="M 0,0 C -0.04,0.03 -0.075,0.064 -0.102,0.104 -0.13,0.143 -0.148,0.181 -0.154,0.216 l 0.071,0.039 C -0.076,0.222 -0.061,0.188 -0.038,0.154 -0.015,0.119 0.013,0.089 0.047,0.064 0.078,0.042 0.106,0.027 0.13,0.02 0.155,0.013 0.176,0.012 0.194,0.018 0.212,0.024 0.227,0.034 0.239,0.05 0.252,0.068 0.257,0.087 0.253,0.107 0.25,0.127 0.241,0.147 0.227,0.168 0.213,0.189 0.196,0.21 0.177,0.232 0.158,0.254 0.14,0.276 0.122,0.3 0.104,0.324 0.089,0.348 0.078,0.373 0.067,0.397 0.062,0.423 0.063,0.449 0.065,0.476 0.076,0.503 0.097,0.531 0.117,0.559 0.143,0.579 0.174,0.591 0.205,0.603 0.241,0.606 0.282,0.597 0.322,0.589 0.365,0.568 0.412,0.534 0.443,0.511 0.47,0.485 0.495,0.454 0.519,0.424 0.537,0.393 0.548,0.361 L 0.478,0.319 C 0.467,0.351 0.451,0.38 0.431,0.405 0.41,0.43 0.388,0.452 0.364,0.469 0.335,0.491 0.307,0.505 0.282,0.512 0.258,0.518 0.236,0.519 0.218,0.513 0.2,0.506 0.185,0.495 0.174,0.48 0.16,0.461 0.155,0.442 0.159,0.422 0.162,0.402 0.171,0.382 0.185,0.361 0.199,0.341 0.216,0.32 0.235,0.298 0.254,0.276 0.272,0.253 0.29,0.229 0.309,0.206 0.323,0.182 0.334,0.157 0.346,0.133 0.351,0.107 0.349,0.081 0.348,0.055 0.337,0.028 0.316,0 0.297,-0.027 0.271,-0.046 0.24,-0.059 0.208,-0.071 0.172,-0.073 0.131,-0.064 0.09,-0.056 0.047,-0.034 0,0"
         style="fill:#233164;fill-opacity:1;fill-rule:nonzero;stroke:none"
         transform="matrix(1.3333333,0,0,-1.3333333,11.144933,27.258533)"
         clip-path="url(#clipPath61)" />
      <path
         id="path62"
         d="M 0,0 0.062,0.05 0.375,-0.148 0.358,-0.227 Z m -0.196,-0.071 0.605,0.397 0.079,-0.05 -0.1,-0.717 -0.083,0.053 0.099,0.655 0.032,-0.021 -0.55,-0.369 z"
         style="fill:#233164;fill-opacity:1;fill-rule:nonzero;stroke:none"
         transform="matrix(1.3333333,0,0,-1.3333333,11.7668,27.4172)"
         clip-path="url(#clipPath63)" />
      <path
         id="path64"
         d="M 0,0 0.038,0.071 0.337,-0.09 0.299,-0.161 Z M -0.201,-0.194 0.112,0.386 0.521,0.165 0.482,0.093 0.156,0.269 -0.118,-0.239 Z"
         style="fill:#233164;fill-opacity:1;fill-rule:nonzero;stroke:none"
         transform="matrix(1.3333333,0,0,-1.3333333,12.712533,27.832267)"
         clip-path="url(#clipPath65)" />
      <path
         id="path66"
         d="M 0,0 0.033,0.073 0.341,-0.068 0.308,-0.141 Z M -0.2,-0.232 0.074,0.367 0.496,0.174 0.462,0.099 0.125,0.253 l -0.206,-0.45 0.35,-0.16 -0.034,-0.074 z"
         style="fill:#233164;fill-opacity:1;fill-rule:nonzero;stroke:none"
         transform="matrix(1.3333333,0,0,-1.3333333,13.4604,28.1748)"
         clip-path="url(#clipPath67)" />
      <path
         id="path68"
         d="m 0,0 c -0.014,0.005 -0.026,0.013 -0.036,0.025 -0.01,0.011 -0.016,0.024 -0.019,0.039 -0.003,0.015 -0.002,0.031 0.004,0.047 0.006,0.015 0.015,0.027 0.026,0.037 0.012,0.009 0.026,0.015 0.041,0.018 C 0.031,0.168 0.045,0.167 0.059,0.162 0.074,0.156 0.086,0.148 0.096,0.136 0.105,0.125 0.111,0.112 0.114,0.097 0.116,0.083 0.115,0.068 0.109,0.052 0.104,0.036 0.095,0.023 0.083,0.014 0.072,0.004 0.059,-0.002 0.044,-0.005 0.029,-0.007 0.015,-0.005 0,0"
         style="fill:#233164;fill-opacity:1;fill-rule:nonzero;stroke:none"
         transform="matrix(1.3333333,0,0,-1.3333333,14.4716,28.772533)"
         clip-path="url(#clipPath69)" />
      <path
         id="path70"
         d="M 0,0 0.158,0.555 -0.059,0.617 -0.037,0.696 0.487,0.546 0.465,0.468 0.248,0.53 0.09,-0.025 Z"
         style="fill:#233164;fill-opacity:1;fill-rule:nonzero;stroke:none"
         transform="matrix(1.3333333,0,0,-1.3333333,15.2428,29.268133)"
         clip-path="url(#clipPath71)" />
      <path
         id="path72"
         d="M 0,0 0.017,0.078 0.348,0.007 0.331,-0.072 Z M -0.146,-0.27 -0.007,0.374 0.448,0.276 0.43,0.196 0.068,0.274 -0.037,-0.21 0.339,-0.291 0.321,-0.371 Z"
         style="fill:#233164;fill-opacity:1;fill-rule:nonzero;stroke:none"
         transform="matrix(1.3333333,0,0,-1.3333333,16.026133,29.067067)"
         clip-path="url(#clipPath73)" />
      <path
         id="path74"
         d="m 0,0 c -0.05,0.007 -0.096,0.022 -0.139,0.044 -0.043,0.022 -0.076,0.047 -0.098,0.075 l 0.045,0.067 C -0.171,0.161 -0.142,0.138 -0.105,0.118 -0.069,0.098 -0.03,0.085 0.012,0.079 0.05,0.074 0.081,0.073 0.106,0.079 0.131,0.084 0.15,0.093 0.163,0.107 0.177,0.12 0.185,0.137 0.188,0.156 0.191,0.178 0.186,0.197 0.174,0.213 0.161,0.229 0.144,0.243 0.122,0.255 0.1,0.266 0.075,0.277 0.048,0.288 0.021,0.298 -0.006,0.31 -0.033,0.322 -0.06,0.335 -0.084,0.349 -0.105,0.366 -0.127,0.382 -0.143,0.403 -0.154,0.427 -0.165,0.451 -0.168,0.48 -0.163,0.515 -0.158,0.549 -0.144,0.578 -0.122,0.604 -0.1,0.629 -0.07,0.648 -0.03,0.66 0.009,0.671 0.057,0.673 0.115,0.664 0.152,0.659 0.189,0.648 0.225,0.633 0.261,0.617 0.291,0.598 0.316,0.576 L 0.274,0.506 C 0.249,0.528 0.221,0.546 0.191,0.559 0.161,0.572 0.132,0.581 0.103,0.585 0.066,0.591 0.035,0.59 0.01,0.585 -0.015,0.579 -0.034,0.569 -0.047,0.555 -0.06,0.541 -0.068,0.525 -0.071,0.505 -0.074,0.482 -0.07,0.463 -0.057,0.447 -0.044,0.431 -0.027,0.418 -0.005,0.406 0.017,0.395 0.042,0.384 0.069,0.373 0.096,0.362 0.123,0.351 0.15,0.339 0.177,0.326 0.201,0.312 0.222,0.295 0.244,0.279 0.26,0.259 0.271,0.235 0.282,0.211 0.285,0.182 0.28,0.148 0.275,0.115 0.261,0.086 0.239,0.06 0.217,0.035 0.186,0.016 0.146,0.005 0.106,-0.007 0.057,-0.008 0,0"
         style="fill:#233164;fill-opacity:1;fill-rule:nonzero;stroke:none"
         transform="matrix(1.3333333,0,0,-1.3333333,16.9556,29.651333)"
         clip-path="url(#clipPath75)" />
      <path
         id="path76"
         d="M 0,0 0.05,0.575 -0.175,0.594 -0.168,0.676 0.375,0.629 0.368,0.547 0.143,0.567 0.093,-0.008 Z"
         style="fill:#233164;fill-opacity:1;fill-rule:nonzero;stroke:none"
         transform="matrix(1.3333333,0,0,-1.3333333,17.6808,29.728267)"
         clip-path="url(#clipPath77)" />
      <path
         id="path78"
         d="M 0,0 0.002,0.08 0.341,0.072 0.339,-0.008 Z M -0.093,-0.293 -0.077,0.366 0.388,0.355 0.386,0.273 0.015,0.282 0.003,-0.213 0.387,-0.222 0.385,-0.304 Z"
         style="fill:#233164;fill-opacity:1;fill-rule:nonzero;stroke:none"
         transform="matrix(1.3333333,0,0,-1.3333333,18.4116,29.382933)"
         clip-path="url(#clipPath79)" />
      <path
         id="path80"
         d="M 0,0 0.178,0.009 C 0.232,0.012 0.279,0.025 0.318,0.047 0.356,0.07 0.386,0.101 0.406,0.139 0.426,0.177 0.435,0.221 0.432,0.27 0.429,0.32 0.416,0.362 0.392,0.398 0.369,0.434 0.336,0.461 0.295,0.48 0.255,0.498 0.207,0.506 0.152,0.504 L -0.025,0.494 Z M -0.09,-0.087 -0.123,0.571 0.154,0.586 C 0.224,0.589 0.287,0.579 0.342,0.554 0.397,0.529 0.44,0.493 0.473,0.445 0.505,0.397 0.523,0.34 0.526,0.275 0.529,0.21 0.517,0.152 0.49,0.1 0.463,0.049 0.423,0.009 0.371,-0.022 0.319,-0.052 0.258,-0.069 0.188,-0.072 Z"
         style="fill:#233164;fill-opacity:1;fill-rule:nonzero;stroke:none"
         transform="matrix(1.3333333,0,0,-1.3333333,19.304,29.6704)"
         clip-path="url(#clipPath81)" />
      <path
         id="path82"
         d="m 0,0 c -0.015,-0.002 -0.029,0 -0.043,0.005 -0.014,0.005 -0.026,0.014 -0.036,0.026 -0.009,0.012 -0.015,0.026 -0.018,0.043 -0.002,0.016 0,0.031 0.006,0.045 0.006,0.014 0.015,0.026 0.027,0.035 0.012,0.009 0.026,0.015 0.041,0.017 0.015,0.002 0.03,0 0.044,-0.006 C 0.034,0.16 0.046,0.151 0.055,0.139 0.064,0.127 0.07,0.113 0.072,0.097 0.074,0.081 0.073,0.065 0.067,0.051 0.061,0.037 0.053,0.025 0.041,0.017 0.029,0.008 0.016,0.002 0,0"
         style="fill:#233164;fill-opacity:1;fill-rule:nonzero;stroke:none"
         transform="matrix(1.3333333,0,0,-1.3333333,20.649333,29.4332)"
         clip-path="url(#clipPath83)" />
      <path
         id="path84"
         d="M 0,0 -0.12,0.564 -0.341,0.517 -0.358,0.598 0.175,0.711 0.192,0.631 -0.029,0.584 0.091,0.019 Z"
         style="fill:#233164;fill-opacity:1;fill-rule:nonzero;stroke:none"
         transform="matrix(1.3333333,0,0,-1.3333333,21.562933,29.5104)"
         clip-path="url(#clipPath85)" />
      <path
         id="path86"
         d="M 0,0 -0.227,0.184 -0.13,0.212 0.099,0.028 Z m -0.397,0.131 -0.054,0.033 0.195,0.055 c 0.058,0.016 0.098,0.041 0.121,0.075 0.023,0.033 0.028,0.073 0.015,0.118 -0.013,0.045 -0.038,0.076 -0.075,0.092 -0.037,0.017 -0.084,0.017 -0.142,0 l -0.195,-0.055 0.028,0.057 z m -0.027,-0.251 -0.18,0.634 0.247,0.07 C -0.274,0.607 -0.204,0.606 -0.146,0.58 -0.088,0.555 -0.049,0.507 -0.029,0.438 -0.016,0.392 -0.016,0.35 -0.028,0.311 -0.039,0.272 -0.062,0.238 -0.097,0.209 -0.131,0.181 -0.176,0.159 -0.231,0.143 L -0.429,0.087 -0.4,0.14 -0.333,-0.095 Z"
         style="fill:#233164;fill-opacity:1;fill-rule:nonzero;stroke:none"
         transform="matrix(1.3333333,0,0,-1.3333333,22.725333,29.215333)"
         clip-path="url(#clipPath87)" />
      <path
         id="path88"
         d="m 0,0 c -0.081,-0.03 -0.154,-0.03 -0.217,-0.001 -0.064,0.029 -0.112,0.089 -0.146,0.178 l -0.13,0.351 0.089,0.033 0.128,-0.348 c 0.026,-0.069 0.06,-0.113 0.102,-0.134 0.042,-0.02 0.091,-0.021 0.146,0 C 0.028,0.1 0.065,0.131 0.084,0.174 0.102,0.217 0.099,0.273 0.073,0.342 L -0.055,0.69 0.03,0.722 0.16,0.37 C 0.193,0.281 0.195,0.204 0.166,0.141 0.137,0.077 0.082,0.03 0,0"
         style="fill:#233164;fill-opacity:1;fill-rule:nonzero;stroke:none"
         transform="matrix(1.3333333,0,0,-1.3333333,23.434,28.983867)"
         clip-path="url(#clipPath89)" />
      <path
         id="path90"
         d="m 0,0 c -0.046,-0.021 -0.093,-0.034 -0.141,-0.039 -0.048,-0.005 -0.089,-0.001 -0.123,0.01 l 0.001,0.081 c 0.032,-0.009 0.069,-0.013 0.11,-0.01 0.042,0.003 0.082,0.013 0.12,0.031 0.035,0.016 0.061,0.032 0.079,0.05 C 0.064,0.141 0.075,0.16 0.079,0.178 0.083,0.197 0.081,0.215 0.073,0.233 0.064,0.253 0.05,0.267 0.03,0.273 0.011,0.28 -0.011,0.282 -0.036,0.28 -0.061,0.278 -0.087,0.274 -0.116,0.268 -0.144,0.262 -0.173,0.257 -0.202,0.253 -0.232,0.249 -0.26,0.248 -0.287,0.25 -0.314,0.252 -0.338,0.261 -0.361,0.275 -0.383,0.289 -0.402,0.312 -0.416,0.344 -0.43,0.375 -0.435,0.407 -0.43,0.441 c 0.004,0.033 0.02,0.065 0.047,0.097 0.026,0.031 0.066,0.058 0.119,0.082 0.035,0.016 0.071,0.027 0.11,0.034 0.038,0.006 0.074,0.006 0.107,0.001 L -0.044,0.573 C -0.078,0.579 -0.111,0.579 -0.143,0.574 -0.175,0.568 -0.204,0.56 -0.231,0.547 -0.265,0.532 -0.291,0.515 -0.308,0.497 -0.326,0.478 -0.337,0.46 -0.34,0.441 -0.344,0.422 -0.342,0.404 -0.334,0.386 c 0.01,-0.021 0.024,-0.035 0.043,-0.041 0.02,-0.007 0.042,-0.009 0.066,-0.007 0.025,0.003 0.052,0.007 0.08,0.012 0.029,0.006 0.058,0.011 0.087,0.015 0.029,0.005 0.057,0.006 0.084,0.004 C 0.053,0.366 0.078,0.358 0.1,0.344 0.122,0.33 0.14,0.307 0.155,0.276 0.169,0.246 0.173,0.214 0.168,0.18 0.163,0.147 0.147,0.114 0.12,0.083 0.093,0.051 0.053,0.024 0,0"
         style="fill:#233164;fill-opacity:1;fill-rule:nonzero;stroke:none"
         transform="matrix(1.3333333,0,0,-1.3333333,24.302933,28.6264)"
         clip-path="url(#clipPath91)" />
      <path
         id="path92"
         d="m 0,0 -0.27,0.51 -0.2,-0.106 -0.038,0.073 0.482,0.255 0.038,-0.073 -0.2,-0.105 0.27,-0.51 z"
         style="fill:#233164;fill-opacity:1;fill-rule:nonzero;stroke:none"
         transform="matrix(1.3333333,0,0,-1.3333333,24.954533,28.2972)"
         clip-path="url(#clipPath93)" />
      <path
         id="path94"
         d="M 0,0 -0.042,0.068 0.247,0.246 0.289,0.177 Z m 0.081,-0.296 -0.345,0.562 0.397,0.243 0.042,-0.07 -0.316,-0.194 0.26,-0.422 0.327,0.201 0.043,-0.07 z"
         style="fill:#233164;fill-opacity:1;fill-rule:nonzero;stroke:none"
         transform="matrix(1.3333333,0,0,-1.3333333,25.38,27.610533)"
         clip-path="url(#clipPath95)" />
      <path
         id="path96"
         d="M 0,0 0.144,0.104 C 0.188,0.136 0.22,0.172 0.241,0.213 0.261,0.253 0.269,0.294 0.265,0.338 0.26,0.381 0.244,0.422 0.215,0.462 0.186,0.502 0.152,0.53 0.112,0.548 0.073,0.565 0.031,0.57 -0.013,0.563 -0.058,0.557 -0.102,0.537 -0.146,0.505 L -0.29,0.401 Z m -0.028,-0.122 -0.387,0.534 0.225,0.163 c 0.057,0.041 0.115,0.066 0.175,0.076 C 0.045,0.66 0.101,0.653 0.154,0.63 0.208,0.608 0.253,0.57 0.292,0.517 0.33,0.464 0.352,0.409 0.356,0.351 0.361,0.294 0.35,0.238 0.323,0.184 0.296,0.13 0.254,0.083 0.197,0.041 Z"
         style="fill:#233164;fill-opacity:1;fill-rule:nonzero;stroke:none"
         transform="matrix(1.3333333,0,0,-1.3333333,26.285733,27.366267)"
         clip-path="url(#clipPath97)" />
      <path
         id="path98"
         d="m 10.145,19.827 h 0.322 v -2.302 h -0.322 z"
         style="fill:#223062;fill-opacity:1;fill-rule:nonzero;stroke:none"
         transform="matrix(1.3333333,0,0,-1.3333333,0,33.390667)"
         clip-path="url(#clipPath99)" />
      <path
         id="path100"
         d="m 0,0 h -0.305 v 1.151 c 0,0.309 0.192,0.464 0.575,0.464 H 0.508 V 1.327 H 0.27 C 0.09,1.327 0,1.296 0,1.151 Z"
         style="fill:#223062;fill-opacity:1;fill-rule:nonzero;stroke:none"
         transform="matrix(1.3333333,0,0,-1.3333333,14.686933,10.024667)"
         clip-path="url(#clipPath101)" />
      <path
         id="path102"
         d="m 0,0 v -0.319 l -0.574,-0.002 c -0.147,0 -0.241,0.003 -0.241,-0.142 0,-0.148 0.072,-0.201 0.219,-0.201 h 0.278 c 0.31,0 0.466,-0.175 0.466,-0.484 0,-0.311 -0.156,-0.467 -0.466,-0.467 h -0.707 v 0.322 l 0.68,-0.002 c 0.147,0 0.201,0 0.201,0.147 0,0.145 -0.054,0.198 -0.201,0.198 H -0.64 c -0.312,0 -0.467,0.175 -0.467,0.487 0,0.309 0.155,0.463 0.467,0.463 z"
         style="fill:#223062;fill-opacity:1;fill-rule:nonzero;stroke:none"
         transform="matrix(1.3333333,0,0,-1.3333333,17.9368,7.872)"
         clip-path="url(#clipPath103)" />
      <path
         id="path104"
         d="m 11.735,19.161 h 0.333 v -1.653 h -0.333 z m 0.329,0.422 h -0.329 v 0.281 h 0.329 z"
         style="fill:#223062;fill-opacity:1;fill-rule:nonzero;stroke:none"
         transform="matrix(1.3333333,0,0,-1.3333333,0,33.390667)"
         clip-path="url(#clipPath105)" />
      <path
         id="path106"
         d="m 0,0 c -0.126,0 -0.189,-0.063 -0.189,-0.189 v -0.596 c 0,-0.128 0.063,-0.192 0.189,-0.192 h 0.478 c 0.128,0 0.192,0.062 0.192,0.187 v 0.601 C 0.67,-0.063 0.606,0 0.478,0 Z m 0.512,0.338 c 0.311,0 0.467,-0.155 0.467,-0.464 v -0.691 c 0,-0.307 -0.156,-0.46 -0.467,-0.46 h -0.549 c -0.309,0 -0.464,0.156 -0.464,0.467 v 0.684 c 0,0.309 0.155,0.464 0.464,0.464 z"
         style="fill:#223062;fill-opacity:1;fill-rule:nonzero;stroke:none"
         transform="matrix(1.3333333,0,0,-1.3333333,22.951333,8.3222667)"
         clip-path="url(#clipPath107)" />
      <path
         id="path108"
         d="M 0,0 0.465,0.868 V 0 Z"
         style="fill:#223062;fill-opacity:1;fill-rule:nonzero;stroke:none"
         transform="matrix(1.3333333,0,0,-1.3333333,18.424667,10.024667)"
         clip-path="url(#clipPath109)" />
      <path
         id="path110"
         d="m 0,0 v -0.653 h 0.254 c 0.184,0 0.306,0.012 0.368,0.036 0.062,0.024 0.11,0.062 0.145,0.113 0.035,0.051 0.053,0.111 0.053,0.179 0,0.084 -0.025,0.153 -0.074,0.207 C 0.697,-0.063 0.634,-0.029 0.559,-0.016 0.504,-0.005 0.392,0 0.225,0 Z M -0.465,-1.044 V 0.389 H 0.281 C 0.564,0.389 0.748,0.378 0.834,0.355 0.966,0.32 1.076,0.245 1.165,0.13 1.254,0.014 1.299,-0.135 1.299,-0.319 1.299,-0.46 1.273,-0.579 1.222,-0.675 1.17,-0.772 1.105,-0.847 1.026,-0.902 0.947,-0.957 0.867,-0.993 0.785,-1.011 0.674,-1.033 0.514,-1.044 0.303,-1.044 h -0.3 z"
         style="fill:#223062;fill-opacity:1;fill-rule:nonzero;stroke:none"
         transform="matrix(1.3333333,0,0,-1.3333333,19.0444,7.4746667)"
         clip-path="url(#clipPath111)" />
      <path
         id="path112"
         d="m 0,0 h -0.305 v 1.151 c 0,0.309 0.192,0.464 0.575,0.464 H 0.508 V 1.327 H 0.27 C 0.09,1.327 0,1.296 0,1.151 Z"
         style="fill:#223062;fill-opacity:1;fill-rule:nonzero;stroke:none"
         transform="matrix(1.3333333,0,0,-1.3333333,21.369467,10.024667)"
         clip-path="url(#clipPath113)" />
      <path
         id="path114"
         d="M 0,0 H 4.59"
         style="fill:none;stroke:#223062;stroke-width:0.161;stroke-linecap:butt;stroke-linejoin:miter;stroke-miterlimit:10;stroke-dasharray:none;stroke-opacity:1"
         transform="matrix(1.3333333,0,0,-1.3333333,6.6652,11.652267)"
         clip-path="url(#clipPath115)" />
      <path
         id="path116"
         d="M 0,0 H -4.59"
         style="fill:none;stroke:#223062;stroke-width:0.161;stroke-linecap:butt;stroke-linejoin:miter;stroke-miterlimit:10;stroke-dasharray:none;stroke-opacity:1"
         transform="matrix(1.3333333,0,0,-1.3333333,31.116933,11.652267)"
         clip-path="url(#clipPath117)" />
      <path
         id="path118"
         d="m 10.783,16.69 h 0.196 v -0.847 h -0.196 z m -0.4,-0.334 h 0.414 V 16.19 h -0.414 z m -0.181,0.334 h 0.196 v -0.847 h -0.196 z"
         style="fill:#223062;fill-opacity:1;fill-rule:nonzero;stroke:none"
         transform="matrix(1.3333333,0,0,-1.3333333,0,33.390667)"
         clip-path="url(#clipPath119)" />
      <path
         id="path120"
         d="M 0,0 0.052,0.149 H 0.488 L 0.541,0 Z M -0.189,-0.182 0.189,0.666 H 0.382 L 0.761,-0.182 H 0.556 L 0.246,0.566 H 0.323 L 0.012,-0.182 Z"
         style="fill:#223062;fill-opacity:1;fill-rule:nonzero;stroke:none"
         transform="matrix(1.3333333,0,0,-1.3333333,15.009333,12.025067)"
         clip-path="url(#clipPath121)" />
      <path
         id="path122"
         d="m 0,0 c -0.068,0 -0.133,0.009 -0.195,0.027 -0.062,0.018 -0.112,0.042 -0.15,0.071 l 0.067,0.148 C -0.242,0.22 -0.199,0.199 -0.149,0.182 -0.1,0.166 -0.05,0.157 0.001,0.157 c 0.039,0 0.07,0.004 0.094,0.012 0.024,0.007 0.041,0.018 0.053,0.032 0.011,0.014 0.017,0.029 0.017,0.047 0,0.023 -0.009,0.041 -0.027,0.054 C 0.12,0.315 0.097,0.326 0.068,0.335 0.039,0.343 0.007,0.351 -0.028,0.359 -0.064,0.367 -0.099,0.376 -0.134,0.387 -0.169,0.399 -0.201,0.413 -0.23,0.431 c -0.029,0.018 -0.053,0.041 -0.071,0.07 -0.018,0.029 -0.027,0.066 -0.027,0.111 0,0.049 0.013,0.093 0.039,0.133 0.027,0.04 0.066,0.072 0.119,0.096 0.053,0.023 0.119,0.035 0.199,0.035 0.053,0 0.106,-0.006 0.157,-0.019 C 0.238,0.845 0.284,0.826 0.323,0.801 L 0.263,0.652 C 0.223,0.675 0.184,0.692 0.144,0.703 0.104,0.713 0.066,0.719 0.028,0.719 -0.01,0.719 -0.041,0.714 -0.065,0.706 -0.09,0.697 -0.107,0.685 -0.117,0.671 -0.128,0.657 -0.133,0.641 -0.133,0.622 -0.133,0.6 -0.124,0.583 -0.107,0.569 -0.089,0.556 -0.065,0.545 -0.036,0.537 -0.007,0.529 0.025,0.521 0.06,0.513 0.095,0.505 0.13,0.496 0.165,0.485 0.2,0.475 0.232,0.461 0.261,0.443 0.29,0.425 0.314,0.402 0.332,0.373 0.35,0.344 0.359,0.307 0.359,0.263 0.359,0.215 0.346,0.171 0.32,0.132 0.293,0.092 0.253,0.061 0.2,0.036 0.147,0.012 0.081,0 0,0"
         style="fill:#223062;fill-opacity:1;fill-rule:nonzero;stroke:none"
         transform="matrix(1.3333333,0,0,-1.3333333,16.513333,12.286533)"
         clip-path="url(#clipPath123)" />
      <path
         id="path124"
         d="M 0,0 -0.087,0.093 H 0.16 c 0.06,0 0.105,0.013 0.135,0.039 C 0.325,0.158 0.34,0.194 0.34,0.24 0.34,0.286 0.325,0.323 0.295,0.349 0.265,0.374 0.22,0.387 0.16,0.387 H -0.087 L 0,0.48 Z M -0.196,-0.3 V 0.547 H 0.171 C 0.246,0.547 0.312,0.535 0.367,0.51 0.422,0.486 0.464,0.45 0.494,0.404 0.524,0.358 0.539,0.303 0.539,0.24 0.539,0.177 0.524,0.122 0.494,0.076 0.464,0.03 0.422,-0.005 0.367,-0.03 0.312,-0.054 0.246,-0.067 0.171,-0.067 H -0.087 L 0,0.022 V -0.3 Z"
         style="fill:#223062;fill-opacity:1;fill-rule:nonzero;stroke:none"
         transform="matrix(1.3333333,0,0,-1.3333333,17.889733,11.866933)"
         clip-path="url(#clipPath125)" />
      <path
         id="path126"
         d="M 0,0 0.052,0.149 H 0.488 L 0.541,0 Z M -0.189,-0.182 0.189,0.666 H 0.382 L 0.761,-0.182 H 0.556 L 0.246,0.566 H 0.323 L 0.012,-0.182 Z"
         style="fill:#223062;fill-opacity:1;fill-rule:nonzero;stroke:none"
         transform="matrix(1.3333333,0,0,-1.3333333,18.840267,12.025067)"
         clip-path="url(#clipPath127)" />
      <path
         id="path128"
         d="m 0,0 c -0.068,0 -0.133,0.009 -0.195,0.027 -0.062,0.018 -0.112,0.042 -0.15,0.071 l 0.067,0.148 C -0.242,0.22 -0.199,0.199 -0.149,0.182 -0.1,0.166 -0.05,0.157 0.001,0.157 c 0.039,0 0.07,0.004 0.094,0.012 0.024,0.007 0.041,0.018 0.053,0.032 0.011,0.014 0.017,0.029 0.017,0.047 0,0.023 -0.009,0.041 -0.027,0.054 C 0.12,0.315 0.097,0.326 0.068,0.335 0.039,0.343 0.007,0.351 -0.028,0.359 -0.064,0.367 -0.099,0.376 -0.134,0.387 -0.169,0.399 -0.201,0.413 -0.23,0.431 c -0.029,0.018 -0.053,0.041 -0.071,0.07 -0.018,0.029 -0.027,0.066 -0.027,0.111 0,0.049 0.013,0.093 0.039,0.133 0.027,0.04 0.066,0.072 0.119,0.096 0.053,0.023 0.119,0.035 0.199,0.035 0.053,0 0.106,-0.006 0.157,-0.019 C 0.238,0.845 0.284,0.826 0.323,0.801 L 0.263,0.652 C 0.223,0.675 0.184,0.692 0.144,0.703 0.104,0.713 0.066,0.719 0.028,0.719 -0.01,0.719 -0.041,0.714 -0.065,0.706 -0.09,0.697 -0.107,0.685 -0.117,0.671 -0.128,0.657 -0.133,0.641 -0.133,0.622 -0.133,0.6 -0.124,0.583 -0.107,0.569 -0.089,0.556 -0.065,0.545 -0.036,0.537 -0.007,0.529 0.025,0.521 0.06,0.513 0.095,0.505 0.13,0.496 0.165,0.485 0.2,0.475 0.232,0.461 0.261,0.443 0.29,0.425 0.314,0.402 0.332,0.373 0.35,0.344 0.359,0.307 0.359,0.263 0.359,0.215 0.346,0.171 0.32,0.132 0.293,0.092 0.253,0.061 0.2,0.036 0.147,0.012 0.081,0 0,0"
         style="fill:#223062;fill-opacity:1;fill-rule:nonzero;stroke:none"
         transform="matrix(1.3333333,0,0,-1.3333333,20.344267,12.286533)"
         clip-path="url(#clipPath129)" />
      <path
         id="path130"
         d="m 0,0 c -0.068,0 -0.133,0.009 -0.195,0.027 -0.062,0.018 -0.112,0.042 -0.15,0.071 l 0.067,0.148 C -0.242,0.22 -0.199,0.199 -0.149,0.182 -0.1,0.166 -0.05,0.157 0.001,0.157 c 0.039,0 0.07,0.004 0.094,0.012 0.024,0.007 0.041,0.018 0.053,0.032 0.011,0.014 0.017,0.029 0.017,0.047 0,0.023 -0.009,0.041 -0.027,0.054 C 0.12,0.315 0.097,0.326 0.068,0.335 0.039,0.343 0.007,0.351 -0.028,0.359 -0.064,0.367 -0.099,0.376 -0.134,0.387 -0.169,0.399 -0.201,0.413 -0.23,0.431 c -0.029,0.018 -0.053,0.041 -0.071,0.07 -0.018,0.029 -0.027,0.066 -0.027,0.111 0,0.049 0.013,0.093 0.039,0.133 0.027,0.04 0.066,0.072 0.119,0.096 0.053,0.023 0.119,0.035 0.199,0.035 0.053,0 0.106,-0.006 0.157,-0.019 C 0.238,0.845 0.284,0.826 0.323,0.801 L 0.263,0.652 C 0.223,0.675 0.184,0.692 0.144,0.703 0.104,0.713 0.066,0.719 0.028,0.719 -0.01,0.719 -0.041,0.714 -0.065,0.706 -0.09,0.697 -0.107,0.685 -0.117,0.671 -0.128,0.657 -0.133,0.641 -0.133,0.622 -0.133,0.6 -0.124,0.583 -0.107,0.569 -0.089,0.556 -0.065,0.545 -0.036,0.537 -0.007,0.529 0.025,0.521 0.06,0.513 0.095,0.505 0.13,0.496 0.165,0.485 0.2,0.475 0.232,0.461 0.261,0.443 0.29,0.425 0.314,0.402 0.332,0.373 0.35,0.344 0.359,0.307 0.359,0.263 0.359,0.215 0.346,0.171 0.32,0.132 0.293,0.092 0.253,0.061 0.2,0.036 0.147,0.012 0.081,0 0,0"
         style="fill:#223062;fill-opacity:1;fill-rule:nonzero;stroke:none"
         transform="matrix(1.3333333,0,0,-1.3333333,21.373733,12.286533)"
         clip-path="url(#clipPath131)" />
      <path
         id="path132"
         d="m 16.704,16.349 h 0.408 v -0.152 h -0.408 z m -0.18,-0.506 v 0.847 h 0.64 V 16.533 H 16.719 V 16 h 0.461 v -0.157 z"
         style="fill:#223062;fill-opacity:1;fill-rule:nonzero;stroke:none"
         transform="matrix(1.3333333,0,0,-1.3333333,0,33.390667)"
         clip-path="url(#clipPath133)" />
      <path
         id="path134"
         d="m 0,0 h 0.179 c 0.057,0 0.106,0.011 0.147,0.032 0.042,0.021 0.074,0.052 0.097,0.091 0.023,0.04 0.034,0.086 0.034,0.14 0,0.054 -0.011,0.1 -0.034,0.139 C 0.4,0.442 0.368,0.472 0.326,0.493 0.285,0.515 0.236,0.525 0.179,0.525 H 0 Z M -0.196,-0.161 V 0.686 H 0.189 C 0.281,0.686 0.362,0.669 0.432,0.634 0.502,0.598 0.557,0.549 0.597,0.487 0.636,0.424 0.656,0.349 0.656,0.263 0.656,0.177 0.636,0.103 0.597,0.039 0.557,-0.024 0.502,-0.073 0.432,-0.108 0.362,-0.143 0.281,-0.161 0.189,-0.161 Z"
         style="fill:#223062;fill-opacity:1;fill-rule:nonzero;stroke:none"
         transform="matrix(1.3333333,0,0,-1.3333333,23.3764,12.052533)"
         clip-path="url(#clipPath135)" />
      <path
         id="path136"
         d="M 4.585,14.969 H 5.151 V 12.522 H 4.585 Z"
         style="fill:#223062;fill-opacity:1;fill-rule:nonzero;stroke:none"
         transform="matrix(1.3333333,0,0,-1.3333333,0,33.390667)"
         clip-path="url(#clipPath137)" />
      <path
         id="path138"
         d="m 0,0 c -0.196,0 -0.383,0.026 -0.563,0.079 -0.179,0.052 -0.324,0.12 -0.433,0.204 l 0.192,0.427 c 0.105,-0.075 0.229,-0.136 0.372,-0.184 0.144,-0.048 0.289,-0.071 0.435,-0.071 0.112,0 0.203,0.011 0.271,0.033 C 0.343,0.51 0.394,0.541 0.427,0.58 0.459,0.62 0.476,0.665 0.476,0.717 0.476,0.782 0.45,0.834 0.399,0.872 0.347,0.911 0.28,0.942 0.196,0.967 0.112,0.991 0.019,1.015 -0.082,1.037 -0.184,1.059 -0.285,1.086 -0.386,1.119 -0.488,1.151 -0.58,1.193 -0.664,1.245 c -0.084,0.051 -0.152,0.119 -0.205,0.203 -0.052,0.083 -0.079,0.191 -0.079,0.321 0,0.14 0.038,0.268 0.114,0.383 0.076,0.115 0.19,0.207 0.343,0.276 0.152,0.069 0.344,0.103 0.575,0.103 0.154,0 0.305,-0.018 0.454,-0.054 0.15,-0.036 0.281,-0.09 0.396,-0.162 L 0.759,1.885 C 0.645,1.95 0.53,1.998 0.416,2.03 0.302,2.061 0.19,2.077 0.08,2.077 -0.029,2.077 -0.119,2.064 -0.189,2.038 -0.259,2.013 -0.309,1.98 -0.339,1.939 -0.369,1.898 -0.385,1.851 -0.385,1.797 -0.385,1.734 -0.359,1.684 -0.308,1.645 -0.256,1.607 -0.189,1.576 -0.105,1.552 -0.021,1.529 0.072,1.506 0.173,1.482 0.274,1.459 0.376,1.432 0.477,1.402 0.579,1.372 0.671,1.331 0.755,1.28 0.839,1.228 0.907,1.161 0.96,1.077 1.012,0.993 1.038,0.887 1.038,0.759 1.038,0.621 1,0.495 0.923,0.381 0.846,0.267 0.731,0.175 0.579,0.105 0.426,0.035 0.233,0 0,0"
         style="fill:#223062;fill-opacity:1;fill-rule:nonzero;stroke:none"
         transform="matrix(1.3333333,0,0,-1.3333333,8.7142667,16.751333)"
         clip-path="url(#clipPath139)" />
      <path
         id="path140"
         d="M 0,0 C 0.11,0 0.21,0.019 0.302,0.056 0.395,0.093 0.476,0.147 0.545,0.217 0.615,0.287 0.67,0.369 0.708,0.465 0.747,0.561 0.766,0.667 0.766,0.783 0.766,0.9 0.747,1.006 0.708,1.101 0.67,1.197 0.616,1.28 0.547,1.35 0.478,1.42 0.397,1.473 0.304,1.51 0.211,1.548 0.11,1.566 0,1.566 -0.11,1.566 -0.21,1.548 -0.302,1.51 -0.395,1.473 -0.476,1.42 -0.545,1.35 -0.615,1.28 -0.67,1.197 -0.708,1.101 -0.746,1.006 -0.766,0.9 -0.766,0.783 c 0,-0.114 0.02,-0.22 0.058,-0.316 0.038,-0.097 0.092,-0.18 0.161,-0.25 0.069,-0.07 0.15,-0.124 0.243,-0.161 C -0.211,0.019 -0.11,0 0,0 m 0.004,-0.483 c -0.194,0 -0.373,0.032 -0.537,0.095 -0.165,0.063 -0.307,0.151 -0.427,0.266 -0.12,0.114 -0.213,0.248 -0.279,0.402 -0.067,0.154 -0.1,0.321 -0.1,0.503 0,0.182 0.033,0.35 0.1,0.504 0.066,0.154 0.16,0.288 0.281,0.402 0.121,0.114 0.263,0.203 0.427,0.265 0.163,0.063 0.34,0.095 0.531,0.095 0.193,0 0.371,-0.032 0.533,-0.095 C 0.695,1.892 0.836,1.803 0.956,1.689 1.076,1.575 1.17,1.441 1.238,1.288 1.305,1.136 1.339,0.967 1.339,0.783 1.339,0.601 1.305,0.433 1.238,0.278 1.17,0.123 1.076,-0.011 0.956,-0.124 0.836,-0.237 0.695,-0.325 0.533,-0.388 0.371,-0.451 0.195,-0.483 0.004,-0.483"
         style="fill:#223062;fill-opacity:1;fill-rule:nonzero;stroke:none"
         transform="matrix(1.3333333,0,0,-1.3333333,12.196667,16.107867)"
         clip-path="url(#clipPath141)" />
      <path
         id="path142"
         d="M 0,0 V 2.238 L 0.245,1.993 H -0.489 V 2.447 H 0.566 V 0 Z"
         style="fill:#223062;fill-opacity:1;fill-rule:nonzero;stroke:none"
         transform="matrix(1.3333333,0,0,-1.3333333,16.168533,16.695333)"
         clip-path="url(#clipPath143)" />
      <path
         id="path144"
         d="M 0,0 V 0.367 L 0.944,1.259 C 1.019,1.326 1.073,1.387 1.108,1.441 1.143,1.494 1.167,1.543 1.18,1.587 1.193,1.632 1.199,1.672 1.199,1.71 1.199,1.808 1.166,1.883 1.1,1.935 1.033,1.988 0.936,2.014 0.808,2.014 0.705,2.014 0.61,1.994 0.523,1.954 0.435,1.915 0.361,1.853 0.301,1.769 L -0.112,2.035 C -0.019,2.175 0.112,2.285 0.28,2.367 0.448,2.449 0.641,2.489 0.86,2.489 1.042,2.489 1.201,2.46 1.337,2.4 1.474,2.341 1.58,2.257 1.656,2.15 1.731,2.043 1.769,1.915 1.769,1.766 1.769,1.686 1.759,1.608 1.739,1.53 1.72,1.452 1.68,1.369 1.621,1.283 1.561,1.197 1.474,1.1 1.36,0.993 L 0.577,0.255 0.469,0.462 H 1.85 V 0 Z"
         style="fill:#223062;fill-opacity:1;fill-rule:nonzero;stroke:none"
         transform="matrix(1.3333333,0,0,-1.3333333,17.464533,16.695333)"
         clip-path="url(#clipPath145)" />
      <path
         id="path146"
         d="M 0,0 V 0.367 L 0.944,1.259 C 1.019,1.326 1.073,1.387 1.108,1.441 1.143,1.494 1.167,1.543 1.18,1.587 1.193,1.632 1.199,1.672 1.199,1.71 1.199,1.808 1.166,1.883 1.1,1.935 1.033,1.988 0.936,2.014 0.808,2.014 0.705,2.014 0.61,1.994 0.523,1.954 0.435,1.915 0.361,1.853 0.301,1.769 L -0.112,2.035 C -0.019,2.175 0.112,2.285 0.28,2.367 0.448,2.449 0.641,2.489 0.86,2.489 1.042,2.489 1.201,2.46 1.337,2.4 1.474,2.341 1.58,2.257 1.656,2.15 1.731,2.043 1.769,1.915 1.769,1.766 1.769,1.686 1.759,1.608 1.739,1.53 1.72,1.452 1.68,1.369 1.621,1.283 1.561,1.197 1.474,1.1 1.36,0.993 L 0.577,0.255 0.469,0.462 H 1.85 V 0 Z"
         style="fill:#223062;fill-opacity:1;fill-rule:nonzero;stroke:none"
         transform="matrix(1.3333333,0,0,-1.3333333,20.214933,16.695333)"
         clip-path="url(#clipPath147)" />
      <path
         id="path148"
         d="M 0,0 C 0.082,0 0.154,0.016 0.219,0.047 0.283,0.079 0.332,0.122 0.367,0.178 0.402,0.234 0.42,0.297 0.42,0.367 0.42,0.437 0.403,0.499 0.369,0.554 0.335,0.609 0.287,0.652 0.224,0.684 0.161,0.715 0.084,0.731 -0.007,0.731 -0.089,0.731 -0.16,0.716 -0.22,0.687 -0.281,0.658 -0.329,0.616 -0.364,0.561 -0.399,0.506 -0.416,0.442 -0.416,0.367 -0.416,0.255 -0.378,0.166 -0.302,0.1 -0.227,0.033 -0.126,0 0,0 m -0.196,-1.378 c -0.128,0 -0.252,0.014 -0.37,0.042 -0.119,0.028 -0.222,0.07 -0.308,0.126 l 0.21,0.416 c 0.067,-0.046 0.14,-0.078 0.216,-0.096 0.077,-0.017 0.158,-0.026 0.242,-0.026 0.209,0 0.377,0.064 0.501,0.192 0.125,0.128 0.187,0.318 0.187,0.57 0,0.042 -0.001,0.089 -0.003,0.14 C 0.477,0.037 0.471,0.089 0.462,0.14 L 0.615,-0.007 C 0.576,-0.098 0.52,-0.174 0.448,-0.236 0.375,-0.298 0.291,-0.344 0.196,-0.376 0.1,-0.407 -0.007,-0.423 -0.126,-0.423 c -0.156,0 -0.298,0.031 -0.425,0.094 -0.127,0.063 -0.228,0.152 -0.304,0.266 -0.076,0.114 -0.114,0.248 -0.114,0.402 0,0.168 0.042,0.312 0.125,0.434 0.082,0.121 0.194,0.215 0.335,0.281 0.141,0.067 0.297,0.1 0.467,0.1 0.226,0 0.421,-0.047 0.584,-0.14 C 0.705,0.921 0.831,0.785 0.92,0.607 1.008,0.428 1.052,0.206 1.052,-0.059 1.052,-0.341 0.999,-0.58 0.893,-0.776 0.787,-0.972 0.641,-1.121 0.455,-1.224 0.268,-1.326 0.051,-1.378 -0.196,-1.378"
         style="fill:#223062;fill-opacity:1;fill-rule:nonzero;stroke:none"
         transform="matrix(1.3333333,0,0,-1.3333333,24.196267,14.914533)"
         clip-path="url(#clipPath149)" />
      <path
         id="path150"
         d="M 0,0 V 2.238 L 0.245,1.993 H -0.49 V 2.447 H 0.566 L 0.566,0 Z"
         style="fill:#223062;fill-opacity:1;fill-rule:nonzero;stroke:none"
         transform="matrix(1.3333333,0,0,-1.3333333,26.447867,16.695333)"
         clip-path="url(#clipPath151)" />
      <path
         id="path152"
         d="m 20.874,13.724 h 0.989 v -0.437 h -0.989 z"
         style="fill:#223062;fill-opacity:1;fill-rule:nonzero;stroke:none"
         transform="matrix(1.3333333,0,0,-1.3333333,0,33.390667)"
         clip-path="url(#clipPath153)" />
      <path
         id="path154"
         d="m 0,0 c -0.17,0 -0.339,0.023 -0.507,0.068 -0.168,0.046 -0.31,0.11 -0.427,0.194 l 0.221,0.434 c 0.093,-0.068 0.201,-0.121 0.325,-0.161 0.123,-0.04 0.248,-0.059 0.374,-0.059 0.142,0 0.254,0.028 0.336,0.083 0.081,0.056 0.122,0.133 0.122,0.231 0,0.093 -0.036,0.167 -0.108,0.22 -0.073,0.054 -0.189,0.081 -0.35,0.081 H -0.273 V 1.465 L 0.409,2.238 0.472,2.035 H -0.811 V 2.489 H 0.902 V 2.122 L 0.224,1.35 -0.063,1.514 H 0.101 C 0.402,1.514 0.629,1.446 0.783,1.311 0.937,1.176 1.014,1.002 1.014,0.79 1.014,0.653 0.978,0.524 0.906,0.404 0.833,0.284 0.723,0.186 0.573,0.112 0.424,0.037 0.233,0 0,0"
         style="fill:#223062;fill-opacity:1;fill-rule:nonzero;stroke:none"
         transform="matrix(1.3333333,0,0,-1.3333333,30.5364,16.751333)"
         clip-path="url(#clipPath155)" />
      <path
         id="path156"
         d="m 0,0 h 19.89 c 0.312,0.897 0.507,1.85 0.565,2.839 H -0.565 C -0.507,1.85 -0.312,0.897 0,0"
         style="fill:#223062;fill-opacity:1;fill-rule:nonzero;stroke:none"
         transform="matrix(1.3333333,0,0,-1.3333333,5.6312,21.313333)"
         clip-path="url(#clipPath157)" />
      <path
         id="path158"
         d="M 0,0 V 0.911 H -0.359 V 1.123 H 0.619 V 0.911 H 0.26 V 0 Z"
         style="fill:#ffffff;fill-opacity:1;fill-rule:nonzero;stroke:none"
         transform="matrix(1.3333333,0,0,-1.3333333,10.999467,20.121333)"
         clip-path="url(#clipPath159)" />
      <path
         id="path160"
         d="m 0,0 -0.485,1.123 h 0.281 L 0.22,0.128 H 0.055 l 0.43,0.995 H 0.743 L 0.257,0 Z"
         style="fill:#ffffff;fill-opacity:1;fill-rule:nonzero;stroke:none"
         transform="matrix(1.3333333,0,0,-1.3333333,12.4328,20.121333)"
         clip-path="url(#clipPath161)" />
      <path
         id="path162"
         d="M 0,0 C 0.05,0 0.097,0.009 0.139,0.026 0.181,0.043 0.218,0.067 0.25,0.099 0.282,0.132 0.307,0.17 0.325,0.213 0.343,0.257 0.351,0.306 0.351,0.359 0.351,0.413 0.343,0.462 0.325,0.505 0.307,0.549 0.283,0.587 0.251,0.619 0.22,0.651 0.182,0.676 0.14,0.693 0.097,0.71 0.05,0.719 0,0.719 -0.05,0.719 -0.097,0.71 -0.139,0.693 -0.181,0.676 -0.218,0.651 -0.25,0.619 -0.282,0.587 -0.307,0.549 -0.325,0.505 -0.343,0.462 -0.351,0.413 -0.351,0.359 c 0,-0.052 0.008,-0.1 0.026,-0.145 C -0.307,0.17 -0.283,0.132 -0.251,0.099 -0.22,0.067 -0.182,0.043 -0.14,0.026 -0.097,0.009 -0.05,0 0,0 m 0.002,-0.221 c -0.089,0 -0.171,0.014 -0.247,0.043 -0.075,0.029 -0.14,0.069 -0.195,0.122 -0.056,0.052 -0.098,0.114 -0.129,0.184 -0.03,0.071 -0.046,0.148 -0.046,0.231 0,0.084 0.016,0.161 0.046,0.231 0.031,0.071 0.074,0.133 0.129,0.185 0.056,0.052 0.121,0.093 0.196,0.122 C -0.169,0.926 -0.088,0.94 0,0.94 0.089,0.94 0.17,0.926 0.245,0.897 0.319,0.868 0.384,0.827 0.439,0.775 0.494,0.723 0.537,0.661 0.568,0.591 0.599,0.521 0.615,0.444 0.615,0.359 0.615,0.276 0.599,0.199 0.568,0.128 0.537,0.056 0.494,-0.005 0.439,-0.057 0.384,-0.109 0.319,-0.149 0.245,-0.178 0.17,-0.207 0.089,-0.221 0.002,-0.221"
         style="fill:#ffffff;fill-opacity:1;fill-rule:nonzero;stroke:none"
         transform="matrix(1.3333333,0,0,-1.3333333,14.2556,19.851733)"
         clip-path="url(#clipPath163)" />
      <path
         id="path164"
         d="m 0,0 c -0.087,0 -0.167,0.014 -0.242,0.043 -0.074,0.028 -0.138,0.068 -0.193,0.121 -0.054,0.052 -0.097,0.114 -0.127,0.184 -0.031,0.071 -0.046,0.148 -0.046,0.233 0,0.084 0.015,0.162 0.046,0.233 0.03,0.07 0.073,0.132 0.128,0.184 0.055,0.052 0.12,0.093 0.193,0.121 0.074,0.028 0.155,0.043 0.243,0.043 0.097,0 0.185,-0.017 0.264,-0.051 C 0.344,1.077 0.41,1.028 0.464,0.963 L 0.297,0.809 C 0.258,0.853 0.216,0.885 0.168,0.907 0.121,0.929 0.07,0.94 0.014,0.94 -0.038,0.94 -0.086,0.932 -0.13,0.915 -0.174,0.897 -0.212,0.873 -0.244,0.841 -0.276,0.809 -0.301,0.771 -0.319,0.727 -0.336,0.683 -0.345,0.634 -0.345,0.581 c 0,-0.054 0.009,-0.102 0.026,-0.146 0.018,-0.044 0.043,-0.082 0.075,-0.114 0.032,-0.032 0.07,-0.057 0.114,-0.074 0.044,-0.017 0.092,-0.026 0.144,-0.026 0.056,0 0.107,0.011 0.154,0.033 0.048,0.022 0.09,0.056 0.129,0.101 L 0.464,0.201 C 0.41,0.135 0.344,0.086 0.266,0.051 0.187,0.017 0.098,0 0,0"
         style="fill:#ffffff;fill-opacity:1;fill-rule:nonzero;stroke:none"
         transform="matrix(1.3333333,0,0,-1.3333333,16.052667,20.146933)"
         clip-path="url(#clipPath165)" />
      <path
         id="path166"
         d="M 0,0 C -0.09,0 -0.176,0.012 -0.258,0.036 -0.341,0.06 -0.407,0.091 -0.457,0.13 l 0.088,0.196 c 0.048,-0.035 0.105,-0.063 0.171,-0.085 0.066,-0.021 0.132,-0.032 0.2,-0.032 0.051,0 0.092,0.005 0.124,0.015 0.031,0.01 0.055,0.024 0.07,0.042 0.015,0.019 0.022,0.039 0.022,0.063 0,0.03 -0.012,0.054 -0.035,0.071 C 0.159,0.418 0.128,0.432 0.09,0.444 0.051,0.455 0.009,0.466 -0.038,0.476 c -0.046,0.01 -0.093,0.022 -0.139,0.037 -0.047,0.015 -0.089,0.035 -0.128,0.058 -0.038,0.024 -0.07,0.055 -0.094,0.093 -0.024,0.039 -0.036,0.088 -0.036,0.148 0,0.064 0.018,0.123 0.052,0.176 0.035,0.053 0.087,0.095 0.158,0.126 0.07,0.032 0.158,0.048 0.264,0.048 0.07,0 0.14,-0.009 0.208,-0.025 C 0.316,1.12 0.376,1.095 0.428,1.062 L 0.348,0.865 C 0.296,0.895 0.243,0.917 0.191,0.931 0.139,0.946 0.087,0.953 0.037,0.953 -0.013,0.953 -0.055,0.947 -0.087,0.935 -0.119,0.924 -0.142,0.908 -0.156,0.89 -0.17,0.871 -0.176,0.849 -0.176,0.825 c 0,-0.029 0.011,-0.052 0.035,-0.07 C -0.118,0.737 -0.087,0.723 -0.048,0.712 -0.01,0.702 0.033,0.691 0.079,0.68 0.126,0.67 0.172,0.657 0.219,0.643 0.266,0.63 0.308,0.611 0.347,0.587 0.385,0.564 0.416,0.533 0.44,0.494 0.465,0.456 0.477,0.407 0.477,0.348 0.477,0.285 0.459,0.227 0.424,0.175 0.388,0.122 0.336,0.08 0.266,0.048 0.195,0.016 0.107,0 0,0"
         style="fill:#ffffff;fill-opacity:1;fill-rule:nonzero;stroke:none"
         transform="matrix(1.3333333,0,0,-1.3333333,17.9824,20.146933)"
         clip-path="url(#clipPath167)" />
      <path
         id="path168"
         d="M 0,0 0.069,0.197 H 0.647 L 0.717,0 Z m -0.25,-0.241 0.5,1.123 H 0.507 L 1.009,-0.241 H 0.736 L 0.326,0.751 H 0.428 L 0.016,-0.241 Z"
         style="fill:#ffffff;fill-opacity:1;fill-rule:nonzero;stroke:none"
         transform="matrix(1.3333333,0,0,-1.3333333,18.992133,19.8004)"
         clip-path="url(#clipPath169)" />
      <path
         id="path170"
         d="M 15.611,10.57 H 16.15 V 10.361 H 15.611 Z M 15.37,9.952 v 1.123 h 0.849 V 10.867 H 15.63 V 9.952 Z"
         style="fill:#ffffff;fill-opacity:1;fill-rule:nonzero;stroke:none"
         transform="matrix(1.3333333,0,0,-1.3333333,0,33.390667)"
         clip-path="url(#clipPath171)" />
      <path
         id="path172"
         d="m 16.635,10.623 h 0.541 V 10.421 H 16.635 Z M 16.396,9.952 v 1.123 h 0.849 v -0.208 h -0.591 v -0.706 h 0.611 V 9.952 Z"
         style="fill:#ffffff;fill-opacity:1;fill-rule:nonzero;stroke:none"
         transform="matrix(1.3333333,0,0,-1.3333333,0,33.390667)"
         clip-path="url(#clipPath173)" />
      <path
         id="path174"
         d="M 0,0 V 0.911 H -0.359 V 1.123 H 0.619 V 0.911 H 0.26 V 0 Z"
         style="fill:#ffffff;fill-opacity:1;fill-rule:nonzero;stroke:none"
         transform="matrix(1.3333333,0,0,-1.3333333,23.6068,20.121333)"
         clip-path="url(#clipPath175)" />
      <path
         id="path176"
         d="M 0,0 V 0.459 L 0.059,0.302 -0.435,1.123 h 0.276 L 0.22,0.493 H 0.061 l 0.38,0.63 H 0.696 L 0.202,0.302 0.26,0.459 V 0 Z"
         style="fill:#ffffff;fill-opacity:1;fill-rule:nonzero;stroke:none"
         transform="matrix(1.3333333,0,0,-1.3333333,24.9632,20.121333)"
         clip-path="url(#clipPath177)" />
      <path
         id="path178"
         d="M 0,0 V 0.911 H -0.359 V 1.123 H 0.619 V 0.911 H 0.26 V 0 Z"
         style="fill:#ffffff;fill-opacity:1;fill-rule:nonzero;stroke:none"
         transform="matrix(1.3333333,0,0,-1.3333333,26.9528,20.121333)"
         clip-path="url(#clipPath179)" />
      <path
         id="path180"
         d="m 21.213,10.623 h 0.541 V 10.421 H 21.213 Z M 20.974,9.952 v 1.123 h 0.848 v -0.208 h -0.59 v -0.706 h 0.611 V 9.952 Z"
         style="fill:#ffffff;fill-opacity:1;fill-rule:nonzero;stroke:none"
         transform="matrix(1.3333333,0,0,-1.3333333,0,33.390667)"
         clip-path="url(#clipPath181)" />
      <path
         id="path182"
         d="M 0,0 C -0.09,0 -0.176,0.012 -0.258,0.036 -0.341,0.06 -0.407,0.091 -0.457,0.13 l 0.088,0.196 c 0.048,-0.035 0.105,-0.063 0.171,-0.085 0.066,-0.021 0.132,-0.032 0.2,-0.032 0.051,0 0.092,0.005 0.124,0.015 0.032,0.01 0.055,0.024 0.07,0.042 0.015,0.019 0.022,0.039 0.022,0.063 0,0.03 -0.012,0.054 -0.035,0.071 C 0.159,0.418 0.128,0.432 0.09,0.444 0.051,0.455 0.009,0.466 -0.038,0.476 c -0.046,0.01 -0.093,0.022 -0.139,0.037 -0.047,0.015 -0.089,0.035 -0.128,0.058 -0.038,0.024 -0.07,0.055 -0.094,0.093 -0.024,0.039 -0.036,0.088 -0.036,0.148 0,0.064 0.018,0.123 0.052,0.176 0.035,0.053 0.087,0.095 0.158,0.126 0.07,0.032 0.158,0.048 0.263,0.048 0.071,0 0.141,-0.009 0.209,-0.025 C 0.316,1.12 0.376,1.095 0.428,1.062 L 0.348,0.865 C 0.296,0.895 0.243,0.917 0.191,0.931 0.139,0.946 0.087,0.953 0.037,0.953 -0.013,0.953 -0.055,0.947 -0.087,0.935 -0.119,0.924 -0.142,0.908 -0.156,0.89 -0.17,0.871 -0.177,0.849 -0.177,0.825 c 0,-0.029 0.012,-0.052 0.036,-0.07 C -0.118,0.737 -0.087,0.723 -0.048,0.712 -0.01,0.702 0.033,0.691 0.079,0.68 0.126,0.67 0.173,0.657 0.219,0.643 0.266,0.63 0.308,0.611 0.347,0.587 0.385,0.564 0.416,0.533 0.44,0.494 0.465,0.456 0.477,0.407 0.477,0.348 0.477,0.285 0.459,0.227 0.424,0.175 0.388,0.122 0.336,0.08 0.266,0.048 0.195,0.016 0.107,0 0,0"
         style="fill:#ffffff;fill-opacity:1;fill-rule:nonzero;stroke:none"
         transform="matrix(1.3333333,0,0,-1.3333333,29.892267,20.146933)"
         clip-path="url(#clipPath183)" />
      <path
         id="path184"
         d="M 0,0 V 0.911 H -0.359 V 1.123 H 0.619 V 0.911 H 0.26 V 0 Z"
         style="fill:#ffffff;fill-opacity:1;fill-rule:nonzero;stroke:none"
         transform="matrix(1.3333333,0,0,-1.3333333,31.054,20.121333)"
         clip-path="url(#clipPath185)" />
      <path
         id="path186"
         d="M 0,0 V 0.602 H 0.139 V 0.114 H 0.442 V 0 Z"
         style="fill:#518e31;fill-opacity:1;fill-rule:nonzero;stroke:none"
         transform="matrix(1.3333333,0,0,-1.3333333,12.532667,25.9976)"
         clip-path="url(#clipPath187)" />
      <path
         id="path188"
         d="m 0,0 c 0.027,0 0.052,0.005 0.074,0.014 0.023,0.009 0.043,0.022 0.06,0.039 0.017,0.018 0.031,0.038 0.04,0.061 0.01,0.024 0.014,0.05 0.014,0.079 0,0.028 -0.004,0.055 -0.014,0.078 C 0.165,0.295 0.152,0.315 0.135,0.332 0.118,0.349 0.098,0.363 0.075,0.372 0.052,0.381 0.027,0.386 0,0.386 -0.027,0.386 -0.052,0.381 -0.074,0.372 -0.097,0.363 -0.117,0.349 -0.134,0.332 -0.151,0.315 -0.165,0.295 -0.174,0.271 -0.184,0.248 -0.188,0.221 -0.188,0.193 c 0,-0.028 0.004,-0.054 0.014,-0.078 0.009,-0.024 0.022,-0.044 0.039,-0.062 0.017,-0.017 0.037,-0.03 0.06,-0.039 C -0.052,0.005 -0.027,0 0,0 m 0.001,-0.119 c -0.048,0 -0.092,0.008 -0.132,0.023 -0.041,0.016 -0.076,0.038 -0.105,0.066 -0.03,0.028 -0.053,0.061 -0.069,0.099 -0.016,0.038 -0.025,0.079 -0.025,0.124 0,0.045 0.009,0.086 0.025,0.124 0.016,0.038 0.039,0.071 0.069,0.099 0.03,0.028 0.065,0.05 0.105,0.065 0.04,0.016 0.084,0.023 0.131,0.023 0.048,0 0.091,-0.007 0.131,-0.023 C 0.171,0.466 0.206,0.444 0.235,0.416 0.265,0.388 0.288,0.355 0.305,0.317 0.321,0.28 0.33,0.238 0.33,0.193 0.33,0.148 0.321,0.107 0.305,0.068 0.288,0.03 0.265,-0.003 0.235,-0.031 0.206,-0.058 0.171,-0.08 0.131,-0.096 0.091,-0.111 0.048,-0.119 0.001,-0.119"
         style="fill:#518e31;fill-opacity:1;fill-rule:nonzero;stroke:none"
         transform="matrix(1.3333333,0,0,-1.3333333,13.600933,25.852933)"
         clip-path="url(#clipPath189)" />
      <path
         id="path190"
         d="m 0,0 -0.197,0.602 h 0.144 L 0.119,0.069 H 0.046 l 0.179,0.533 h 0.13 L 0.527,0.069 H 0.457 L 0.633,0.602 H 0.766 L 0.569,0 H 0.419 L 0.267,0.468 H 0.306 L 0.15,0 Z"
         style="fill:#518e31;fill-opacity:1;fill-rule:nonzero;stroke:none"
         transform="matrix(1.3333333,0,0,-1.3333333,14.346933,25.9976)"
         clip-path="url(#clipPath191)" />
      <path
         id="path192"
         d="M 0,0 V 0.489 H -0.193 V 0.602 H 0.332 V 0.489 H 0.139 V 0 Z"
         style="fill:#518e31;fill-opacity:1;fill-rule:nonzero;stroke:none"
         transform="matrix(1.3333333,0,0,-1.3333333,15.979867,25.9976)"
         clip-path="url(#clipPath193)" />
      <path
         id="path194"
         d="m 0,0 -0.26,0.602 h 0.151 L 0.118,0.069 H 0.029 L 0.26,0.602 H 0.398 L 0.138,0 Z"
         style="fill:#518e31;fill-opacity:1;fill-rule:nonzero;stroke:none"
         transform="matrix(1.3333333,0,0,-1.3333333,16.748667,25.9976)"
         clip-path="url(#clipPath195)" />
      <path
         id="path196"
         d="m 0,0 c 0.027,0 0.052,0.005 0.074,0.014 0.023,0.009 0.043,0.022 0.06,0.039 0.017,0.018 0.031,0.038 0.04,0.061 0.01,0.024 0.014,0.05 0.014,0.079 0,0.028 -0.004,0.055 -0.014,0.078 C 0.165,0.295 0.152,0.315 0.135,0.332 0.118,0.349 0.098,0.363 0.075,0.372 0.052,0.381 0.027,0.386 0,0.386 -0.027,0.386 -0.052,0.381 -0.074,0.372 -0.097,0.363 -0.117,0.349 -0.134,0.332 -0.151,0.315 -0.165,0.295 -0.174,0.271 -0.184,0.248 -0.188,0.221 -0.188,0.193 c 0,-0.028 0.004,-0.054 0.014,-0.078 0.009,-0.024 0.022,-0.044 0.039,-0.062 0.017,-0.017 0.037,-0.03 0.06,-0.039 C -0.052,0.005 -0.027,0 0,0 m 0.001,-0.119 c -0.048,0 -0.092,0.008 -0.132,0.023 -0.041,0.016 -0.076,0.038 -0.105,0.066 -0.03,0.028 -0.053,0.061 -0.069,0.099 -0.016,0.038 -0.025,0.079 -0.025,0.124 0,0.045 0.009,0.086 0.025,0.124 0.016,0.038 0.039,0.071 0.069,0.099 0.03,0.028 0.065,0.05 0.105,0.065 0.04,0.016 0.084,0.023 0.131,0.023 0.048,0 0.091,-0.007 0.131,-0.023 C 0.171,0.466 0.206,0.444 0.235,0.416 0.265,0.388 0.288,0.355 0.305,0.317 0.321,0.28 0.33,0.238 0.33,0.193 0.33,0.148 0.321,0.107 0.305,0.068 0.288,0.03 0.265,-0.003 0.235,-0.031 0.206,-0.058 0.171,-0.08 0.131,-0.096 0.091,-0.111 0.048,-0.119 0.001,-0.119"
         style="fill:#518e31;fill-opacity:1;fill-rule:nonzero;stroke:none"
         transform="matrix(1.3333333,0,0,-1.3333333,17.7264,25.852933)"
         clip-path="url(#clipPath197)" />
      <path
         id="path198"
         d="m 0,0 c -0.046,0 -0.09,0.008 -0.13,0.023 -0.039,0.015 -0.074,0.037 -0.103,0.065 -0.029,0.028 -0.052,0.061 -0.069,0.099 -0.016,0.038 -0.024,0.079 -0.024,0.125 0,0.045 0.008,0.086 0.024,0.124 0.017,0.038 0.04,0.071 0.069,0.099 0.03,0.028 0.064,0.05 0.104,0.065 0.039,0.015 0.083,0.023 0.13,0.023 C 0.053,0.623 0.1,0.614 0.142,0.596 0.185,0.578 0.22,0.551 0.249,0.516 L 0.159,0.434 C 0.139,0.457 0.116,0.475 0.09,0.487 0.065,0.498 0.038,0.504 0.008,0.504 -0.02,0.504 -0.046,0.5 -0.07,0.491 -0.093,0.481 -0.114,0.468 -0.131,0.451 -0.148,0.434 -0.161,0.413 -0.171,0.39 -0.18,0.366 -0.185,0.34 -0.185,0.312 c 0,-0.029 0.005,-0.055 0.014,-0.079 0.01,-0.023 0.023,-0.044 0.04,-0.061 0.017,-0.017 0.038,-0.03 0.061,-0.039 0.024,-0.01 0.05,-0.014 0.078,-0.014 0.03,0 0.057,0.006 0.082,0.017 0.026,0.012 0.049,0.03 0.069,0.054 L 0.249,0.108 C 0.22,0.073 0.185,0.046 0.142,0.028 0.1,0.009 0.053,0 0,0"
         style="fill:#518e31;fill-opacity:1;fill-rule:nonzero;stroke:none"
         transform="matrix(1.3333333,0,0,-1.3333333,18.690267,26.011333)"
         clip-path="url(#clipPath199)" />
      <path
         id="path200"
         d="m 14.724,5.905 h 0.29 V 5.797 h -0.29 z m -0.128,-0.36 v 0.602 h 0.455 V 6.035 H 14.735 V 5.657 h 0.328 V 5.545 Z"
         style="fill:#518e31;fill-opacity:1;fill-rule:nonzero;stroke:none"
         transform="matrix(1.3333333,0,0,-1.3333333,0,33.390667)"
         clip-path="url(#clipPath201)" />
      <path
         id="path202"
         d="M 0,0 V 0.602 H 0.115 L 0.372,0.177 H 0.311 L 0.563,0.602 H 0.677 L 0.679,0 H 0.548 L 0.547,0.402 H 0.571 L 0.37,0.064 H 0.307 L 0.102,0.402 H 0.131 L 0.131,0 Z"
         style="fill:#518e31;fill-opacity:1;fill-rule:nonzero;stroke:none"
         transform="matrix(1.3333333,0,0,-1.3333333,20.231467,25.9976)"
         clip-path="url(#clipPath203)" />
      <path
         id="path204"
         d="m 15.995,6.147 h 0.139 V 5.545 h -0.139 z"
         style="fill:#518e31;fill-opacity:1;fill-rule:nonzero;stroke:none"
         transform="matrix(1.3333333,0,0,-1.3333333,0,33.390667)"
         clip-path="url(#clipPath205)" />
      <path
         id="path206"
         d="m 0,0 c -0.048,0 -0.094,0.006 -0.139,0.019 -0.044,0.013 -0.079,0.03 -0.106,0.051 l 0.047,0.105 c 0.026,-0.019 0.056,-0.034 0.092,-0.045 0.035,-0.012 0.071,-0.018 0.107,-0.018 0.027,0 0.05,0.003 0.067,0.008 0.016,0.005 0.029,0.013 0.037,0.023 0.008,0.01 0.012,0.021 0.012,0.033 0,0.016 -0.006,0.029 -0.019,0.039 C 0.085,0.224 0.069,0.232 0.048,0.238 0.028,0.244 0.005,0.25 -0.02,0.255 c -0.025,0.006 -0.05,0.012 -0.075,0.02 -0.025,0.008 -0.048,0.019 -0.069,0.031 -0.02,0.013 -0.037,0.03 -0.05,0.05 -0.013,0.021 -0.019,0.047 -0.019,0.079 0,0.035 0.009,0.066 0.028,0.095 0.018,0.028 0.046,0.051 0.084,0.068 0.038,0.017 0.085,0.025 0.142,0.025 0.038,0 0.075,-0.004 0.112,-0.013 C 0.169,0.601 0.202,0.588 0.23,0.57 L 0.187,0.464 C 0.159,0.48 0.131,0.492 0.102,0.5 0.074,0.507 0.047,0.511 0.02,0.511 -0.007,0.511 -0.029,0.508 -0.046,0.502 -0.064,0.495 -0.076,0.487 -0.083,0.477 -0.091,0.467 -0.095,0.456 -0.095,0.442 c 0,-0.015 0.007,-0.028 0.019,-0.037 0.013,-0.01 0.03,-0.017 0.05,-0.023 C -0.005,0.376 0.018,0.371 0.043,0.365 0.068,0.359 0.093,0.353 0.117,0.345 0.142,0.338 0.165,0.328 0.186,0.315 0.207,0.302 0.223,0.286 0.236,0.265 0.249,0.244 0.256,0.218 0.256,0.187 0.256,0.153 0.246,0.122 0.227,0.094 0.208,0.066 0.18,0.043 0.142,0.026 0.105,0.009 0.057,0 0,0"
         style="fill:#518e31;fill-opacity:1;fill-rule:nonzero;stroke:none"
         transform="matrix(1.3333333,0,0,-1.3333333,21.9676,26.011333)"
         clip-path="url(#clipPath207)" />
      <path
         id="path208"
         d="m 0,0 c -0.048,0 -0.094,0.006 -0.139,0.019 -0.044,0.013 -0.079,0.03 -0.106,0.051 l 0.047,0.105 c 0.026,-0.019 0.056,-0.034 0.092,-0.045 0.035,-0.012 0.071,-0.018 0.107,-0.018 0.027,0 0.05,0.003 0.067,0.008 0.016,0.005 0.029,0.013 0.037,0.023 0.008,0.01 0.012,0.021 0.012,0.033 0,0.016 -0.006,0.029 -0.019,0.039 C 0.085,0.224 0.069,0.232 0.048,0.238 0.028,0.244 0.005,0.25 -0.02,0.255 c -0.025,0.006 -0.05,0.012 -0.075,0.02 -0.025,0.008 -0.048,0.019 -0.069,0.031 -0.02,0.013 -0.037,0.03 -0.05,0.05 -0.013,0.021 -0.019,0.047 -0.019,0.079 0,0.035 0.009,0.066 0.028,0.095 0.018,0.028 0.046,0.051 0.084,0.068 0.038,0.017 0.085,0.025 0.142,0.025 0.038,0 0.075,-0.004 0.112,-0.013 C 0.169,0.601 0.202,0.588 0.23,0.57 L 0.187,0.464 C 0.159,0.48 0.131,0.492 0.102,0.5 0.074,0.507 0.047,0.511 0.02,0.511 -0.007,0.511 -0.029,0.508 -0.046,0.502 -0.064,0.495 -0.076,0.487 -0.083,0.477 -0.091,0.467 -0.095,0.456 -0.095,0.442 c 0,-0.015 0.007,-0.028 0.019,-0.037 0.013,-0.01 0.03,-0.017 0.05,-0.023 C -0.005,0.376 0.018,0.371 0.043,0.365 0.068,0.359 0.092,0.353 0.117,0.345 0.142,0.338 0.165,0.328 0.186,0.315 0.207,0.302 0.223,0.286 0.236,0.265 0.249,0.244 0.256,0.218 0.256,0.187 0.256,0.153 0.246,0.122 0.227,0.094 0.208,0.066 0.18,0.043 0.142,0.026 0.105,0.009 0.057,0 0,0"
         style="fill:#518e31;fill-opacity:1;fill-rule:nonzero;stroke:none"
         transform="matrix(1.3333333,0,0,-1.3333333,22.699733,26.011333)"
         clip-path="url(#clipPath209)" />
      <path
         id="path210"
         d="m 17.376,6.147 h 0.139 V 5.545 h -0.139 z"
         style="fill:#518e31;fill-opacity:1;fill-rule:nonzero;stroke:none"
         transform="matrix(1.3333333,0,0,-1.3333333,0,33.390667)"
         clip-path="url(#clipPath211)" />
      <path
         id="path212"
         d="m 0,0 c 0.027,0 0.052,0.005 0.074,0.014 0.023,0.009 0.043,0.022 0.06,0.039 0.018,0.018 0.031,0.038 0.04,0.061 0.01,0.024 0.014,0.05 0.014,0.079 0,0.028 -0.004,0.055 -0.014,0.078 C 0.165,0.295 0.152,0.315 0.135,0.332 0.118,0.349 0.098,0.363 0.075,0.372 0.052,0.381 0.027,0.386 0,0.386 -0.027,0.386 -0.052,0.381 -0.074,0.372 -0.097,0.363 -0.117,0.349 -0.134,0.332 -0.151,0.315 -0.165,0.295 -0.174,0.271 -0.184,0.248 -0.188,0.221 -0.188,0.193 c 0,-0.028 0.004,-0.054 0.014,-0.078 0.009,-0.024 0.022,-0.044 0.039,-0.062 0.017,-0.017 0.037,-0.03 0.06,-0.039 C -0.052,0.005 -0.027,0 0,0 m 0.001,-0.119 c -0.048,0 -0.092,0.008 -0.132,0.023 -0.041,0.016 -0.076,0.038 -0.105,0.066 -0.03,0.028 -0.053,0.061 -0.069,0.099 -0.016,0.038 -0.025,0.079 -0.025,0.124 0,0.045 0.009,0.086 0.025,0.124 0.016,0.038 0.039,0.071 0.069,0.099 0.03,0.028 0.065,0.05 0.105,0.065 0.04,0.016 0.084,0.023 0.131,0.023 0.048,0 0.091,-0.007 0.131,-0.023 C 0.171,0.466 0.206,0.444 0.235,0.416 0.265,0.388 0.288,0.355 0.305,0.317 0.321,0.28 0.33,0.238 0.33,0.193 0.33,0.148 0.321,0.107 0.305,0.068 0.288,0.03 0.265,-0.003 0.235,-0.031 0.206,-0.058 0.171,-0.08 0.131,-0.096 0.091,-0.111 0.048,-0.119 0.001,-0.119"
         style="fill:#518e31;fill-opacity:1;fill-rule:nonzero;stroke:none"
         transform="matrix(1.3333333,0,0,-1.3333333,23.933333,25.852933)"
         clip-path="url(#clipPath213)" />
      <path
         id="path214"
         d="M 0,0 V 0.602 H 0.115 L 0.471,0.169 H 0.415 V 0.602 H 0.553 V 0 H 0.438 L 0.082,0.434 H 0.138 L 0.138,0 Z"
         style="fill:#518e31;fill-opacity:1;fill-rule:nonzero;stroke:none"
         transform="matrix(1.3333333,0,0,-1.3333333,24.5128,25.9976)"
         clip-path="url(#clipPath215)" />
      <path
         id="path216"
         d="M 0,0 C 0.735,0.759 1.4,1.564 2.008,2.428 1.562,1.468 0.859,0.62 0,0"
         style="fill:#223062;fill-opacity:1;fill-rule:nonzero;stroke:none"
         transform="matrix(1.3333333,0,0,-1.3333333,27.1604,26.252)"
         clip-path="url(#clipPath217)" />
      <path
         id="path218"
         d="M 0,0 C 0.608,-0.865 1.274,-1.669 2.008,-2.428 1.149,-1.809 0.447,-0.96 0,0"
         style="fill:#223062;fill-opacity:1;fill-rule:nonzero;stroke:none"
         transform="matrix(1.3333333,0,0,-1.3333333,7.9444,23.014133)"
         clip-path="url(#clipPath219)" />
      <path
         id="path220"
         d="M 0,0 0.129,-0.279 0.434,-0.315 0.208,-0.524 0.268,-0.825 0,-0.675 l -0.268,-0.15 0.06,0.301 -0.226,0.209 0.305,0.036 z"
         style="fill:#223062;fill-opacity:1;fill-rule:nonzero;stroke:none"
         transform="matrix(1.3333333,0,0,-1.3333333,30.144667,21.642667)"
         clip-path="url(#clipPath221)" />
      <path
         id="path222"
         d="m 0,0 -0.129,-0.279 -0.305,-0.036 0.226,-0.209 -0.06,-0.301 0.268,0.15 0.268,-0.15 -0.06,0.301 0.226,0.209 -0.305,0.036 z"
         style="fill:#223062;fill-opacity:1;fill-rule:nonzero;stroke:none"
         transform="matrix(1.3333333,0,0,-1.3333333,7.6374667,21.642667)"
         clip-path="url(#clipPath223)" />
      <path
         id="path224"
         d="M 0,0 C 0,0 -1.931,-0.114 -1.982,1.99 -1.201,1.351 -0.06,1.96 0.03,0.108 c 0,0 -0.341,1.117 -1.342,1.049 0,0 0.941,-0.219 1.312,-1.157"
         style="fill:#518e31;fill-opacity:1;fill-rule:nonzero;stroke:none"
         transform="matrix(1.3333333,0,0,-1.3333333,18.7756,24.23)"
         clip-path="url(#clipPath225)" />
      <path
         id="path226"
         d="M 0,0 C 0,0 1.93,-0.114 1.982,1.99 1.201,1.351 0.06,1.96 -0.03,0.108 c 0,0 0.341,1.117 1.342,1.049 C 1.312,1.157 0.371,0.938 0,0"
         style="fill:#518e31;fill-opacity:1;fill-rule:nonzero;stroke:none"
         transform="matrix(1.3333333,0,0,-1.3333333,19.006667,24.23)"
         clip-path="url(#clipPath227)" />
    </g>
  </g>
</svg>
