<?xml version="1.0" encoding="UTF-8" standalone="no"?>
<!-- Created with Inkscape (http://www.inkscape.org/) -->

<svg
   version="1.1"
   id="svg1"
   width="49.3876"
   height="23.047199"
   viewBox="0 0 49.3876 23.047199"
   sodipodi:docname="certification_logo_02.pdf"
   xmlns:inkscape="http://www.inkscape.org/namespaces/inkscape"
   xmlns:sodipodi="http://sodipodi.sourceforge.net/DTD/sodipodi-0.dtd"
   xmlns="http://www.w3.org/2000/svg"
   xmlns:svg="http://www.w3.org/2000/svg">
  <defs
     id="defs1">
    <clipPath
       clipPathUnits="userSpaceOnUse"
       id="clipPath3">
      <path
         d="M 0,17.285 H 37.041 V 0 H 0 Z"
         transform="translate(-28.329801,-14.6001)"
         id="path3" />
    </clipPath>
    <clipPath
       clipPathUnits="userSpaceOnUse"
       id="clipPath5">
      <path
         d="M 0,17.285 H 37.041 V 0 H 0 Z"
         id="path5" />
    </clipPath>
    <clipPath
       clipPathUnits="userSpaceOnUse"
       id="clipPath7">
      <path
         d="M 0,17.285 H 37.041 V 0 H 0 Z"
         transform="translate(-31.712401,-0.41150026)"
         id="path7" />
    </clipPath>
  </defs>
  <sodipodi:namedview
     id="namedview1"
     pagecolor="#ffffff"
     bordercolor="#000000"
     borderopacity="0.25"
     inkscape:showpageshadow="2"
     inkscape:pageopacity="0.0"
     inkscape:pagecheckerboard="0"
     inkscape:deskcolor="#d1d1d1">
    <inkscape:page
       x="0"
       y="0"
       inkscape:label="1"
       id="page1"
       width="49.3876"
       height="23.047199"
       margin="0.54872668 0.83240002 0.54879999 1.5189067"
       bleed="0" />
  </sodipodi:namedview>
  <g
     id="g1"
     inkscape:groupmode="layer"
     inkscape:label="1">
    <g
       id="layer-MC0">
      <path
         id="path2"
         d="M 0,0 C 2.085,0.005 3.225,-0.811 3.383,-2.642 V -3.42 H 1.06 c 0.002,0.83 -0.205,1.717 -1.17,1.717 -0.774,0 -1.233,-0.425 -1.233,-1.212 0,-1.997 4.104,-1.987 4.727,-4.8 V -9.364 C 3.129,-10.695 2.294,-11.299 1.31,-11.565 H -2.017 C -3.668,-11.058 -4,-9.633 -3.9,-8.056 h 2.387 c 0,-1.089 0.047,-2.002 1.359,-2.002 0.805,0 1.201,0.52 1.201,1.293 0,2.05 -4.805,2.176 -4.805,5.563 0,1.781 0.855,3.194 3.762,3.201 m -6.879,-3.686 c 0.017,1.056 -0.158,1.984 -1.422,1.984 -1.485,0 -1.485,-2.001 -1.485,-4.208 0,-3.562 0.349,-4.192 1.706,-4.192 0.396,0 0.821,0.094 1.184,0.221 v 2.521 h -1.294 v 1.749 h 3.681 v -5.769 c -0.254,-0.049 -0.652,-0.117 -1.104,-0.183 H -9.69 c -2.213,0.551 -2.508,2.302 -2.508,5.777 0,2.87 0.143,5.786 4.043,5.786 2.34,0 3.791,-1.309 3.65,-3.689 h -2.37 z m -11.283,-7.875 c -1.651,0.506 -1.983,1.932 -1.883,3.509 h 2.387 c 0,-1.09 0.047,-2.003 1.358,-2.003 0.805,0 1.201,0.52 1.201,1.293 0,2.05 -4.801,2.176 -4.801,5.563 0,1.782 0.852,3.201 3.759,3.201 2.322,0 3.477,-1.04 3.319,-3.419 h -2.323 c 0,0.85 -0.141,1.717 -1.106,1.717 -0.772,0 -1.231,-0.426 -1.231,-1.213 0,-2.16 4.801,-1.972 4.801,-5.55 0,-1.972 -0.968,-2.779 -2.152,-3.098 h -3.326 z"
         style="fill:#ccccca;fill-opacity:1;fill-rule:nonzero;stroke:none"
         transform="matrix(1.3333333,0,0,-1.3333333,37.773067,3.5804)"
         clip-path="url(#clipPath3)" />
      <path
         id="path4"
         d="M 1.139,2.763 H 36.416 V 3.038 H 1.139 Z"
         style="fill:#f6832b;fill-opacity:1;fill-rule:nonzero;stroke:none"
         transform="matrix(1.3333333,0,0,-1.3333333,0,23.0472)"
         clip-path="url(#clipPath5)" />
      <path
         id="path6"
         d="M 0,0 H 0.274 V 16.462 H 0 Z"
         style="fill:#f6832b;fill-opacity:1;fill-rule:nonzero;stroke:none"
         transform="matrix(1.3333333,0,0,-1.3333333,42.2832,22.498533)"
         clip-path="url(#clipPath7)" />
    </g>
  </g>
</svg>
